<svg width="284" height="270" viewBox="0 0 284 270" fill="none" xmlns="http://www.w3.org/2000/svg">
<g clip-path="url(#clip0_70_224)">
<path opacity="0.5" fill-rule="evenodd" clip-rule="evenodd" d="M282.081 352.104C177.337 352.104 89.8786 317.79 19.7057 249.161C-50.4672 180.532 -85.5537 93.0867 -85.5537 -13.1756C-85.5537 -118.792 -50.2997 -206.07 20.2084 -275.008C90.7165 -343.947 178.007 -378.429 282.081 -378.455C385.458 -378.455 472.736 -343.805 543.914 -274.505C615.093 -205.204 650.746 -118.095 650.875 -13.1756C650.875 92.4409 615.454 179.732 544.61 248.696C473.767 317.661 386.322 352.13 282.274 352.104H282.081ZM267.27 -117.978C255.979 -123.286 252.034 -128.749 236.334 -124.487C222.259 -120.613 222.026 -114.84 215.917 -104.534C211.685 -105.852 207.155 -105.852 202.924 -104.534C199.062 -103.322 195.706 -100.872 193.372 -97.5603C201.647 -97.5603 206.249 -97.5603 208.84 -91.4775L205.901 -90.2377C204.586 -89.9277 202.962 -89.7727 201.686 -89.4628C171.446 -82.5663 170.132 -31.0366 202.769 -33.8262C218.005 -35.1048 216.342 -46.9604 212.243 -56.4915C210.078 -54.7093 211.972 -56.8015 210.31 -54.5931C209.42 -53.392 210.116 -54.0119 209.149 -52.6559C208.717 -51.8573 208.09 -51.1821 207.325 -50.6941C206.561 -50.206 205.685 -49.9211 204.78 -49.8663C190.008 -47.7354 193.527 -67.4174 202.846 -72.1054C210.31 -75.9798 218.662 -71.0593 222.181 -67.3399C227.75 -61.3733 227.479 -56.4528 228.6 -46.4181L240.665 -48.7427L239.737 -37.1194C252.537 -37.5844 266.806 -37.1194 269.977 -21.6218C259.962 -23.714 251.454 -28.6345 239.041 -28.247C217.27 -27.5497 205.63 -9.72736 181.384 -30.6492C178.291 -33.3225 168.121 -47.4254 168.005 -53.3145C165.839 -39.7153 166.961 -30.068 173.07 -21.738C170.391 -21.372 167.82 -20.4402 165.526 -19.0042C163.233 -17.5682 161.27 -15.6608 159.768 -13.4081C163.055 -6.08539 167.502 -8.17758 172.993 -4.30316C170.315 -0.250061 168.483 4.30341 167.606 9.0838C166.729 13.8642 166.825 18.7729 167.889 23.5151C169.9 21.8879 168.353 24.135 170.364 20.8418C174.888 13.4417 176.28 8.83112 183.589 2.67081C205.592 -15.8102 219.01 1.121 239.235 1.66342C252.421 2.01212 259.266 -2.98584 269.938 -4.65186C269.231 -1.92303 267.993 0.638763 266.294 2.8862C264.595 5.13364 262.469 7.02234 260.039 8.44366C253.89 11.8531 247.355 10.8458 239.892 10.6908L240.743 22.0816L228.484 20.0282C228.484 30.1791 227.286 35.5258 221.678 40.8725C206.52 55.4403 189.428 39.5164 195.924 27.2346C196.582 26.1277 197.491 25.1916 198.577 24.5016C199.663 23.8117 200.896 23.3874 202.175 23.2629C203.455 23.1385 204.746 23.3173 205.944 23.7852C207.142 24.253 208.214 24.9966 209.072 25.956C210.039 27.2733 209.072 26.4984 210.077 27.8157L211.972 30.2179C225.971 2.12839 188.77 0.0749207 180.727 21.113C177.803 28.1461 177.566 36.0119 180.063 43.2086C182.559 50.4053 187.614 56.4286 194.262 60.1283C199.946 63.1891 203.774 62.453 208.879 64.5452C206.443 70.2793 201.995 71.0542 194.068 71.1704C197.935 78.2219 207.061 80.5078 215.994 77.9507C219.242 83.3361 218.121 85.0021 222.955 90.0001C226.315 93.7191 230.659 96.4061 235.484 97.7489C253.736 103.561 257.989 94.4557 267.541 91.9373C273.457 98.2526 272.143 101.507 271.756 110.999C275.728 108.076 278.483 103.784 279.49 98.95C281.153 90.2325 278.214 87.3267 275.391 81.7476C277.943 73.0689 281.733 69.3882 278.562 57.4937C277.867 53.7624 276.156 50.2964 273.617 47.4792C271.078 44.662 267.811 42.6034 264.177 41.5312C242.87 35.9133 231.307 62.4917 247.626 70.628C247.394 62.8792 248.245 55.7503 257.293 57.455C263.365 58.6173 266.071 65.7075 263.442 72.6427C262.316 75.5666 260.395 78.1161 257.897 80.002C255.398 81.8881 252.423 83.0352 249.307 83.3135C246.192 83.5918 243.06 82.9901 240.269 81.5766C237.477 80.1631 235.136 77.9943 233.511 75.3161C222.413 56.8739 235.909 25.8398 272.916 27.5445C272.375 16.7349 274.927 7.39755 282.661 3.94931C290.395 7.39755 293.024 16.7737 292.406 27.5833C306.636 26.9246 317.232 30.0629 324.85 37.5018C333.86 46.2967 342.909 72.3715 325.507 81.0889C322.772 82.4798 319.738 83.1788 316.671 83.1248C313.604 83.0707 310.597 82.2654 307.912 80.779C299.25 74.9673 296.311 54.6654 313.829 57.8037C317.889 61.6781 318.005 62.9179 317.696 70.628C333.396 62.8792 323.612 36.7656 301.996 41.3374C298.281 42.2365 294.895 44.168 292.227 46.9095C289.559 49.6511 287.718 53.0915 286.915 56.8351C283.357 68.6908 287.147 72.9914 289.853 81.9025C289.621 84.4209 277.518 99.8023 293.488 111.038C293.488 101.313 291.748 98.795 297.781 92.0922C303.272 93.5645 322.839 109.295 341.942 90.6974C347.085 85.6607 345.809 83.801 349.328 78.1056C357.062 80.1203 366.845 78.9967 371.602 71.4416C363.636 70.9767 359.111 71.0154 356.482 64.7001C366.149 60.8257 373.999 62.2205 380.882 51.7596C391.246 36.2619 387.766 3.75562 361.547 7.59128C349.598 9.33478 345.731 24.0963 354.509 30.1791C356.211 26.3047 356.327 24.135 360.774 23.4377C381.076 20.2994 366.652 63.5378 343.759 41.0275C338.307 35.642 336.799 30.3341 337.031 20.3381L324.85 22.2753L325.816 11.3107C315.337 9.33475 300.294 14.1003 295.461 -4.53561C305.979 -2.79214 313.403 2.12839 326.396 1.81842C340.782 1.46973 379.722 -24.6051 397.588 26.7696C399.134 14.2165 399.096 4.95667 392.677 -4.22571C397.356 -7.55771 402.576 -6.08539 405.747 -13.3306C404.249 -15.5855 402.28 -17.4877 399.977 -18.9058C397.674 -20.3239 395.091 -21.2242 392.406 -21.5443C396.511 -27.818 398.603 -35.1996 398.4 -42.6986C398.4 -43.6672 398.4 -45.9531 398.4 -46.8442L397.008 -51.1061C376.977 -1.74606 343.373 -27.8596 326.512 -28.0921C314.718 -28.3633 305.708 -23.5977 295.577 -21.4668C298.98 -36.9645 312.901 -37.5844 325.778 -36.9645L324.85 -48.2777L337.185 -46.1856C336.644 -58.4287 342.715 -74.2363 357.719 -73.3065C371.679 -72.3766 377.789 -48.0066 359.73 -49.8275C355.863 -51.9972 356.636 -52.4621 354.664 -56.4528C352.739 -54.8782 351.313 -52.7763 350.561 -50.4036C349.808 -48.0308 349.761 -45.4899 350.425 -43.0907C351.089 -40.6916 352.436 -38.5381 354.301 -36.8929C356.166 -35.2478 358.469 -34.1822 360.929 -33.8262C365.929 -32.6833 371.175 -33.4676 375.625 -36.0232C380.074 -38.5788 383.4 -42.7184 384.943 -47.6191C386.617 -51.6545 387.412 -56.0018 387.274 -60.3699C387.137 -64.738 386.069 -69.0263 384.143 -72.9476C382.218 -76.869 379.478 -80.3329 376.108 -83.1076C372.738 -85.8823 368.815 -87.9037 364.602 -89.0366L356.868 -91.245C359.614 -97.1729 363.868 -97.4441 372.336 -97.3666C367.58 -105.348 357.487 -105.813 349.753 -104.341C346.814 -109.532 346.853 -112.477 342.831 -116.7C339.182 -120.176 334.772 -122.75 329.954 -124.216C324.697 -125.995 319.064 -126.351 313.625 -125.249C308.186 -124.147 303.134 -121.625 298.98 -117.94C291.516 -123.17 294.223 -127.626 293.488 -137.312C276.822 -120.923 290.24 -113.29 289.931 -107.479C286.412 -99.73 283.898 -92.6398 287.147 -82.5663C288.08 -78.8821 290.023 -75.5328 292.756 -72.8969C295.49 -70.261 298.904 -68.4435 302.615 -67.6498C324.772 -62.923 333.086 -90.2764 317.541 -97.1341C318.547 -90.5089 318.701 -87.3318 313.171 -84.0386C296.775 -81.9077 299.289 -101.435 308.338 -107.285C328.446 -120.303 348.477 -86.9444 325.391 -63.9304C318.237 -56.8402 306.868 -53.3532 292.831 -53.9344C292.831 -42.1175 291.13 -34.5623 282.854 -30.3005C274.656 -34.4461 272.993 -42.2337 272.916 -54.0119C258.879 -53.3145 247.587 -56.7627 240.395 -63.9304C231.501 -72.8028 222.955 -98.8001 240.395 -107.634C243.06 -108.981 246.013 -109.657 248.998 -109.603C251.983 -109.549 254.91 -108.766 257.525 -107.324C266.961 -100.854 269.397 -81.5202 251.454 -84.0773C247.587 -88.7654 246.891 -89.9665 248.322 -97.0179C232.506 -89.2691 241.439 -63.0005 263.171 -67.4561C266.881 -68.2654 270.292 -70.0929 273.024 -72.7341C275.756 -75.3753 277.7 -78.726 278.639 -82.4113C282.854 -95.4294 277.634 -99.42 275.932 -108.331C283.666 -121.233 281.037 -128.517 272.297 -137.196C271.679 -124.178 274.347 -127.316 267.773 -117.823L267.27 -117.978ZM448.516 52.4958L447.975 51.9146L447.395 51.3334L446.196 50.4036C428.098 36.8044 440.202 40.4464 417.619 35.7583C417.619 44.5532 420.055 49.4737 420.48 55.944H407.255L410.271 71.7516L396.118 70.8605L397.781 87.7142L383.086 87.4042V102.359L366.304 100.848L367.387 115.223L351.609 112.123V124.87C344.339 123.862 339.312 121.344 331.308 122.274C335.6 136.532 333.009 136.493 337.147 140.329C345.693 148.078 344.881 149.937 348.052 153.347C350.413 145.153 355.173 137.858 361.716 132.404C368.26 126.95 376.286 123.589 384.757 122.754C393.228 121.92 401.754 123.651 409.232 127.723C416.71 131.796 422.798 138.022 426.706 145.598C429.426 151.006 430.843 156.977 430.843 163.033C430.843 169.088 429.426 175.06 426.706 180.468C415.453 200.886 384.633 205.729 370.983 185.233C369.252 182.868 368.013 180.179 367.34 177.325C366.666 174.471 366.572 171.511 367.063 168.62C367.553 165.729 368.618 162.966 370.195 160.495C371.772 158.025 373.828 155.897 376.242 154.238C387.301 146.218 402.808 151.991 400.991 165.551C399.367 170.239 392.599 171.828 390.898 165.357C390.578 163.527 390.397 161.675 390.356 159.817C387.721 160.234 385.266 161.418 383.297 163.221C381.327 165.025 379.93 167.368 379.279 169.96C378.628 172.553 378.752 175.28 379.635 177.802C380.518 180.325 382.122 182.531 384.247 184.148C388.509 187.436 393.887 188.921 399.229 188.283C404.571 187.646 409.451 184.938 412.824 180.739C428.06 160.011 414.912 136.88 389.622 136.416C364.332 135.951 350.952 154.083 355.128 179.925C355.808 184.817 357.467 189.521 360.005 193.755C362.544 197.99 365.909 201.667 369.9 204.566C380.225 212.548 387.07 210.959 400.836 213.323C403.001 221.071 400.333 222.892 406.907 227.154C411.818 221.963 409.575 217.352 417.928 211.076C436.142 197.36 444.572 195.578 446.428 159.43C452.151 167.178 452.808 176.361 453.504 187.868C459.073 185.659 460.736 182.909 462.166 176.245C467.503 178.065 469.166 179.732 475.933 179.615L471.641 166.868C478.369 165.357 481.617 162.994 483.589 157.802C471.176 157.376 463.597 156.446 454.742 150.906C493.644 147.845 490.511 142.615 506.791 121.964C512.476 114.796 516.343 115.532 520.713 112.588C522.105 111.697 521.602 111.891 522.414 110.999C519.05 105.653 516.111 106.428 508.57 105.304C506.675 83.4523 501.842 63.3441 474.502 59.3922C424.734 52.1858 423.033 110.186 446.544 121.034C451.574 123.1 457.065 123.776 462.445 122.993C467.825 122.209 472.897 119.994 477.132 116.579C481.077 113.034 483.498 108.095 483.887 102.8C484.277 97.5053 482.604 92.265 479.22 88.1791C477.536 86.1776 475.313 84.7038 472.815 83.9339C470.318 83.1639 467.653 83.1303 465.137 83.837C462.621 84.5437 460.362 85.961 458.628 87.9195C456.895 89.878 455.76 92.2949 455.361 94.8818C460.89 95.153 462.128 95.2693 465.028 98.2138C465.879 112.665 442.87 105.653 446.544 87.9854C447.274 85.0793 448.579 82.3493 450.38 79.9567C452.181 77.5641 454.443 75.5574 457.031 74.055C459.619 72.5526 462.481 71.5849 465.449 71.2093C468.416 70.8336 471.429 71.0576 474.309 71.8678C479.714 73.8765 484.441 77.3763 487.944 81.9629C491.448 86.5496 493.585 92.0358 494.108 97.7877C496.234 122.778 472.104 142.925 444.069 132.657C411.393 120.453 407.449 66.0174 448.555 52.6507L448.516 52.4958ZM400.604 -239.635C375.778 -239.286 358.608 -228.361 355.128 -206.121C347.317 -156.451 404.471 -153.739 416.381 -176.986C418.49 -181.949 419.243 -187.386 418.564 -192.737C417.884 -198.088 415.796 -203.162 412.514 -207.439C407.023 -214.374 394.146 -219.062 384.517 -210.809C374.888 -202.557 377.905 -187.873 390.472 -186.517C390.472 -192.328 390.666 -193.375 393.991 -196.125C406.637 -196.125 401.184 -180.976 392.213 -177.799C381.114 -173.925 371.95 -183.417 369.011 -190.004C359.769 -209.686 381.153 -227.934 401.841 -224.874C406.589 -224.125 411.131 -222.399 415.18 -219.805C419.229 -217.211 422.698 -213.804 425.368 -209.801C428.038 -205.797 429.852 -201.282 430.694 -196.541C431.537 -191.801 431.39 -186.936 430.264 -182.255C421.988 -138.9 358.338 -139.288 348.477 -179.659C347.792 -179.196 347.19 -178.62 346.698 -177.954C342.174 -172.375 342.831 -170.825 334.517 -163.968C334.517 -156.219 333.125 -155.095 331.617 -148.47C338.396 -148.83 345.127 -149.815 351.725 -151.415V-138.242L367.503 -141.457L366.265 -127.2L383.396 -128.749V-113.91L397.858 -114.143L396.466 -96.9792L410.89 -98.2965L407.255 -82.7213L420.403 -82.4501C419.32 -75.1662 417.116 -70.5169 417.735 -62.1482C422.659 -64.098 427.907 -65.097 433.203 -65.0927C440.743 -74.6625 445.77 -75.5536 448.4 -79.2731C408.802 -88.7266 408.338 -151.376 449.367 -160.636C472.569 -165.944 490.589 -151.531 493.605 -132.662C497.008 -111.431 478.33 -90.5476 458.609 -99.6525C452.151 -102.636 442.677 -112.632 446.66 -122.899C451.262 -135.103 468.431 -133.941 464.409 -124.565C462.398 -120.691 460.968 -121.31 455.399 -121.078C456.443 -109.687 470.016 -106.007 478.214 -113.329C495.539 -129.253 471.834 -158.079 447.279 -147.385C439.003 -143.782 432.932 -134.406 432.004 -122.24C430.032 -96.5917 447.859 -81.6752 473.999 -85.2397C496.699 -88.3392 508.184 -106.007 508.222 -130.958C516.652 -132.779 518.16 -131.384 522.491 -137.389C517.542 -141.729 512.94 -140.179 506.791 -147.54C493.489 -163.464 495.19 -175.01 454.974 -176.831C455.642 -177.636 456.49 -178.273 457.449 -178.691L467.155 -182.255C472.37 -183.424 477.705 -183.97 483.048 -183.882C480.921 -189.733 477.518 -191.127 471.447 -192.91C473.489 -196.889 474.725 -201.235 475.082 -205.695C470.551 -205.548 466.137 -204.212 462.282 -201.821C460.62 -208.756 458.879 -211.158 453.543 -213.986C452.344 -201.433 452.19 -194.614 446.466 -185.083C444.533 -205.192 444.997 -213.25 433.087 -225.3C425.855 -232.622 425.159 -231.228 418.083 -236.574C414.151 -239.509 411.187 -243.558 409.575 -248.198C409.575 -248.43 408.725 -250.29 408.686 -250.367C407.294 -253.041 407.681 -251.994 406.83 -252.886C401.107 -249.825 402.151 -246.26 400.565 -238.821L400.604 -239.635ZM144.648 55.8665C145.073 49.6287 147.316 44.437 147.51 35.797C120.441 42.771 138.732 35.0609 124.772 46.1805L116.612 52.612C158.066 66.7924 153.851 120.453 120.479 132.89C114.729 135.262 108.477 136.15 102.295 135.473C96.1131 134.796 90.1997 132.576 85.0965 129.015C80.2146 125.362 76.3695 120.495 73.9414 114.896C71.5133 109.296 70.5865 103.159 71.2526 97.0903C74.6169 66.8698 113.287 62.8792 118.739 88.2566C122.336 105.072 100.719 113.13 100.1 99.1824C102.846 95.308 103.542 95.5405 109.923 95.308C109.51 92.6564 108.328 90.185 106.524 88.2016C104.719 86.2183 102.372 84.8105 99.7753 84.1538C97.1783 83.4971 94.4458 83.6204 91.9182 84.5084C89.3905 85.3964 87.1795 87.0098 85.5605 89.1477C82.2487 93.3209 80.7194 98.6374 81.3062 103.936C81.8931 109.235 84.5485 114.087 88.6927 117.431C109.226 132.192 131.964 121.305 133.163 95.2693C134.362 69.2332 116.032 55.7503 89.7368 59.9734C62.3586 64.3515 58.8009 85.622 56.6741 105.769C48.6694 106.97 46.5039 106.079 42.9076 111.426C46.0012 115.3 53.2711 115.3 58.9169 123.049C74.0755 143.506 75.0809 149.24 110.58 151.41C101.686 156.989 94.1065 157.88 81.6935 158.306C82.6286 160.789 84.2478 162.956 86.3629 164.554C88.478 166.152 91.0023 167.116 93.6425 167.333C91.6345 171.384 90.3269 175.746 89.7755 180.235C94.331 180.087 98.7693 178.752 102.653 176.361C104.625 183.296 105.901 186.047 111.701 188.41C112.32 177.562 113.132 167.062 118.778 159.972C119.706 178.724 121.91 190.231 132.196 200.343C137.104 204.539 142.27 208.421 147.664 211.967C154.934 217.546 153.581 222.699 158.105 227.464C164.679 222.931 161.972 221.73 164.176 213.671C178.291 211.037 184.787 213.013 195.538 204.45C220.518 184.574 215.917 135.137 174.231 136.803C148.979 137.81 137.107 161.793 152.537 181.63C155.9 185.504 160.581 187.987 165.669 188.595C170.758 189.204 175.891 187.895 180.07 184.923C182.278 183.434 184 181.325 185.018 178.86C186.037 176.395 186.307 173.684 185.795 171.066C185.283 168.449 184.012 166.04 182.141 164.143C180.269 162.245 177.881 160.943 175.275 160.398C175.275 160.669 175.004 161.018 174.927 161.251C174.849 161.483 174.695 161.793 174.656 162.064L173.96 165.667C172.8 169.736 173.96 167.488 171.369 169.232C159.072 174.191 161.392 147.535 180.959 151.177C186.751 152.576 191.757 156.211 194.886 161.291C198.015 166.371 199.014 172.484 197.664 178.298C195.881 183.697 192.618 188.486 188.249 192.116C183.88 195.747 178.58 198.074 172.954 198.832C130.998 204.566 118.314 142.15 159.149 126.575C182.351 117.663 207.216 126.575 216.883 153.695C218.933 151.603 219.861 149.279 221.91 146.954C237.069 129.48 225.777 147.535 233.511 122.584C225.313 121.732 220.634 124.211 213.21 125.219V112.084L197.394 115.455L198.515 101.003L181.578 102.708V87.7529H166.767L168.469 70.8605L154.045 71.8678L157.37 56.1377L144.3 55.9052L144.648 55.8665ZM118.623 -185.819C112.707 -195.777 112.861 -201.86 111.508 -214.684C109.124 -213.608 107.067 -211.92 105.546 -209.79C104.025 -207.66 103.093 -205.164 102.846 -202.557C98.9597 -204.941 94.5232 -206.276 89.9688 -206.431C90.4356 -201.962 91.748 -197.623 93.8358 -193.646C87.7647 -191.825 84.1684 -190.43 82.2349 -184.618C91.0516 -184.347 103.929 -183.301 110.348 -177.528C74.965 -176.288 72.8767 -167.61 59.381 -149.4C53.7738 -141.884 49.1335 -143.201 42.985 -138.125C46.6586 -132.043 49.6749 -133.282 57.0608 -131.733C57.0608 -106.781 68.6618 -88.8816 91.129 -85.9758C117.308 -82.6051 135.251 -96.8629 133.279 -122.976C132.351 -134.871 126.628 -144.015 118.662 -147.811C113.619 -149.928 108.085 -150.588 102.686 -149.719C97.288 -148.849 92.2399 -146.484 88.1127 -142.891C80.7654 -136.382 78.2132 -122.821 86.5272 -114.569C94.2612 -107.014 108.492 -109.881 109.961 -121.62C104.315 -121.853 102.846 -121.349 100.874 -125.146C96.0787 -136.266 120.982 -135.065 119.281 -116.855C116.883 -91.6712 76.7438 -90.3927 71.678 -121.969C64.9108 -164.007 126.203 -178.729 143.449 -137.196C145.715 -131.996 146.927 -126.397 147.014 -120.725C147.101 -115.052 146.062 -109.418 143.957 -104.152C141.852 -98.8847 138.723 -94.0896 134.753 -90.0448C130.782 -86 126.049 -82.7863 120.827 -80.5904L116.96 -78.2657C122.921 -75.0675 128.119 -70.613 132.196 -65.209C137.492 -65.2563 142.746 -64.2693 147.664 -62.3031C148.09 -71.0206 146.117 -74.9725 144.996 -82.6826H158.105L154.664 -98.3739L169.165 -97.2116L167.502 -114.414H182.274L182.042 -129.098L199.134 -127.51L197.896 -141.729L213.635 -138.668V-151.841C220.258 -150.384 226.979 -149.413 233.743 -148.935C232.003 -155.715 230.805 -156.684 230.882 -164.433L216.883 -180.163C207.757 -142.116 150.333 -138.242 136.566 -176.056C134.335 -181.942 133.588 -188.289 134.391 -194.533C135.194 -200.778 137.521 -206.728 141.168 -211.856C157.951 -233.63 191.091 -227.353 197.703 -204.959C199.092 -199.167 198.162 -193.061 195.112 -187.948C192.061 -182.835 187.134 -179.122 181.384 -177.606C164.563 -174.119 156.79 -196.552 170.982 -196.242C174.308 -193.452 174.385 -192.6 174.54 -186.672C177.061 -186.929 179.455 -187.907 181.437 -189.489C183.419 -191.071 184.906 -193.189 185.721 -195.594C186.536 -197.998 186.644 -200.586 186.033 -203.05C185.422 -205.514 184.117 -207.75 182.274 -209.492C180.428 -211.363 178.226 -212.844 175.798 -213.846C173.37 -214.848 170.766 -215.352 168.141 -215.327C165.515 -215.301 162.921 -214.748 160.513 -213.699C158.105 -212.65 155.932 -211.127 154.122 -209.221C140.974 -195.389 142.521 -166.176 172.568 -163.387C199.366 -160.868 213.596 -178.884 210.193 -206.005C209.631 -210.969 208.048 -215.762 205.546 -220.083C203.044 -224.404 199.676 -228.159 195.654 -231.111C184.053 -239.519 178.948 -237.504 164.215 -240.1C163.596 -247.849 163.674 -251.181 158.453 -253.815C156.365 -251.607 157.216 -252.769 156.017 -249.941C154.593 -245.173 151.712 -240.972 147.78 -237.93C128.213 -222.433 122.684 -227.586 118.817 -185.974L118.623 -185.819ZM282.545 166.752C271.292 159.003 270.751 141.414 278.136 129.48C267.464 128.124 263.79 133.355 259.304 137.035C255.437 133.936 252.421 128.744 245.035 128.589V145.482C237.301 149.124 232.119 149.898 230.34 159.236C281.346 156.562 283.937 198.91 261.818 212.664C248.167 221.149 227.866 211.502 228.562 196.081C229.335 179.77 250.41 180.971 247.897 193.718C247.123 197.593 244.416 197.786 241.864 201.467C276.164 206.271 262.63 160.941 230.263 174.85C225.128 177.136 220.906 181.08 218.27 186.052C215.634 191.024 214.738 196.738 215.723 202.281C217.038 212.896 226.976 220.335 233.047 225.178C218.469 223.551 180.07 212.587 171.678 234.632C185.445 232.617 187.146 230.525 202.034 234.632C226.512 241.18 246.195 243.698 266.652 224.713C269.074 221.894 271.656 219.216 274.385 216.693C274.385 228.665 271.64 235.252 265.027 240.405C258.415 245.558 249.211 246.371 242.715 250.517C256.868 254.391 265.569 251.563 277.518 247.882C280.263 250.827 278.368 251.059 282.545 253.268C285.136 251.912 283.396 253.268 285.522 250.866L287.611 247.882C307.216 253.655 302.344 253.694 322.413 250.323C303.581 241.8 290.859 242.807 290.704 216.655C294.997 219.522 296.814 225.217 309.034 232.424C327.634 243.427 343.837 239.785 363.945 234.399C377.943 230.525 380.728 232.85 393.489 234.748C385.329 212.974 347.085 223.512 332.158 225.333C360.465 205.186 349.946 180.816 334.208 174.695C301.145 161.793 290.279 207.162 323.226 201.583L321.601 199.607L321.021 199.104C312.823 191.355 319.088 185.737 322.297 184.691C330.534 182.017 336.296 189.418 336.528 196.314C337.108 211.502 317.193 221.498 303.272 212.78C300.072 210.89 297.294 208.36 295.112 205.347C292.93 202.335 291.391 198.905 290.589 195.27C289.787 191.636 289.741 187.875 290.453 184.222C291.164 180.569 292.619 177.102 294.726 174.036C304.239 160.282 314.873 160.011 334.943 159.003C333.009 149.666 327.557 149.085 320.016 145.482C319.513 139.128 320.828 135.679 319.436 128.589C312.785 128.589 309.227 133.975 305.631 137.035C301.764 134.013 302.615 133.161 297.897 131.069C294.496 129.434 290.681 128.867 286.953 129.442C294.997 143.312 293.488 159.197 282.506 166.752H282.545ZM53.3872 -21.5056C36.7205 -21.8543 29.7212 -27.0847 24.5781 -40.4902C23.8433 -42.3886 23.186 -44.1321 22.4126 -46.4181L19.7831 -52.0359C14.3693 -41.885 20.0924 -27.046 22.2966 -17.1662C18.1589 -15.8877 17.7722 -16.0039 16.6508 -11.897C18.507 -10.3473 20.0924 -9.72733 22.0646 -8.25507C20.0924 0.966034 14.3306 16.5412 19.7831 26.6147C28.0584 12.8605 23.3793 -3.68326 52.6911 -4.80682C51.1443 -1.70731 53.1551 -4.4194 50.6802 -1.66858C42.1342 7.86249 29.9145 15.8051 30.4559 41.2987C31.2438 50.9412 33.0455 60.4734 35.831 69.7369C39.1566 83.6073 37.6872 85.2345 35.2123 97.8264C57.2928 92.4797 45.6919 47.459 45.1118 37.4243C50.7576 43.5846 57.2542 52.9219 68.3138 54.2392C73.7212 55.0012 79.2292 53.9809 84.0073 51.3322C88.7853 48.6835 92.5742 44.55 94.8026 39.5552C109.033 5.53784 61.8945 -5.388 68.4684 27.932C73.3408 25.1424 69.5125 20.4931 81.5388 22.1204C86.6433 27.6995 87.6487 32.9687 81.5388 38.2379C66.767 50.6748 40.3168 22.469 62.2039 1.77966C67.0663 -2.80365 73.4631 -5.40039 80.1384 -5.50073C86.8137 -5.6011 93.2854 -3.19781 98.2829 1.23724C108.105 9.37354 111.121 22.2366 110.464 39.594C118.507 37.9667 121.794 32.5038 124.076 24.445C129.753 24.9998 135.475 24.8958 141.129 24.135C140.356 16.8899 136.179 14.1003 132.351 10.2646C135.17 8.11719 137.388 5.27701 138.79 2.01901C140.193 -1.23901 140.732 -4.80457 140.356 -8.33258C133.202 -5.42676 129.335 -2.01724 119.281 -3.68326C116.066 -4.12286 112.969 -5.19458 110.168 -6.83688C107.368 -8.47916 104.919 -10.6596 102.962 -13.2531C107.022 -18.1171 112.689 -21.3613 118.933 -22.3967C129.76 -24.3726 132.815 -20.4207 140.472 -17.9411C140.124 -27.7821 139.234 -28.557 134.478 -34.0199C133.69 -34.7354 133.058 -35.6059 132.622 -36.5771L133.704 -37.7393C136.643 -40.4902 141.438 -44.3646 140.704 -50.2924L124.965 -50.9124C119.822 -57.3826 121.098 -63.7367 110.851 -65.8289C109.884 -55.2904 112.088 -36.1896 96.3881 -25.8449C90.4396 -21.6732 83.0807 -20.0399 75.9303 -21.3041C68.7799 -22.5684 62.4236 -26.6267 58.2596 -32.5864C48.7854 -45.6819 56.7901 -66.0226 71.3686 -67.4561C88.074 -69.0446 90.7036 -47.7741 77.5171 -48.084C73.0701 -48.084 71.6007 -50.9511 69.3965 -53.9731C69.3965 -53.9731 69.0098 -53.7407 68.9711 -53.392C68.2835 -52.3105 67.8226 -51.1003 67.6165 -49.8347C67.4104 -48.5692 67.4635 -47.2749 67.7724 -46.0306C70.0926 -24.7988 106.442 -33.5162 95.46 -64.8602C93.5417 -69.86 90.0616 -74.1043 85.5387 -76.9601C81.0158 -79.8159 75.6926 -81.1301 70.3633 -80.7066C56.3647 -80.3579 51.8404 -69.6258 45.1505 -64.0854C45.9625 -76.2123 49.4428 -84.9685 49.0175 -98.5677C48.6308 -110.191 44.7637 -121.155 35.5217 -124.216C37.4551 -109.842 39.3886 -110.113 35.5217 -94.887C30.7266 -75.05 26.0862 -59.2036 37.7645 -39.5991C44.4157 -28.4795 50.4869 -25.7287 53.2325 -21.5443L53.3872 -21.5056ZM153.233 -0.273773C160.541 67.1023 219.397 124.017 295.113 116.462C312.304 115.02 329.036 110.166 344.337 102.182C359.637 94.1975 373.199 83.2431 384.232 69.9564C395.266 56.6697 403.551 41.3164 408.605 24.7904C413.659 8.26447 415.38 -9.10376 413.669 -26.3028C411.958 -43.5018 406.849 -60.1879 398.639 -75.3893C390.429 -90.5908 379.282 -104.004 365.848 -114.847C352.414 -125.69 336.961 -133.747 320.389 -138.548C303.817 -143.35 286.457 -144.8 269.32 -142.813C203.117 -135.917 144.919 -76.2898 153.31 -0.273773H153.233ZM267.232 -148.664C150.41 -133.941 103.271 8.98608 194.184 90.3488C208.208 102.375 224.53 111.412 242.156 116.908C259.781 122.404 278.34 124.243 296.698 122.313C366.304 115.378 427.209 51.1784 417.735 -28.5182C415.341 -49.5782 408.093 -69.7922 396.563 -87.5638C385.033 -105.335 369.538 -120.178 351.3 -130.919C325.892 -145.688 296.427 -151.908 267.232 -148.664ZM242.986 -228.438C239.119 -227.896 242.096 -228.438 241.013 -227.082L243.024 -225.687C244.627 -225.134 246.004 -224.068 246.943 -222.653C247.882 -221.239 248.331 -219.554 248.221 -217.859C248.111 -216.164 247.449 -214.552 246.335 -213.271C245.221 -211.991 243.718 -211.112 242.057 -210.771C233.357 -208.95 227.788 -216.66 228.523 -225.106C229.76 -238.976 249.714 -247.965 262.669 -238.511C265.688 -236.496 268.278 -233.899 270.286 -230.871C272.293 -227.844 273.68 -224.446 274.364 -220.876C275.047 -217.305 275.015 -213.635 274.269 -210.077C273.522 -206.52 272.077 -203.147 270.016 -200.155C261.702 -187.679 249.946 -186.013 230.07 -185.587C231.655 -175.204 238.771 -176.095 245.19 -171.368L244.842 -155.25C247.926 -155.03 250.975 -156.016 253.349 -158.001C254.331 -158.678 255.216 -159.486 255.979 -160.403L259.188 -163.464C264.795 -159.008 266.922 -155.948 277.634 -155.715C275.004 -162.495 271.408 -167.339 273.109 -176.792C274.124 -183.252 277.433 -189.127 282.429 -193.336C298.554 -179.853 290.163 -164.278 287.34 -155.754C298.051 -155.754 300.14 -159.163 305.669 -163.503C305.901 -163.503 306.211 -163.503 306.327 -163.038L308.415 -160.984C309.759 -159.286 311.454 -157.897 313.382 -156.915C315.311 -155.932 317.429 -155.377 319.591 -155.289L320.016 -171.407C326.203 -176.095 333.396 -175.281 334.904 -185.626C316.304 -185.974 303.581 -187.718 295.422 -199.612C291.148 -205.587 289.404 -213.012 290.57 -220.269C291.736 -227.527 295.718 -234.028 301.648 -238.357C314.099 -247.926 334.362 -239.829 336.451 -226.307C337.727 -217.628 332.584 -209.841 323.96 -210.809C322.172 -210.92 320.477 -211.649 319.166 -212.872C317.855 -214.096 317.008 -215.737 316.77 -217.517C316.533 -219.296 316.92 -221.103 317.864 -222.629C318.809 -224.154 320.253 -225.304 321.949 -225.881L324.231 -227.004C323.148 -228.554 323.922 -227.857 322.065 -228.593C301.377 -229.523 301.454 -215.42 305.553 -207.865C313.713 -192.716 351.764 -196.242 349.753 -227.237C348.941 -240.216 338.887 -244.943 333.086 -251.375C345.306 -250.6 354.858 -246.88 368.469 -247.5C379.606 -248.004 391.671 -252.769 393.334 -261.254C380.689 -258.813 378.91 -257.38 365.298 -260.596C337.649 -266.872 314.447 -272.529 291.014 -242.851C289.389 -262.223 300.41 -268.809 315.608 -274.079L321.137 -276.791C311.083 -281.595 297.239 -277.139 287.611 -274.389L285.329 -277.527C283.589 -279.813 285.02 -278.573 282.545 -279.89C278.678 -277.759 280.921 -278.108 277.518 -274.389C268.276 -277.217 253.89 -281.672 243.952 -276.791C250.256 -270.979 276.087 -272.374 274.115 -242.851C251.261 -270.592 231.346 -268.228 202.15 -261.138C186.682 -257.264 186.682 -258.93 171.872 -261.138C178.987 -239.441 219.784 -250.522 232.042 -251.568C226.203 -244.866 216.187 -240.72 215.337 -227.392C213.287 -196.397 251.377 -192.755 259.536 -208.02C263.945 -216.195 263.403 -229.329 242.986 -228.787V-228.438ZM543.914 25.0649L544.92 27.4283L546.505 24.7549C546.003 8.05621 548.323 7.47504 542.832 -8.37131C546.505 -11.0834 546.699 -8.87497 548.4 -13.4081C546.467 -16.3138 546.621 -16.1201 542.832 -17.2824C544.92 -25.8449 550.566 -43.396 545.307 -52.6171C537.998 -42.6211 542.252 -22.048 511.78 -21.6218C514.641 -25.8837 520.094 -27.7434 527.248 -39.7153C532.215 -47.6025 534.855 -56.7355 534.866 -66.0613C534.312 -75.8261 532.599 -85.4899 529.761 -94.8482C526.204 -109.765 527.75 -109.726 529.761 -124.178C520.326 -121.078 516.652 -110.191 516.304 -98.4902C515.918 -84.9297 519.282 -76.251 520.171 -64.0466C513.559 -69.4321 509.382 -79.7768 496.003 -80.5904C490.651 -81.2854 485.22 -80.1831 480.56 -77.456C475.9 -74.7289 472.273 -70.5309 470.248 -65.5189C465.531 -53.8957 468.586 -39.909 477.789 -35.7634C485.948 -31.889 498.98 -34.2524 497.124 -52.8495L496.273 -54.9805L494.688 -52.5783C493.964 -50.9928 492.743 -49.6882 491.21 -48.8637C489.677 -48.0393 487.917 -47.7404 486.198 -48.0127C484.479 -48.285 482.897 -49.1136 481.693 -50.3718C480.489 -51.6301 479.729 -53.2487 479.529 -54.9805C478.756 -63.5817 486.064 -68.5797 494.997 -67.3399C508.648 -65.3639 516.42 -45.3332 507.139 -32.4702C494.34 -14.9191 467.193 -16.7401 457.603 -40.6839C453.736 -50.4087 455.477 -55.5229 454.51 -65.7126C444.34 -63.5817 445.5 -57.2664 440.357 -50.5249L424.579 -50.7574C424.497 -48.6776 424.882 -46.6057 425.705 -44.6946C426.528 -42.7836 427.769 -41.082 429.336 -39.7153L432.623 -36.6158C428.176 -29.4868 425.353 -30.6492 424.889 -17.9799C432.429 -20.4595 435.794 -24.4889 446.428 -22.4742C452.63 -21.3292 458.254 -18.0882 462.36 -13.2918C458.301 -8.13797 452.414 -4.75168 445.925 -3.83823C435.562 -2.05597 431.927 -5.69797 424.773 -8.48752C424.373 -4.98425 424.874 -1.43686 426.228 1.81796C427.581 5.07278 429.743 7.927 432.507 10.1097C428.64 13.9841 424.386 16.5412 423.729 23.9801C429.11 24.7287 434.557 24.8717 439.97 24.4063C444.185 29.7917 443.412 37.308 454.432 39.4002C453.156 -11.5871 489.467 -11.1996 503.156 2.28333C505.638 4.47552 507.615 7.18048 508.953 10.2119C510.29 13.2433 510.956 16.5291 510.905 19.8432C510.854 23.1573 510.086 26.4207 508.655 29.409C507.224 32.3972 505.163 35.0392 502.615 37.153C491.014 47.2265 470.906 35.9908 483.28 22.0429C492.174 20.9193 491.826 22.3528 495.693 27.777C502.731 18.6334 491.826 4.53052 479.336 8.63739C460.774 14.7977 463.481 55.1303 494.804 54.2392C507.681 53.9293 514.641 43.3521 519.978 37.3856C519.63 46.1805 507.719 92.9446 529.916 97.7489C527.402 85.1571 526.049 83.1811 529.259 69.8919C535.639 44.5532 539.97 20.9968 517.155 0.578613C514.255 -1.97852 514.216 -1.4361 512.515 -4.80682C523.535 -4.57437 530.457 -2.55969 535.136 3.8331C539.46 10.2317 542.446 17.4408 543.914 25.0262V25.0649ZM282.158 272.446C320.477 272.848 358.527 265.986 394.301 252.222C428.977 238.422 460.535 217.79 487.108 191.548C514.077 165.667 535.338 134.414 549.522 99.8023C563.709 63.7998 570.762 25.3735 570.287 -13.3306C570.746 -51.8806 563.652 -90.1464 549.406 -125.96C535.122 -160.608 513.771 -191.884 486.722 -217.783C460.144 -244.105 428.592 -264.851 393.914 -278.805C321.677 -305.824 242.136 -305.824 169.899 -278.805C135.298 -264.985 103.837 -244.309 77.4011 -218.016C50.5336 -192.129 29.3778 -160.888 15.2973 -126.308C1.15468 -90.2954 -5.8716 -51.873 -5.39108 -13.1756C-5.88362 25.6631 1.10131 64.2328 15.1813 100.422C29.1555 134.99 50.2366 166.224 77.0531 192.091C131.913 245.661 200.281 272.446 282.158 272.446ZM81.3841 187.403C135.058 239.862 201.983 266.105 282.158 266.131C319.749 266.558 357.081 259.84 392.174 246.333C426.069 232.883 456.939 212.781 482.971 187.209C509.302 161.932 530.05 131.403 543.876 97.5939C557.796 62.3653 564.706 24.7491 564.216 -13.1368C564.679 -50.8767 557.742 -88.3405 543.799 -123.403C529.844 -157.23 508.994 -187.766 482.584 -213.057C456.573 -238.798 425.708 -259.094 391.787 -272.761C321.045 -299.211 243.155 -299.211 172.413 -272.761C138.57 -259.276 107.783 -239.103 81.8869 -213.444C55.6692 -188.142 35.0166 -157.632 21.2525 -123.868C7.43423 -88.5996 0.566277 -50.9834 1.02813 -13.0981C0.508194 24.9127 7.30939 62.6672 21.0592 98.0976C34.6577 131.84 55.2145 162.325 81.3841 187.558V187.403Z" fill="white"/>
</g>
<defs>
<clipPath id="clip0_70_224">
<rect y="-293" width="567" height="563" rx="281.5" fill="white"/>
</clipPath>
</defs>
</svg>
