<svg width="802" height="543" viewBox="0 0 802 543" fill="none" xmlns="http://www.w3.org/2000/svg">
<g clip-path="url(#clip0_51_338)">
<g clip-path="url(#clip1_51_338)">
<path fill-rule="evenodd" clip-rule="evenodd" d="M439.291 855.896C276.171 855.896 139.971 802.443 30.6891 695.539C-78.5926 588.634 -133.233 452.417 -133.233 286.89C-133.233 122.368 -78.3316 -13.5865 31.472 -120.974C141.276 -228.362 277.215 -282.076 439.291 -282.116C600.283 -282.116 736.202 -228.141 847.049 -120.19C957.897 -12.2386 1013.42 123.455 1013.62 286.89C1013.62 451.411 958.459 587.386 848.133 694.814C737.808 802.242 601.627 855.936 439.592 855.896H439.291ZM416.226 123.636C398.641 115.367 392.499 106.858 368.049 113.496C346.128 119.532 345.767 128.524 336.252 144.578C329.663 142.525 322.607 142.525 316.018 144.578C310.005 146.466 304.778 150.283 301.143 155.441C314.03 155.441 321.197 155.441 325.232 164.917L320.655 166.848C318.607 167.331 316.078 167.572 314.091 168.055C266.998 178.798 264.95 259.067 315.777 254.722C339.504 252.73 336.915 234.262 330.531 219.415C327.159 222.192 330.11 218.933 327.52 222.373C326.135 224.244 327.219 223.278 325.713 225.39C325.041 226.634 324.063 227.686 322.872 228.446C321.682 229.207 320.318 229.65 318.908 229.736C295.904 233.055 301.384 202.396 315.897 195.093C327.52 189.058 340.528 196.723 346.008 202.517C354.68 211.811 354.258 219.476 356.005 235.107L374.794 231.486L373.348 249.592C393.282 248.868 415.503 249.592 420.442 273.733C404.844 270.474 391.596 262.809 372.264 263.413C338.36 264.499 320.233 292.261 282.474 259.671C277.657 255.506 261.819 233.538 261.638 224.364C258.266 245.548 260.012 260.576 269.527 273.552C265.354 274.122 261.35 275.573 257.779 277.81C254.207 280.047 251.151 283.019 248.811 286.528C253.93 297.934 260.855 294.675 269.406 300.711C265.237 307.024 262.383 314.117 261.017 321.564C259.651 329.01 259.801 336.657 261.457 344.044C264.589 341.509 262.18 345.01 265.311 339.88C272.357 328.352 274.525 321.17 285.907 311.574C320.173 282.786 341.07 309.16 372.566 310.005C393.101 310.548 403.76 302.763 420.381 300.167C419.28 304.418 417.351 308.409 414.705 311.91C412.06 315.411 408.749 318.353 404.965 320.567C395.389 325.878 385.212 324.309 373.589 324.067L374.914 341.811L355.824 338.612C355.824 354.425 353.957 362.753 345.225 371.082C321.618 393.775 295.001 368.97 305.118 349.838C306.143 348.114 307.558 346.655 309.249 345.581C310.94 344.506 312.86 343.845 314.853 343.651C316.846 343.457 318.856 343.736 320.722 344.465C322.588 345.193 324.256 346.352 325.593 347.846C327.098 349.898 325.593 348.691 327.159 350.743L330.11 354.485C351.91 310.729 293.977 307.53 281.451 340.302C276.896 351.258 276.528 363.51 280.416 374.721C284.304 385.931 292.176 395.314 302.528 401.077C311.381 405.845 317.343 404.698 325.292 407.958C321.498 416.89 314.572 418.097 302.227 418.278C308.249 429.262 322.461 432.823 336.373 428.84C341.431 437.229 339.685 439.824 347.212 447.609C352.445 453.403 359.211 457.588 366.724 459.68C395.149 468.733 401.773 454.55 416.648 450.627C425.861 460.464 423.814 465.534 423.212 480.321C429.398 475.766 433.687 469.081 435.256 461.551C437.846 447.971 433.269 443.445 428.872 434.754C432.847 421.235 438.749 415.502 433.811 396.973C432.729 391.161 430.064 385.762 426.11 381.373C422.156 376.985 417.068 373.778 411.408 372.108C378.226 363.357 360.22 404.759 385.634 417.433C385.272 405.362 386.597 394.258 400.689 396.913C410.144 398.724 414.359 409.768 410.264 420.571C408.51 425.126 405.519 429.097 401.628 432.035C397.738 434.973 393.104 436.76 388.252 437.193C383.4 437.627 378.524 436.69 374.176 434.488C369.828 432.286 366.183 428.908 363.653 424.736C346.369 396.008 367.387 347.665 425.018 350.321C424.175 333.482 428.15 318.937 440.194 313.566C452.238 318.937 456.333 333.543 455.37 350.381C477.531 349.355 494.032 354.244 505.896 365.831C519.927 379.531 534.019 420.149 506.919 433.728C502.66 435.895 497.935 436.984 493.159 436.899C488.383 436.815 483.7 435.561 479.519 433.245C466.029 424.192 461.452 392.568 488.733 397.456C495.056 403.491 495.236 405.423 494.755 417.433C519.205 405.362 503.969 364.685 470.305 371.806C464.52 373.207 459.246 376.215 455.092 380.486C450.937 384.757 448.069 390.116 446.819 395.947C441.278 414.415 447.18 421.114 451.395 434.996C451.034 438.918 432.185 462.878 457.056 480.381C457.056 465.232 454.346 461.309 463.741 450.868C472.292 453.162 502.764 477.665 532.513 448.696C540.523 440.85 538.536 437.953 544.016 429.081C556.06 432.219 571.296 430.469 578.703 418.7C566.298 417.976 559.252 418.036 555.157 408.199C570.212 402.164 582.437 404.336 593.156 388.041C609.296 363.9 603.876 313.264 563.046 319.239C544.437 321.955 538.415 344.949 552.085 354.425C554.735 348.389 554.916 345.01 561.841 343.923C593.457 339.035 570.995 406.388 535.344 371.323C526.853 362.934 524.504 354.666 524.865 339.095L505.896 342.113L507.401 325.033C491.081 321.955 467.655 329.378 460.127 300.349C476.508 303.064 488.07 310.729 508.305 310.246C530.707 309.703 591.35 269.086 619.172 349.114C621.581 329.559 621.521 315.135 611.524 300.831C618.811 295.641 626.94 297.934 631.879 286.648C629.546 283.136 626.48 280.173 622.893 277.964C619.306 275.755 615.283 274.352 611.102 273.854C617.495 264.081 620.752 252.582 620.437 240.901C620.437 239.392 620.437 235.831 620.437 234.443L618.269 227.804C587.074 304.694 534.742 264.016 508.485 263.654C490.118 263.232 476.086 270.655 460.308 273.974C465.608 249.833 487.287 248.868 507.341 249.833L505.896 232.21L525.106 235.469C524.263 216.398 533.718 191.774 557.084 193.222C578.824 194.671 588.339 232.633 560.215 229.796C554.193 226.416 555.398 225.692 552.326 219.476C549.329 221.929 547.108 225.203 545.936 228.899C544.764 232.595 544.69 236.553 545.724 240.29C546.759 244.027 548.856 247.382 551.761 249.945C554.666 252.507 558.252 254.167 562.082 254.722C569.869 256.502 578.039 255.28 584.968 251.299C591.897 247.319 597.078 240.87 599.48 233.236C602.088 226.95 603.326 220.178 603.111 213.374C602.896 206.57 601.234 199.89 598.235 193.781C595.236 187.673 590.969 182.277 585.721 177.955C580.473 173.633 574.364 170.484 567.803 168.719L555.759 165.279C560.035 156.045 566.659 155.623 579.847 155.743C572.44 143.311 556.722 142.586 544.678 144.88C540.101 136.793 540.161 132.206 533.898 125.627C528.215 120.212 521.348 116.203 513.845 113.919C505.657 111.148 496.885 110.594 488.415 112.31C479.945 114.027 472.077 117.955 465.608 123.696C453.985 115.548 458.2 108.608 457.056 93.5196C431.101 119.049 451.998 130.938 451.516 139.991C446.036 152.062 442.121 163.106 447.18 178.798C448.633 184.537 451.659 189.754 455.916 193.86C460.173 197.966 465.49 200.798 471.268 202.034C505.775 209.397 518.723 166.788 494.514 156.105C496.08 166.426 496.32 171.375 487.709 176.505C462.175 179.824 466.089 149.406 480.181 140.293C511.496 120.014 542.691 171.978 506.739 207.828C495.598 218.872 477.893 224.304 456.032 223.399C456.032 241.806 453.383 253.575 440.495 260.214C427.728 253.756 425.139 241.625 425.018 223.278C403.158 224.364 385.573 218.993 374.372 207.828C360.521 194.007 347.212 153.51 374.372 139.75C378.523 137.651 383.122 136.599 387.771 136.683C392.419 136.767 396.977 137.985 401.05 140.233C415.744 150.312 419.538 180.428 391.596 176.444C385.573 169.142 384.489 167.271 386.718 156.286C362.087 168.357 375.998 209.276 409.843 202.336C415.619 201.075 420.932 198.228 425.186 194.114C429.44 190 432.468 184.78 433.931 179.039C440.495 158.761 432.365 152.545 429.716 138.663C441.76 118.566 437.665 107.22 424.055 93.7006C423.091 113.979 427.247 109.091 417.009 123.877L416.226 123.636ZM698.484 389.188L697.64 388.282L696.737 387.377L694.87 385.929C666.687 364.745 685.536 370.418 650.367 363.115C650.367 376.815 654.161 384.48 654.823 394.559H634.227L638.925 419.183L616.883 417.795L619.473 444.049L596.589 443.566V466.862L570.453 464.508L572.139 486.899L547.569 482.071V501.927C536.247 500.358 528.418 496.435 515.953 497.883C522.637 520.093 518.602 520.033 525.046 526.008C538.355 538.078 537.09 540.975 542.028 546.286C545.705 533.523 553.118 522.159 563.309 513.663C573.499 505.168 585.998 499.932 599.19 498.632C612.382 497.332 625.659 500.028 637.306 506.372C648.952 512.715 658.432 522.415 664.519 534.215C668.754 542.639 670.961 551.941 670.961 561.374C670.961 570.807 668.754 580.109 664.519 588.533C646.994 620.339 598.998 627.883 577.74 595.956C575.044 592.273 573.115 588.083 572.066 583.638C571.017 579.192 570.871 574.581 571.635 570.078C572.399 565.574 574.058 561.27 576.513 557.422C578.969 553.573 582.171 550.258 585.93 547.674C603.153 535.181 627.302 544.174 624.471 565.297C621.942 572.6 611.403 575.074 608.754 564.995C608.255 562.144 607.974 559.259 607.911 556.365C603.807 557.014 599.983 558.859 596.916 561.668C593.849 564.477 591.674 568.128 590.66 572.166C589.646 576.204 589.839 580.452 591.214 584.381C592.59 588.31 595.087 591.748 598.396 594.267C605.034 599.388 613.409 601.701 621.728 600.708C630.047 599.715 637.647 595.496 642.899 588.956C666.626 556.667 646.151 520.636 606.766 519.912C567.382 519.188 546.545 547.433 553.049 587.688C554.108 595.308 556.691 602.636 560.644 609.232C564.597 615.828 569.838 621.556 576.053 626.072C592.133 638.505 602.792 636.031 624.231 639.712C627.603 651.783 623.448 654.619 633.685 661.258C641.333 653.171 637.841 645.989 650.848 636.212C679.213 614.847 692.341 612.071 695.232 555.761C704.144 567.832 705.168 582.136 706.252 600.06C714.924 596.62 717.513 592.335 719.742 581.955C728.052 584.791 730.642 587.386 741.18 587.205L734.496 567.349C744.974 564.995 750.033 561.314 753.104 553.227C733.773 552.563 721.97 551.114 708.179 542.484C768.762 537.716 763.884 529.568 789.237 497.4C798.089 486.235 804.112 487.382 810.917 482.795C813.085 481.407 812.302 481.709 813.566 480.321C808.327 471.992 803.75 473.199 792.007 471.449C789.056 437.41 781.529 406.087 738.952 399.931C661.447 388.705 658.798 479.053 695.412 495.952C703.246 499.17 711.797 500.224 720.176 499.003C728.554 497.782 736.452 494.332 743.047 489.011C749.191 483.489 752.961 475.797 753.568 467.549C754.174 459.3 751.569 451.138 746.299 444.773C743.677 441.655 740.215 439.359 736.326 438.16C732.437 436.96 728.286 436.908 724.368 438.009C720.45 439.11 716.931 441.318 714.232 444.368C711.532 447.419 709.765 451.184 709.143 455.214C717.754 455.636 719.681 455.817 724.198 460.404C725.523 482.916 689.691 471.992 695.412 444.471C696.55 439.944 698.581 435.691 701.387 431.964C704.192 428.237 707.713 425.112 711.744 422.771C715.774 420.431 720.232 418.924 724.853 418.338C729.475 417.753 734.166 418.102 738.651 419.364C747.068 422.493 754.43 427.945 759.886 435.09C765.342 442.234 768.67 450.78 769.484 459.74C772.797 498.668 735.218 530.051 691.558 514.058C640.671 495.047 634.528 410.251 698.544 389.429L698.484 389.188ZM623.869 -65.8721C585.207 -65.3289 558.469 -48.3094 553.049 -13.667C540.884 63.7053 629.891 67.93 648.44 31.7183C651.724 23.9865 652.897 15.5184 651.839 7.18237C650.78 -1.15363 647.529 -9.05762 642.417 -15.719C633.866 -26.5221 613.812 -33.8248 598.817 -20.9696C583.822 -8.1145 588.519 14.7592 608.091 16.8716C608.091 7.81863 608.392 6.18912 613.571 1.90405C633.264 1.90405 624.773 25.502 610.801 30.4509C593.518 36.4862 579.245 21.6998 574.668 11.4398C560.276 -19.2194 593.578 -47.6456 625.796 -42.8777C633.19 -41.7115 640.263 -39.0231 646.568 -34.9821C652.874 -30.941 658.276 -25.6349 662.435 -19.398C666.593 -13.1611 669.417 -6.12872 670.729 1.25616C672.042 8.64102 671.813 16.2182 670.059 23.5103C657.172 91.0451 558.047 90.4416 542.691 27.554C541.624 28.2749 540.687 29.173 539.921 30.2095C532.875 38.9003 533.899 41.3144 520.951 51.9969C520.951 64.0674 518.783 65.8177 516.434 76.138C526.991 75.5778 537.474 74.0424 547.749 71.5511V92.0711L572.32 87.0618L570.393 109.272L597.071 106.858V129.973L619.594 129.611L617.426 156.347L639.888 154.295L634.227 178.557L654.703 178.979C653.016 190.325 649.584 197.568 650.547 210.604C658.216 207.567 666.389 206.01 674.636 206.017C686.379 191.11 694.208 189.722 698.303 183.928C636.636 169.202 635.914 71.6115 699.808 57.1872C735.941 48.9189 764.004 71.3701 768.701 100.762C774.001 133.835 744.914 166.365 714.201 152.182C704.144 147.535 689.39 131.964 695.593 115.971C702.759 96.9597 729.497 98.7702 723.234 113.376C720.103 119.411 717.875 118.445 709.203 118.807C710.829 136.551 731.967 142.285 744.734 130.878C771.713 106.073 734.797 61.1705 696.556 77.8279C683.669 83.4406 674.214 98.046 672.769 116.997C669.698 156.95 697.46 180.186 738.169 174.634C773.519 169.805 791.405 142.285 791.465 103.417C804.593 100.581 806.942 102.754 813.687 93.3989C805.978 86.6394 798.812 89.0534 789.237 77.5864C768.521 52.7814 771.171 34.7963 708.54 31.9597C709.582 30.7056 710.902 29.7134 712.395 29.0628L727.51 23.5103C735.632 21.6901 743.94 20.8392 752.261 20.9756C748.949 11.8623 743.649 9.68958 734.195 6.91333C737.375 0.71402 739.299 -6.0549 739.856 -13.0031C732.799 -12.7738 725.925 -10.6928 719.922 -6.9678C717.333 -17.7709 714.623 -21.5128 706.312 -25.9185C704.445 -6.36426 704.205 4.25781 695.292 19.1046C692.281 -12.2185 693.003 -24.7719 674.455 -43.5416C663.194 -54.9483 662.11 -52.7756 651.089 -61.1042C644.966 -65.676 640.351 -71.9828 637.841 -79.2101C637.841 -79.5722 636.516 -82.4691 636.455 -82.5898C634.287 -86.7542 634.89 -85.1246 633.565 -86.5128C624.652 -81.7449 626.278 -76.1924 623.809 -64.6047L623.869 -65.8721ZM225.264 394.439C225.927 384.722 229.419 376.634 229.721 363.176C187.566 374.039 216.05 362.029 194.31 379.35L181.604 389.369C246.161 411.458 239.597 495.047 187.626 514.42C178.671 518.115 168.934 519.498 159.307 518.444C149.68 517.389 140.471 513.931 132.523 508.384C124.921 502.693 118.933 495.112 115.151 486.39C111.37 477.667 109.927 468.107 110.964 458.654C116.203 411.579 176.425 405.362 184.916 444.893C190.516 471.086 156.853 483.64 155.889 461.913C160.165 455.878 161.249 456.24 171.185 455.878C170.543 451.747 168.702 447.897 165.892 444.808C163.082 441.718 159.427 439.525 155.383 438.502C151.339 437.479 147.083 437.672 143.147 439.055C139.211 440.438 135.767 442.951 133.246 446.282C128.089 452.782 125.707 461.064 126.621 469.318C127.535 477.573 131.67 485.13 138.124 490.339C170.101 513.333 205.512 496.374 207.378 455.817C209.245 415.26 180.7 394.257 139.75 400.836C97.1132 407.656 91.5728 440.789 88.2607 472.173C75.7948 474.044 72.4225 472.656 66.8219 480.984C71.6396 487.02 82.9612 487.02 91.7535 499.09C115.36 530.956 116.926 539.889 172.209 543.268C158.358 551.959 146.555 553.347 127.224 554.011C128.68 557.88 131.202 561.254 134.496 563.744C137.79 566.233 141.721 567.734 145.832 568.073C142.705 574.383 140.669 581.179 139.81 588.171C146.904 587.94 153.816 585.86 159.864 582.136C162.935 592.939 164.922 597.224 173.956 600.905C174.919 584.007 176.184 567.651 184.976 556.606C186.421 585.817 189.854 603.742 205.873 619.494C213.516 626.03 221.561 632.077 229.961 637.6C241.283 646.291 239.175 654.318 246.221 661.741C256.459 654.68 252.243 652.809 255.676 640.255C277.657 636.151 287.774 639.229 304.516 625.891C343.418 594.93 336.252 517.92 271.334 520.516C232.009 522.085 213.521 559.443 237.549 590.344C242.787 596.378 250.077 600.246 258.001 601.194C265.926 602.142 273.919 600.103 280.427 595.474C283.867 593.154 286.547 589.868 288.133 586.029C289.719 582.189 290.14 577.966 289.343 573.889C288.546 569.811 286.566 566.059 283.652 563.103C280.738 560.147 277.019 558.118 272.959 557.27C272.959 557.693 272.538 558.236 272.418 558.598C272.297 558.96 272.056 559.443 271.996 559.865L270.912 565.478C269.105 571.815 270.912 568.315 266.877 571.031C247.727 578.756 251.34 537.233 281.812 542.906C290.832 545.085 298.628 550.748 303.501 558.661C308.374 566.574 309.929 576.096 307.828 585.153C305.05 593.564 299.969 601.023 293.165 606.679C286.361 612.334 278.107 615.96 269.346 617.14C204.006 626.072 184.253 528.844 247.847 504.582C283.98 490.701 322.702 504.582 337.758 546.829C340.949 543.57 342.395 539.949 345.586 536.328C369.193 509.109 351.609 537.233 363.653 498.366C350.886 497.038 343.599 500.901 332.037 502.47V482.01L307.406 487.261L309.153 464.749L282.776 467.405V444.109H259.711L262.361 417.795L239.898 419.364L245.077 394.861L224.722 394.499L225.264 394.439ZM184.735 17.9579C175.521 2.44724 175.762 -7.02817 173.655 -27.0049C169.943 -25.3294 166.739 -22.6992 164.37 -19.3813C162.001 -16.0634 160.55 -12.1762 160.165 -8.1145C154.113 -11.8288 147.204 -13.9081 140.111 -14.1498C140.838 -7.1879 142.882 -0.428558 146.133 5.76663C136.679 8.60321 131.078 10.7759 128.067 19.8288C141.797 20.2513 161.851 21.8808 171.848 30.8734C116.745 32.8047 113.493 46.3237 92.4761 74.6895C83.744 86.3979 76.5175 84.3459 66.9423 92.2522C72.6634 101.728 77.3606 99.7963 88.8629 102.21C88.8629 141.078 106.929 168.961 141.918 173.487C182.688 178.738 210.63 156.528 207.559 115.85C206.114 97.3218 197.201 83.0785 184.795 77.1639C176.941 73.8674 168.324 72.8383 159.917 74.1927C151.51 75.5472 143.648 79.2314 137.221 84.8288C125.779 94.968 121.804 116.092 134.752 128.947C146.796 140.715 168.957 136.249 171.246 117.962C162.453 117.6 160.165 118.385 157.094 112.47C149.626 95.1491 188.409 97.02 185.759 125.386C182.025 164.615 119.516 166.607 111.627 117.419C101.088 51.9365 196.539 29.0024 223.397 93.7006C226.926 101.8 228.813 110.521 228.948 119.358C229.084 128.194 227.466 136.97 224.188 145.174C220.91 153.378 216.038 160.848 209.854 167.149C203.67 173.449 196.299 178.455 188.168 181.876L182.146 185.497C191.428 190.479 199.523 197.418 205.873 205.836C214.12 205.762 222.302 207.3 229.961 210.363C230.624 196.783 227.553 190.627 225.806 178.617H246.221L240.861 154.174L263.445 155.985L260.855 129.188H283.86L283.498 106.314L310.116 108.789L308.189 86.6393L332.699 91.4072V70.8873C343.014 73.157 353.48 74.6698 364.014 75.4137C361.304 64.852 359.437 63.3432 359.558 51.2726L337.758 26.7694C323.545 86.0358 234.117 92.0711 212.678 33.1668C209.204 23.9978 208.041 14.1115 209.291 4.38416C210.541 -5.34323 214.166 -14.6114 219.844 -22.5992C245.98 -56.5174 297.59 -46.7403 307.888 -11.8564C310.051 -2.83438 308.602 6.67789 303.852 14.6424C299.102 22.6068 291.428 28.39 282.474 30.7527C256.278 36.1844 244.174 1.24017 266.275 1.72299C271.454 6.06839 271.574 7.39615 271.815 16.6301C275.741 16.2289 279.47 14.7058 282.557 12.242C285.644 9.7782 287.959 6.47742 289.228 2.73248C290.497 -1.01245 290.666 -5.04385 289.714 -8.88205C288.762 -12.7203 286.73 -16.2036 283.86 -18.9176C280.985 -21.8325 277.556 -24.1389 273.775 -25.7002C269.994 -27.2614 265.939 -28.0456 261.85 -28.0061C257.761 -27.9668 253.721 -27.1046 249.971 -25.4708C246.221 -23.837 242.836 -21.4648 240.018 -18.4952C219.543 3.05078 221.952 48.5568 268.744 52.9022C310.477 56.8251 332.639 28.761 327.339 -13.4859C326.463 -21.218 323.999 -28.6844 320.102 -35.4152C316.205 -42.1459 310.96 -47.9951 304.696 -52.5945C286.63 -65.6911 278.68 -62.5527 255.736 -66.5963C254.773 -78.6669 254.893 -83.8572 246.763 -87.9612C243.511 -84.5211 244.836 -86.3317 242.969 -81.9259C240.752 -74.4983 236.265 -67.9547 230.142 -63.2166C199.67 -39.0755 191.059 -47.1024 185.036 17.7165L184.735 17.9579ZM440.013 567.168C422.489 555.098 421.646 527.697 433.148 509.109C416.527 506.996 410.806 515.144 403.82 520.878C397.798 516.049 393.101 507.962 381.599 507.721V534.034C369.555 539.708 361.485 540.915 358.715 555.46C438.147 551.295 442.181 617.261 407.735 638.686C386.477 651.903 354.86 636.875 355.944 612.855C357.149 587.447 389.97 589.318 386.055 609.174C384.851 615.209 380.635 615.511 376.661 621.244C430.077 628.728 408.999 558.115 358.594 579.782C350.597 583.343 344.022 589.486 339.917 597.232C335.813 604.977 334.416 613.878 335.951 622.512C337.999 639.048 353.475 650.636 362.93 658.18C340.227 655.645 280.427 638.565 267.359 672.906C288.798 669.768 291.447 666.509 314.633 672.906C352.753 683.106 383.405 687.029 415.263 657.456C419.035 653.064 423.057 648.893 427.307 644.963C427.307 663.612 423.031 673.872 412.733 681.899C402.435 689.926 388.103 691.193 377.986 697.651C400.026 703.686 413.576 699.28 432.185 693.547C436.46 698.134 433.51 698.496 440.013 701.936C444.048 699.824 441.338 701.936 444.651 698.194L447.902 693.547C478.435 702.539 470.847 702.6 502.102 697.349C472.774 684.071 452.961 685.641 452.72 644.903C459.405 649.369 462.235 658.24 481.265 669.466C510.232 686.606 535.464 680.933 566.779 672.544C588.58 666.509 592.915 670.13 612.789 673.087C600.082 639.169 540.523 655.585 517.277 658.421C561.359 627.038 544.979 589.076 520.469 579.54C468.98 559.443 452.058 630.116 503.366 621.425L500.837 618.347L499.934 617.563C487.167 605.492 496.923 596.741 501.921 595.112C514.748 590.947 523.721 602.475 524.083 613.217C524.986 636.876 493.972 652.447 472.292 638.867C467.309 635.923 462.983 631.981 459.585 627.289C456.187 622.596 453.789 617.253 452.541 611.592C451.292 605.93 451.22 600.072 452.328 594.381C453.437 588.691 455.702 583.29 458.983 578.515C473.798 557.089 490.359 556.667 521.613 555.098C518.602 540.553 510.111 539.647 498.368 534.034C497.585 524.137 499.633 518.765 497.465 507.721C487.107 507.721 481.566 516.11 475.966 520.878C469.943 516.17 471.268 514.842 463.921 511.583C458.625 509.036 452.685 508.153 446.879 509.048C459.405 530.655 457.056 555.399 439.953 567.168H440.013ZM83.1419 273.914C57.1865 273.371 46.2864 265.223 38.2769 244.341C37.1327 241.384 36.109 238.668 34.9046 235.107L30.8096 226.356C22.3786 242.168 31.2913 265.284 34.7239 280.674C28.2802 282.665 27.6781 282.484 25.9316 288.881C28.8223 291.296 31.2913 292.261 34.3626 294.555C31.2913 308.919 22.3183 333.18 30.8096 348.872C43.6969 327.447 36.4101 301.676 82.0579 299.926C79.649 304.754 82.7805 300.53 78.9263 304.815C65.6174 319.661 46.5875 332.034 47.4306 371.746C48.6576 386.766 51.4634 401.615 55.8014 416.045C60.9804 437.651 58.692 440.186 54.8378 459.801C89.2242 451.472 71.1579 381.342 70.2545 365.711C79.0469 375.307 89.164 389.852 106.387 391.904C114.808 393.091 123.386 391.501 130.827 387.375C138.268 383.249 144.169 376.811 147.639 369.03C169.8 316.04 96.3905 299.021 106.628 350.924C114.216 346.579 108.254 339.336 126.983 341.871C134.932 350.562 136.498 358.77 126.983 366.978C103.978 386.351 62.7871 342.414 96.8724 310.186C104.445 303.046 114.407 299.001 124.802 298.845C135.198 298.689 145.276 302.432 153.059 309.341C168.355 322.015 173.052 342.052 172.029 369.09C184.555 366.556 189.673 358.046 193.226 345.492C202.068 346.357 210.98 346.195 219.784 345.01C218.58 333.724 212.076 329.378 206.114 323.403C210.504 320.058 213.958 315.634 216.142 310.559C218.326 305.484 219.165 299.93 218.58 294.434C207.439 298.96 201.417 304.271 185.759 301.676C180.752 300.992 175.93 299.322 171.568 296.764C167.207 294.206 163.393 290.809 160.346 286.769C166.669 279.192 175.493 274.139 185.217 272.526C202.079 269.448 206.836 275.604 218.76 279.466C218.218 264.137 216.833 262.93 209.426 254.42C208.2 253.306 207.215 251.95 206.535 250.437L208.222 248.626C212.798 244.341 220.266 238.306 219.122 229.072L194.612 228.106C186.602 218.027 188.589 208.13 172.631 204.87C171.125 221.286 174.558 251.04 150.108 267.154C140.844 273.653 129.384 276.197 118.249 274.228C107.113 272.258 97.2145 265.937 90.7298 256.653C75.9755 236.254 88.4413 204.569 111.145 202.336C137.16 199.861 141.255 232.995 120.72 232.512C113.794 232.512 111.506 228.046 108.074 223.338C108.074 223.338 107.471 223.701 107.411 224.244C106.34 225.928 105.622 227.814 105.301 229.785C104.981 231.756 105.063 233.772 105.544 235.711C109.158 268.784 165.766 255.205 148.663 206.379C145.675 198.591 140.256 191.979 133.212 187.531C126.169 183.082 117.879 181.035 109.579 181.695C87.7789 182.238 80.733 198.956 70.3147 207.586C71.5794 188.696 76.9993 175.056 76.3369 153.872C75.7346 135.767 69.7125 118.687 55.3196 113.919C58.3306 136.31 61.3417 135.887 55.3196 159.606C47.8521 190.506 40.6256 215.191 58.8124 245.729C69.1705 263.051 78.6252 267.336 82.901 273.854L83.1419 273.914ZM238.633 306.987C250.015 411.941 341.672 500.599 459.585 488.83C486.357 486.584 512.416 479.022 536.243 466.585C560.07 454.148 581.191 437.084 598.373 416.387C615.556 395.69 628.459 371.773 636.329 346.03C644.199 320.288 646.88 293.233 644.216 266.441C641.551 239.65 633.594 213.657 620.809 189.978C608.023 166.298 590.665 145.405 569.743 128.514C548.822 111.623 524.757 99.0724 498.949 91.5933C473.14 84.1141 446.105 81.8556 419.418 84.9495C316.319 95.6923 225.686 188.575 238.754 306.987H238.633ZM416.166 75.8362C234.237 98.7703 160.827 321.412 302.408 448.152C324.247 466.887 349.666 480.964 377.115 489.524C404.563 498.085 433.465 500.95 462.055 497.943C570.453 487.14 665.302 387.136 650.547 262.99C646.819 230.185 635.532 198.697 617.576 171.013C599.621 143.33 575.489 120.21 547.087 103.478C507.519 80.4711 461.633 70.7832 416.166 75.8362ZM378.407 -48.4301C372.385 -47.5852 377.022 -48.4302 375.336 -46.3178L378.467 -44.1451C380.963 -43.2827 383.108 -41.6221 384.57 -39.4189C386.032 -37.2157 386.732 -34.592 386.561 -31.9515C386.39 -29.311 385.357 -26.8 383.623 -24.8048C381.889 -22.8097 379.548 -21.441 376.962 -20.9093C363.412 -18.0727 354.74 -30.0829 355.884 -43.2398C357.811 -64.8461 388.886 -78.8479 409.06 -64.1219C413.763 -60.983 417.795 -56.9374 420.922 -52.2208C424.049 -47.5043 426.208 -42.2111 427.273 -36.6499C428.338 -31.0887 428.287 -25.3707 427.125 -19.8291C425.962 -14.2876 423.711 -9.03329 420.502 -4.37262C407.554 15.061 389.247 17.6561 358.293 18.32C360.762 34.4945 371.843 33.1064 381.84 40.4695L381.298 65.5763C386.101 65.9196 390.85 64.3837 394.546 61.2912C396.076 60.2374 397.454 58.9784 398.641 57.5493L403.64 52.7815C412.372 59.722 415.684 64.4899 432.365 64.852C428.27 54.2903 422.67 46.7462 425.319 32.0201C426.899 21.9572 432.053 12.8052 439.833 6.24945C464.945 27.2522 451.877 51.514 447.481 64.7917C464.162 64.7917 467.414 59.4806 476.026 52.7211C476.387 52.7211 476.869 52.7211 477.05 53.4453L480.302 56.644C482.395 59.2903 485.034 61.4527 488.037 62.9838C491.041 64.5149 494.339 65.3786 497.706 65.5159L498.368 40.4091C508.003 33.1064 519.205 34.3738 521.553 18.2596C492.587 17.7165 472.774 15.0006 460.067 -3.52768C453.411 -12.8344 450.695 -24.4005 452.511 -35.7055C454.327 -47.0105 460.528 -57.1378 469.763 -63.8805C489.154 -78.7876 520.71 -66.1739 523.962 -45.1108C525.949 -31.5917 517.94 -19.4608 504.511 -20.9696C501.725 -21.1418 499.086 -22.2776 497.044 -24.1833C495.002 -26.089 493.683 -28.6462 493.314 -31.418C492.944 -34.1898 493.546 -37.0043 495.017 -39.3806C496.488 -41.757 498.737 -43.5477 501.379 -44.4469L504.932 -46.1971C503.246 -48.6112 504.45 -47.5249 501.56 -48.6716C469.341 -50.12 469.462 -28.1516 475.845 -16.3828C488.552 7.21509 547.81 1.72299 544.678 -46.5592C543.414 -66.7774 527.756 -74.1404 518.723 -84.159C537.753 -82.952 552.627 -77.1581 573.825 -78.1237C591.169 -78.9083 609.958 -86.3317 612.548 -99.549C592.855 -95.7467 590.085 -93.5137 568.887 -98.523C525.829 -108.3 489.696 -117.112 453.202 -70.8814C450.673 -101.058 467.836 -111.318 491.503 -119.526L500.114 -123.75C484.457 -131.234 462.898 -124.294 447.902 -120.009L444.349 -124.897C441.639 -128.458 443.868 -126.527 440.013 -128.579C433.991 -125.259 437.484 -125.802 432.185 -120.009C417.792 -124.414 395.39 -131.355 379.913 -123.75C389.729 -114.698 429.957 -116.87 426.885 -70.8814C391.294 -114.094 360.28 -110.412 314.813 -99.3679C290.725 -93.3326 290.725 -95.9278 267.66 -99.3679C278.741 -65.5703 342.274 -82.8312 361.364 -84.4608C352.271 -74.0197 336.674 -67.562 335.349 -46.8006C332.157 1.4816 391.475 7.15475 404.182 -16.6242C411.047 -29.3587 410.204 -49.8183 378.407 -48.9733V-48.4301ZM847.049 346.458L848.615 350.14L851.084 345.975C850.302 319.963 853.915 319.058 845.363 294.374C851.084 290.149 851.385 293.589 854.035 286.528C851.024 282.001 851.265 282.303 845.363 280.492C848.615 267.155 857.408 239.815 849.218 225.451C837.836 241.022 844.46 273.069 797.005 273.733C801.462 267.094 809.953 264.197 821.094 245.548C828.829 233.262 832.942 219.035 832.958 204.508C832.096 189.297 829.427 174.244 825.008 159.666C819.468 136.43 821.877 136.491 825.008 113.979C810.314 118.807 804.594 135.767 804.052 153.993C803.449 175.117 808.689 188.636 810.074 207.647C799.776 199.258 793.272 183.143 772.435 181.876C764.101 180.793 755.643 182.51 748.386 186.759C741.129 191.007 735.481 197.546 732.328 205.353C724.981 223.459 729.738 245.246 744.071 251.704C756.778 257.739 777.072 254.058 774.182 225.089L772.857 221.769L770.388 225.511C769.261 227.981 767.359 230.013 764.972 231.297C762.584 232.582 759.843 233.047 757.167 232.623C754.49 232.199 752.026 230.908 750.151 228.948C748.275 226.988 747.092 224.467 746.781 221.769C745.577 208.371 756.958 200.585 770.87 202.517C792.128 205.595 804.232 236.797 789.779 256.834C769.846 284.174 727.57 281.337 712.635 244.039C706.613 228.891 709.323 220.924 707.818 205.051C691.98 208.371 693.786 218.208 685.777 228.71L661.207 228.348C661.078 231.587 661.677 234.815 662.959 237.792C664.241 240.769 666.173 243.419 668.614 245.548L673.732 250.376C666.807 261.481 662.411 259.671 661.688 279.406C673.431 275.544 678.671 269.267 695.232 272.405C704.891 274.189 713.648 279.237 720.043 286.709C713.722 294.737 704.554 300.012 694.449 301.435C678.309 304.211 672.648 298.538 661.508 294.193C660.886 299.65 661.666 305.176 663.774 310.246C665.882 315.316 669.247 319.762 673.552 323.162C667.53 329.197 660.905 333.18 659.882 344.768C668.261 345.934 676.745 346.157 685.174 345.432C691.739 353.821 690.534 365.53 707.697 368.789C705.71 289.364 762.258 289.968 783.576 310.971C787.44 314.385 790.52 318.599 792.603 323.321C794.686 328.043 795.723 333.162 795.643 338.324C795.563 343.486 794.368 348.57 792.139 353.225C789.91 357.88 786.701 361.995 782.733 365.288C764.667 380.98 733.352 363.478 752.622 341.751C766.473 340 765.931 342.233 771.953 350.683C782.914 336.439 765.931 314.471 746.48 320.868C717.574 330.465 721.789 393.292 770.568 391.904C790.622 391.421 801.462 374.945 809.772 365.65C809.23 379.35 790.682 452.196 825.249 459.68C821.335 440.065 819.227 436.987 824.226 416.286C834.162 376.815 840.907 340.121 805.376 308.315C800.86 304.332 800.799 305.177 798.15 299.926C815.313 300.288 826.092 303.427 833.379 313.385C840.112 323.352 844.762 334.582 847.049 346.398V346.458ZM439.411 731.81C499.086 732.436 558.341 721.747 614.053 700.306C668.054 678.81 717.202 646.671 758.584 605.794C800.583 565.478 833.693 516.795 855.782 462.879C877.876 406.796 888.86 346.939 888.12 286.648C888.835 226.598 877.786 166.99 855.601 111.203C833.357 57.2308 800.107 8.51132 757.982 -31.8331C716.592 -72.8356 667.456 -105.151 613.451 -126.889C500.955 -168.976 377.085 -168.976 264.589 -126.889C210.703 -105.361 161.708 -73.1532 120.539 -32.1953C78.698 8.12997 45.7517 56.7938 23.8239 110.66C1.79922 166.758 -9.14291 226.61 -8.3946 286.89C-9.16164 347.39 1.71611 407.471 23.6432 463.844C45.4054 517.692 78.2354 566.345 119.997 606.639C205.431 690.087 311.903 731.81 439.411 731.81ZM126.742 599.336C210.329 681.054 314.552 721.933 439.411 721.973C497.953 722.639 556.09 712.174 610.741 691.133C663.526 670.181 711.601 638.869 752.141 599.034C793.146 559.659 825.458 512.104 846.989 459.438C868.668 404.562 879.429 345.966 878.666 286.95C879.386 228.162 868.583 169.803 846.869 115.186C825.137 62.4921 792.668 14.9252 751.539 -24.4701C711.031 -64.5687 662.964 -96.1844 610.139 -117.474C499.971 -158.675 378.671 -158.675 268.503 -117.474C215.799 -96.4677 167.854 -65.0435 127.525 -25.0736C86.6958 14.3397 54.533 61.8668 33.0979 114.462C11.5785 169.4 0.882904 227.996 1.60216 287.011C0.79245 346.221 11.3841 405.032 32.7969 460.223C53.9742 512.784 85.9876 560.272 126.742 599.578V599.336Z" fill="white"/>
</g>
</g>
<defs>
<clipPath id="clip0_51_338">
<rect width="958" height="543" fill="white"/>
</clipPath>
<clipPath id="clip1_51_338">
<rect y="-149" width="883" height="877" rx="438.5" fill="white"/>
</clipPath>
</defs>
</svg>
