<svg width="283" height="282" viewBox="0 0 283 282" fill="none" xmlns="http://www.w3.org/2000/svg">
<g clip-path="url(#clip0_70_229)">
<path opacity="0.5" fill-rule="evenodd" clip-rule="evenodd" d="M-1.91919 645.104C-106.663 645.104 -194.121 610.79 -264.294 542.161C-334.467 473.532 -369.554 386.087 -369.554 279.824C-369.554 174.208 -334.3 86.9302 -263.792 17.9915C-193.284 -50.9472 -105.993 -85.4295 -1.91919 -85.4554C101.458 -85.4554 188.736 -50.8052 259.914 18.4952C331.093 87.7955 366.746 174.905 366.875 279.824C366.875 385.441 331.454 472.731 260.61 541.696C189.767 610.661 102.322 645.13 -1.72589 645.104H-1.91919ZM-16.7298 175.022C-28.0214 169.714 -31.9657 164.251 -47.6656 168.512C-61.7415 172.387 -61.9735 178.16 -68.0833 188.466C-72.3145 187.148 -76.8452 187.148 -81.0764 188.466C-84.9375 189.678 -88.2937 192.128 -90.6279 195.44C-82.3525 195.44 -77.7508 195.44 -75.1599 201.522L-78.0989 202.762C-79.4137 203.072 -81.0378 203.227 -82.3139 203.537C-112.554 210.434 -113.868 261.963 -81.2311 259.174C-65.9952 257.895 -67.658 246.04 -71.757 236.508C-73.9225 238.291 -72.0276 236.198 -73.6905 238.407C-74.5799 239.608 -73.8838 238.988 -74.8506 240.344C-75.2825 241.143 -75.9103 241.818 -76.6749 242.306C-77.4394 242.794 -78.3154 243.079 -79.2203 243.134C-93.9922 245.265 -90.4732 225.583 -81.1538 220.895C-73.6905 217.02 -65.3378 221.941 -61.8188 225.66C-56.2504 231.627 -56.5211 236.547 -55.3996 246.582L-43.3347 244.257L-44.2627 255.881C-31.463 255.416 -17.1938 255.881 -14.0229 271.378C-24.0384 269.286 -32.5457 264.365 -44.9588 264.753C-66.7299 265.45 -78.3696 283.273 -102.616 262.351C-105.709 259.677 -115.879 245.575 -115.995 239.685C-118.161 253.285 -117.039 262.932 -110.93 271.262C-113.609 271.628 -116.18 272.56 -118.474 273.996C-120.767 275.432 -122.73 277.339 -124.232 279.592C-120.945 286.915 -116.498 284.822 -111.007 288.697C-113.685 292.75 -115.517 297.303 -116.394 302.084C-117.271 306.864 -117.175 311.773 -116.111 316.515C-114.1 314.888 -115.647 317.135 -113.636 313.842C-109.112 306.442 -107.72 301.831 -100.411 295.671C-78.4082 277.19 -64.9898 294.121 -44.7654 294.663C-31.579 295.012 -24.7344 290.014 -14.0615 288.348C-14.7686 291.077 -16.0074 293.639 -17.7063 295.886C-19.4052 298.134 -21.5309 300.022 -23.9611 301.444C-30.1096 304.853 -36.6447 303.846 -44.108 303.691L-43.2573 315.082L-55.5156 313.028C-55.5156 323.179 -56.7144 328.526 -62.3216 333.872C-77.4802 348.44 -94.5722 332.516 -88.0757 320.235C-87.4176 319.128 -86.5089 318.192 -85.423 317.502C-84.3371 316.812 -83.1044 316.387 -81.8246 316.263C-80.5448 316.138 -79.2537 316.317 -78.0557 316.785C-76.8576 317.253 -75.7862 317.997 -74.9279 318.956C-73.9612 320.273 -74.9279 319.498 -73.9225 320.816L-72.0277 323.218C-58.0292 295.128 -95.2296 293.075 -103.273 314.113C-106.197 321.146 -106.434 329.012 -103.937 336.209C-101.441 343.405 -96.3861 349.429 -89.7385 353.128C-84.054 356.189 -80.2257 355.453 -75.1213 357.545C-77.5575 363.279 -82.0045 364.054 -89.9319 364.17C-86.0649 371.222 -76.9388 373.508 -68.006 370.951C-64.7578 376.336 -65.8792 378.002 -61.0454 383C-57.6853 386.719 -53.3406 389.406 -48.5164 390.749C-30.2642 396.56 -26.0106 387.456 -16.4591 384.937C-10.5426 391.253 -11.8574 394.507 -12.244 403.999C-8.27167 401.076 -5.51733 396.784 -4.51007 391.95C-2.84726 383.233 -5.78622 380.327 -8.60913 374.748C-6.05692 366.069 -2.26724 362.388 -5.43817 350.494C-6.1329 346.762 -7.84433 343.296 -10.3832 340.479C-12.922 337.662 -16.1892 335.603 -19.8234 334.531C-41.1305 328.913 -52.6927 355.492 -36.3741 363.628C-36.6061 355.879 -35.7554 348.75 -26.7066 350.455C-20.6354 351.617 -17.9286 358.707 -20.5581 365.643C-21.6841 368.567 -23.6051 371.116 -26.1033 373.002C-28.6016 374.888 -31.5771 376.035 -34.6928 376.313C-37.8085 376.592 -40.9396 375.99 -43.7314 374.577C-46.5233 373.163 -48.864 370.994 -50.4886 368.316C-61.5868 349.874 -48.0911 318.84 -11.084 320.544C-11.6254 309.735 -9.07315 300.398 -1.33917 296.949C6.39481 300.398 9.02438 309.774 8.40567 320.583C22.6362 319.925 33.2317 323.063 40.8497 330.502C49.8598 339.297 58.9085 365.371 41.507 374.089C38.7717 375.48 35.7382 376.179 32.6712 376.125C29.6042 376.071 26.5971 375.265 23.9123 373.779C15.2502 367.967 12.3113 347.665 29.8287 350.804C33.8891 354.678 34.0051 355.918 33.6957 363.628C49.3957 355.879 39.6122 329.766 17.9958 334.337C14.2809 335.237 10.8949 337.168 8.22693 339.91C5.55902 342.651 3.71762 346.091 2.91455 349.835C-0.643097 361.691 3.14655 365.991 5.85342 374.902C5.6214 377.421 -6.48224 392.802 9.4884 404.038C9.4884 394.313 7.74826 391.795 13.7808 385.092C19.2719 386.564 38.8389 402.295 57.9418 383.697C63.0849 378.661 61.8088 376.801 65.3277 371.106C73.0617 373.12 82.8451 371.997 87.6015 364.442C79.6355 363.977 75.1111 364.015 72.4816 357.7C82.149 353.826 89.9991 355.22 96.8823 344.76C107.246 329.262 103.766 296.756 77.5474 300.591C65.5984 302.335 61.7314 317.096 70.5095 323.179C72.2109 319.305 72.3269 317.135 76.774 316.438C97.0757 313.299 82.6518 356.538 59.7592 334.027C54.3068 328.642 52.7986 323.334 53.0307 313.338L40.8497 315.275L41.8164 304.311C31.3369 302.335 16.2943 307.1 11.4605 288.464C21.9788 290.208 29.4034 295.128 42.3965 294.818C56.7816 294.47 95.7222 268.395 113.588 319.77C115.134 307.216 115.096 297.957 108.677 288.774C113.356 285.442 118.576 286.915 121.747 279.669C120.249 277.414 118.28 275.512 115.977 274.094C113.674 272.676 111.091 271.776 108.406 271.456C112.511 265.182 114.603 257.8 114.4 250.301C114.4 249.333 114.4 247.047 114.4 246.156L113.008 241.894C92.9767 291.254 59.3725 265.14 42.5125 264.908C30.7181 264.637 21.7081 269.402 11.5766 271.533C14.9795 256.035 28.9006 255.416 41.7777 256.035L40.8497 244.722L53.1854 246.814C52.644 234.571 58.7152 218.764 73.7191 219.693C87.6789 220.623 93.7888 244.993 75.7299 243.172C71.8629 241.003 72.6363 240.538 70.6641 236.547C68.7392 238.122 67.3134 240.224 66.5607 242.596C65.8079 244.969 65.7607 247.51 66.4249 249.909C67.0892 252.308 68.4361 254.462 70.3012 256.107C72.1664 257.752 74.4693 258.818 76.9287 259.174C81.9289 260.317 87.1752 259.532 91.6245 256.977C96.0739 254.421 99.4004 250.282 100.943 245.381C102.617 241.345 103.412 236.998 103.274 232.63C103.137 228.262 102.069 223.974 100.143 220.052C98.2175 216.131 95.4779 212.667 92.1079 209.892C88.7379 207.118 84.8152 205.096 80.6023 203.963L72.8683 201.755C75.6139 195.827 79.8676 195.556 88.3363 195.633C83.5799 187.652 73.4871 187.187 65.7531 188.659C62.8142 183.468 62.8528 180.523 58.8311 176.3C55.1816 172.824 50.7721 170.25 45.9541 168.784C40.6967 167.005 35.0638 166.649 29.6249 167.751C24.186 168.853 19.134 171.375 14.9795 175.06C7.51624 169.83 10.2231 165.374 9.4884 155.688C-7.17831 172.077 6.24014 179.71 5.93079 185.521C2.41183 193.27 -0.101715 200.36 3.14655 210.434C4.07986 214.118 6.02295 217.467 8.75632 220.103C11.4897 222.739 14.9044 224.556 18.6145 225.35C40.7723 230.077 49.0864 202.724 33.5411 195.866C34.5465 202.491 34.7011 205.668 29.1714 208.961C12.7753 211.092 15.2889 191.565 24.3376 185.715C44.446 172.697 64.477 206.056 41.3911 229.07C34.2372 236.16 22.8682 239.647 8.83102 239.066C8.83102 250.883 7.12955 258.438 -1.14581 262.699C-9.34381 258.554 -11.0067 250.766 -11.084 238.988C-25.1212 239.685 -36.4127 236.237 -43.6053 229.07C-52.4994 220.197 -61.0454 194.2 -43.6053 185.366C-40.9397 184.019 -37.9866 183.343 -35.0016 183.397C-32.0167 183.451 -29.0899 184.234 -26.4746 185.676C-17.0391 192.146 -14.6029 211.48 -32.5457 208.923C-36.4127 204.235 -37.1088 203.034 -35.678 195.982C-51.494 203.731 -42.5612 229.999 -20.8288 225.544C-17.1194 224.735 -13.708 222.907 -10.9762 220.266C-8.24445 217.625 -6.30011 214.274 -5.36081 210.589C-1.14578 197.571 -6.36627 193.58 -8.06775 184.669C-0.333771 171.767 -2.96326 164.483 -11.7027 155.804C-12.3214 168.822 -9.6532 165.684 -16.2271 175.176L-16.7298 175.022ZM164.516 345.496L163.975 344.915L163.395 344.333L162.196 343.404C144.098 329.804 156.202 333.446 133.619 328.758C133.619 337.553 136.055 342.474 136.48 348.944H123.255L126.271 364.752L112.118 363.86L113.781 380.714L99.0865 380.404V395.359L82.3038 393.848L83.3865 408.222L67.6092 405.123V417.87C60.3393 416.862 55.3122 414.344 47.3075 415.274C51.5999 429.532 49.009 429.493 53.1467 433.329C61.6927 441.077 60.8807 442.937 64.0516 446.347C66.4126 438.153 71.1727 430.858 77.7162 425.404C84.2598 419.95 92.286 416.589 100.757 415.754C109.228 414.92 117.754 416.651 125.232 420.723C132.71 424.796 138.798 431.022 142.706 438.598C145.426 444.006 146.843 449.977 146.843 456.033C146.843 462.088 145.426 468.06 142.706 473.468C131.453 493.886 100.633 498.729 86.9828 478.233C85.252 475.868 84.0132 473.179 83.3398 470.325C82.6663 467.471 82.5721 464.511 83.0626 461.62C83.5531 458.729 84.6185 455.966 86.1953 453.495C87.7722 451.025 89.8284 448.897 92.2419 447.238C103.301 439.218 118.808 444.991 116.991 458.551C115.367 463.239 108.599 464.828 106.898 458.357C106.578 456.527 106.397 454.675 106.356 452.817C103.721 453.234 101.266 454.418 99.2967 456.221C97.3273 458.025 95.9304 460.368 95.2794 462.96C94.6284 465.553 94.7522 468.28 95.6353 470.802C96.5184 473.325 98.122 475.531 100.247 477.148C104.509 480.436 109.887 481.921 115.229 481.283C120.571 480.646 125.451 477.938 128.824 473.739C144.06 453.011 130.912 429.88 105.622 429.416C80.3316 428.951 66.9518 447.083 71.1282 472.925C71.8082 477.817 73.4671 482.521 76.0054 486.755C78.5437 490.99 81.9092 494.667 85.9001 497.566C96.2249 505.548 103.07 503.959 116.836 506.323C119.001 514.071 116.333 515.892 122.907 520.154C127.818 514.963 125.575 510.352 133.928 504.076C152.142 490.36 160.572 488.578 162.428 452.43C168.151 460.178 168.808 469.361 169.504 480.868C175.073 478.659 176.736 475.908 178.166 469.245C183.503 471.065 185.166 472.731 191.933 472.615L187.641 459.868C194.369 458.357 197.617 455.994 199.589 450.802C187.176 450.376 179.597 449.446 170.742 443.906C209.644 440.845 206.511 435.615 222.791 414.964C228.476 407.796 232.343 408.532 236.713 405.588C238.105 404.697 237.602 404.891 238.414 403.999C235.05 398.653 232.111 399.428 224.57 398.304C222.675 376.452 217.842 356.344 190.502 352.392C140.734 345.186 139.033 403.186 162.544 414.034C167.574 416.1 173.065 416.776 178.445 415.993C183.825 415.209 188.897 412.994 193.132 409.578C197.077 406.034 199.498 401.095 199.887 395.8C200.277 390.505 198.604 385.265 195.22 381.179C193.536 379.178 191.313 377.704 188.815 376.934C186.318 376.164 183.653 376.13 181.137 376.837C178.621 377.544 176.362 378.961 174.628 380.919C172.895 382.878 171.76 385.295 171.361 387.882C176.89 388.153 178.128 388.269 181.028 391.214C181.879 405.665 158.87 398.653 162.544 380.985C163.274 378.079 164.579 375.349 166.38 372.957C168.181 370.564 170.443 368.557 173.031 367.055C175.619 365.553 178.481 364.585 181.449 364.209C184.416 363.834 187.429 364.058 190.309 364.868C195.714 366.876 200.441 370.376 203.944 374.963C207.448 379.55 209.585 385.036 210.108 390.788C212.234 415.778 188.104 435.925 160.069 425.657C127.393 413.453 123.449 359.017 164.555 345.651L164.516 345.496ZM116.604 53.3649C91.7779 53.7136 74.6085 64.6395 71.1282 86.8786C63.3169 136.549 120.471 139.261 132.381 116.014C134.49 111.051 135.243 105.614 134.564 100.263C133.884 94.9117 131.796 89.8376 128.514 85.5613C123.023 78.6261 110.146 73.938 100.517 82.1905C90.8885 90.443 93.9048 105.127 106.472 106.483C106.472 100.672 106.666 99.6254 109.991 96.8746C122.637 96.8746 117.184 112.024 108.213 115.201C97.1143 119.075 87.9496 109.583 85.0107 102.996C75.7686 83.3141 97.153 65.0656 117.841 68.1264C122.589 68.8751 127.131 70.6009 131.18 73.1951C135.229 75.7893 138.698 79.1956 141.368 83.1995C144.038 87.2033 145.852 91.7178 146.694 96.4586C147.537 101.199 147.39 106.064 146.264 110.745C137.988 154.1 74.3378 153.712 64.477 113.341C63.7916 113.804 63.1901 114.38 62.6982 115.046C58.1738 120.625 58.8312 122.174 50.5172 129.032C50.5172 136.781 49.125 137.905 47.6169 144.53C54.3958 144.17 61.1271 143.185 67.7252 141.585V154.758L83.5025 151.543L82.2651 165.8L99.3959 164.251V179.09L113.858 178.857L112.466 196.021L126.89 194.703L123.255 210.279L136.403 210.55C135.32 217.834 133.116 222.483 133.735 230.852C138.659 228.902 143.907 227.903 149.203 227.907C156.743 218.337 161.77 217.446 164.4 213.727C124.802 204.273 124.338 141.624 165.367 132.364C188.569 127.056 206.589 141.469 209.605 160.337C213.008 181.569 194.33 202.452 174.609 193.347C168.151 190.364 158.677 180.368 162.66 170.101C167.262 157.897 184.431 159.059 180.409 168.435C178.398 172.309 176.968 171.69 171.399 171.922C172.443 183.313 186.016 186.993 194.214 179.671C211.539 163.747 187.834 134.921 163.279 145.615C155.003 149.218 148.932 158.594 148.004 170.76C146.032 196.408 163.859 211.325 189.999 207.76C212.699 204.661 224.184 186.993 224.222 162.042C232.652 160.221 234.16 161.616 238.491 155.611C233.542 151.271 228.94 152.821 222.791 145.46C209.489 129.536 211.19 117.99 170.974 116.169C171.642 115.364 172.49 114.727 173.449 114.309L183.155 110.745C188.37 109.576 193.705 109.03 199.048 109.118C196.921 103.267 193.518 101.873 187.447 100.09C189.489 96.1106 190.725 91.7652 191.082 87.3048C186.551 87.4519 182.137 88.7879 178.282 91.1792C176.62 84.244 174.879 81.8418 169.543 79.0135C168.344 91.5666 168.19 98.3856 162.466 107.917C160.533 87.8084 160.997 79.7497 149.087 67.7002C141.855 60.3776 141.159 61.7724 134.083 56.4257C130.151 53.4908 127.187 49.442 125.575 44.8024C125.575 44.57 124.725 42.7103 124.686 42.6328C123.294 39.9594 123.681 41.0055 122.83 40.1144C117.107 43.1752 118.151 46.7397 116.565 54.1785L116.604 53.3649ZM-139.352 348.866C-138.927 342.629 -136.684 337.437 -136.49 328.797C-163.559 335.771 -145.268 328.061 -159.228 339.18L-167.388 345.612C-125.934 359.792 -130.149 413.453 -163.521 425.89C-169.271 428.262 -175.523 429.15 -181.705 428.473C-187.887 427.796 -193.8 425.576 -198.904 422.015C-203.785 418.362 -207.631 413.495 -210.059 407.895C-212.487 402.296 -213.413 396.159 -212.747 390.09C-209.383 359.87 -170.713 355.879 -165.261 381.257C-161.664 398.072 -183.281 406.13 -183.9 392.182C-181.154 388.308 -180.458 388.54 -174.077 388.308C-174.49 385.656 -175.672 383.185 -177.476 381.202C-179.281 379.218 -181.628 377.81 -184.225 377.154C-186.822 376.497 -189.554 376.62 -192.082 377.508C-194.609 378.396 -196.82 380.01 -198.44 382.148C-201.751 386.321 -203.281 391.637 -202.694 396.936C-202.107 402.235 -199.452 407.087 -195.307 410.431C-174.774 425.192 -152.036 414.305 -150.837 388.269C-149.638 362.233 -167.968 348.75 -194.263 352.973C-221.641 357.351 -225.199 378.622 -227.326 398.769C-235.331 399.97 -237.496 399.079 -241.092 404.426C-237.999 408.3 -230.729 408.3 -225.083 416.049C-209.924 436.506 -208.919 442.24 -173.42 444.41C-182.314 449.989 -189.893 450.88 -202.307 451.306C-201.371 453.789 -199.752 455.956 -197.637 457.554C-195.522 459.152 -192.998 460.116 -190.358 460.333C-192.366 464.384 -193.673 468.746 -194.225 473.235C-189.669 473.087 -185.231 471.752 -181.347 469.361C-179.375 476.296 -178.099 479.047 -172.299 481.41C-171.68 470.562 -170.868 460.062 -165.222 452.972C-164.294 471.724 -162.09 483.231 -151.804 493.343C-146.896 497.539 -141.73 501.421 -136.336 504.967C-129.066 510.546 -130.419 515.699 -125.895 520.464C-119.321 515.931 -122.028 514.73 -119.824 506.671C-105.709 504.037 -99.2126 506.013 -88.4624 497.45C-63.4817 477.574 -68.0833 428.137 -109.769 429.803C-135.021 430.81 -146.893 454.793 -131.463 474.63C-128.1 478.504 -123.419 480.987 -118.331 481.595C-113.242 482.204 -108.109 480.895 -103.93 477.923C-101.722 476.434 -100 474.325 -98.9818 471.86C-97.9635 469.395 -97.6933 466.684 -98.2051 464.066C-98.717 461.449 -99.9881 459.04 -101.859 457.143C-103.731 455.245 -106.119 453.942 -108.725 453.398C-108.725 453.669 -108.996 454.018 -109.073 454.251C-109.151 454.483 -109.305 454.793 -109.344 455.064L-110.04 458.667C-111.2 462.736 -110.04 460.488 -112.631 462.232C-124.928 467.191 -122.608 440.535 -103.041 444.177C-97.2488 445.576 -92.243 449.211 -89.1139 454.291C-85.9849 459.371 -84.9863 465.484 -86.3355 471.298C-88.119 476.697 -91.3815 481.486 -95.7507 485.116C-100.12 488.747 -105.42 491.074 -111.046 491.832C-153.002 497.566 -165.686 435.15 -124.851 419.575C-101.649 410.663 -76.7841 419.575 -67.1166 446.695C-65.0671 444.603 -64.139 442.279 -62.0895 439.954C-46.9309 422.48 -58.2225 440.535 -50.4886 415.584C-58.6866 414.732 -63.3656 417.211 -70.7902 418.218V405.084L-86.6063 408.455L-85.4848 394.003L-102.422 395.708V380.753H-117.233L-115.531 363.86L-129.955 364.868L-126.63 349.138L-139.7 348.905L-139.352 348.866ZM-165.377 107.181C-171.293 97.2233 -171.139 91.1404 -172.492 78.3161C-174.876 79.3917 -176.933 81.0803 -178.454 83.2102C-179.975 85.3401 -180.907 87.8356 -181.154 90.443C-185.04 88.0586 -189.477 86.7238 -194.031 86.5686C-193.564 91.0379 -192.252 95.3771 -190.164 99.3542C-196.235 101.175 -199.832 102.57 -201.765 108.382C-192.948 108.653 -180.071 109.699 -173.652 115.472C-209.035 116.712 -211.123 125.39 -224.619 143.6C-230.226 151.116 -234.867 149.799 -241.015 154.875C-237.341 160.957 -234.325 159.718 -226.939 161.267C-226.939 186.219 -215.338 204.118 -192.871 207.024C-166.692 210.395 -148.749 196.137 -150.721 170.024C-151.649 158.129 -157.372 148.985 -165.338 145.188C-170.381 143.072 -175.915 142.412 -181.314 143.281C-186.712 144.151 -191.76 146.516 -195.887 150.109C-203.235 156.618 -205.787 170.178 -197.473 178.431C-189.739 185.986 -175.508 183.119 -174.039 171.38C-179.685 171.147 -181.154 171.651 -183.126 167.854C-187.921 156.734 -163.018 157.935 -164.719 176.145C-167.117 201.329 -207.256 202.607 -212.322 171.031C-219.089 128.993 -157.797 114.271 -140.551 155.804C-138.285 161.004 -137.073 166.603 -136.986 172.275C-136.899 177.948 -137.938 183.582 -140.043 188.848C-142.148 194.115 -145.277 198.91 -149.247 202.955C-153.218 207 -157.951 210.214 -163.173 212.41L-167.04 214.734C-161.079 217.932 -155.881 222.387 -151.804 227.791C-146.508 227.744 -141.254 228.731 -136.336 230.697C-135.91 221.979 -137.883 218.027 -139.004 210.317H-125.895L-129.336 194.626L-114.835 195.788L-116.498 178.586H-101.726L-101.958 163.902L-84.8661 165.49L-86.1035 151.271L-70.3649 154.332V141.159C-63.7415 142.616 -57.0209 143.587 -50.2565 144.065C-51.9967 137.285 -53.1955 136.316 -53.1181 128.567L-67.1166 112.837C-76.2427 150.884 -133.667 154.758 -147.434 116.944C-149.665 111.058 -150.412 104.711 -149.609 98.4667C-148.806 92.2221 -146.479 86.2723 -142.832 81.1444C-126.049 59.3702 -92.9094 65.6468 -86.2969 88.0409C-84.9078 93.8327 -85.8381 99.9392 -88.8883 105.052C-91.9386 110.165 -96.8663 113.877 -102.616 115.394C-119.437 118.881 -127.21 96.4484 -113.018 96.7583C-109.692 99.5479 -109.615 100.4 -109.46 106.328C-106.939 106.071 -104.545 105.093 -102.563 103.511C-100.581 101.929 -99.0936 99.8105 -98.2788 97.4064C-97.4641 95.0023 -97.3558 92.4143 -97.9669 89.9503C-98.5781 87.4863 -99.8829 85.2501 -101.726 83.5078C-103.572 81.6366 -105.774 80.156 -108.202 79.1537C-110.63 78.1515 -113.234 77.6481 -115.859 77.6734C-118.485 77.6987 -121.079 78.2522 -123.487 79.301C-125.895 80.3498 -128.068 81.8726 -129.878 83.7791C-143.026 97.6107 -141.479 126.824 -111.432 129.613C-84.6341 132.132 -70.4036 114.116 -73.8065 86.9948C-74.3692 82.0311 -75.9515 77.238 -78.4539 72.9171C-80.9562 68.5962 -84.3245 64.8412 -88.3464 61.8886C-99.9473 53.4811 -105.052 55.4958 -119.785 52.9C-120.404 45.1511 -120.326 41.8191 -125.547 39.1845C-127.635 41.393 -126.784 40.2306 -127.983 43.059C-129.407 47.8272 -132.288 52.028 -136.22 55.0696C-155.787 70.5673 -161.316 65.4143 -165.183 107.026L-165.377 107.181ZM-1.45517 459.752C-12.7081 452.003 -13.2495 434.414 -5.86353 422.48C-16.5364 421.124 -20.21 426.355 -24.6957 430.035C-28.5627 426.936 -31.579 421.744 -38.9649 421.589V438.482C-46.6989 442.124 -51.8807 442.898 -53.6595 452.236C-2.65393 449.562 -0.0630798 491.91 -22.1822 505.664C-35.8327 514.149 -56.1344 504.502 -55.4384 489.081C-54.6649 472.77 -33.5898 473.971 -36.1034 486.718C-36.8768 490.592 -39.5837 490.786 -42.1359 494.467C-7.83572 499.271 -21.3702 453.941 -53.7369 467.85C-58.8719 470.136 -63.0944 474.08 -65.73 479.052C-68.3655 484.024 -69.2622 489.738 -68.2767 495.281C-66.9619 505.896 -57.0238 513.335 -50.9526 518.178C-65.5312 516.551 -103.93 505.587 -112.322 527.632C-98.5552 525.617 -96.8538 523.525 -81.9659 527.632C-57.4879 534.18 -37.8049 536.698 -17.3485 517.713C-14.9259 514.894 -12.3436 512.216 -9.6145 509.693C-9.6145 521.665 -12.3601 528.252 -18.9726 533.405C-25.5852 538.558 -34.7886 539.371 -41.2852 543.517C-27.132 547.391 -18.4313 544.563 -6.48227 540.882C-3.73672 543.827 -5.6315 544.059 -1.45517 546.268C1.13571 544.912 -0.604431 546.268 1.52243 543.866L3.61057 540.882C23.2162 546.655 18.3438 546.694 38.4135 543.323C19.5812 534.8 6.85886 535.807 6.70416 509.655C10.9965 512.522 12.814 518.217 25.0337 525.423C43.6339 536.427 59.8366 532.785 79.9449 527.399C93.9434 523.525 96.7276 525.85 109.489 527.748C101.329 505.974 63.0849 516.512 48.1583 518.333C76.4646 498.186 65.9464 473.816 50.2078 467.695C17.1451 454.793 6.27881 500.162 39.2256 494.583L37.6014 492.607L37.0213 492.104C28.8233 484.355 35.0879 478.737 38.2975 477.691C46.5341 475.017 52.296 482.418 52.528 489.314C53.108 504.502 33.193 514.498 19.2719 505.78C16.0718 503.89 13.2943 501.36 11.1123 498.347C8.93036 495.335 7.39066 491.905 6.58899 488.27C5.78735 484.636 5.74088 480.875 6.45258 477.222C7.16428 473.569 8.61887 470.102 10.7258 467.036C20.2386 453.282 30.8729 453.011 50.9425 452.003C49.009 442.666 43.5566 442.085 36.0159 438.482C35.5132 432.128 36.828 428.679 35.4359 421.589C28.7846 421.589 25.2271 426.975 21.6307 430.035C17.7638 427.013 18.6145 426.161 13.8968 424.069C10.4959 422.434 6.68137 421.867 2.95319 422.442C10.9965 436.312 9.48843 452.197 -1.4938 459.752H-1.45517ZM-230.613 271.494C-247.28 271.146 -254.279 265.915 -259.422 252.51C-260.157 250.611 -260.814 248.868 -261.587 246.582L-264.217 240.964C-269.631 251.115 -263.908 265.954 -261.703 275.834C-265.841 277.112 -266.228 276.996 -267.349 281.103C-265.493 282.653 -263.908 283.273 -261.935 284.745C-263.908 293.966 -269.669 309.541 -264.217 319.615C-255.942 305.86 -260.621 289.317 -231.309 288.193C-232.856 291.293 -230.845 288.581 -233.32 291.331C-241.866 300.862 -254.085 308.805 -253.544 334.299C-252.756 343.941 -250.955 353.473 -248.169 362.737C-244.843 376.607 -246.313 378.234 -248.788 390.826C-226.707 385.48 -238.308 340.459 -238.888 330.424C-233.242 336.585 -226.746 345.922 -215.686 347.239C-210.279 348.001 -204.771 346.981 -199.993 344.332C-195.215 341.684 -191.426 337.55 -189.197 332.555C-174.967 298.538 -222.105 287.612 -215.532 320.932C-210.659 318.142 -214.487 313.493 -202.461 315.12C-197.357 320.699 -196.351 325.969 -202.461 331.238C-217.233 343.675 -243.683 315.469 -221.796 294.78C-216.934 290.196 -210.537 287.6 -203.862 287.499C-197.186 287.399 -190.715 289.802 -185.717 294.237C-175.895 302.374 -172.879 315.237 -173.536 332.594C-165.493 330.967 -162.206 325.504 -159.924 317.445C-154.247 318 -148.525 317.896 -142.871 317.135C-143.644 309.89 -147.821 307.1 -151.649 303.265C-148.83 301.117 -146.612 298.277 -145.21 295.019C-143.807 291.761 -143.268 288.195 -143.644 284.667C-150.798 287.573 -154.665 290.983 -164.719 289.317C-167.934 288.877 -171.031 287.805 -173.832 286.163C-176.632 284.521 -179.081 282.34 -181.038 279.747C-176.978 274.883 -171.311 271.639 -165.067 270.603C-154.24 268.627 -151.185 272.579 -143.528 275.059C-143.876 265.218 -144.766 264.443 -149.522 258.98C-150.31 258.265 -150.942 257.394 -151.378 256.423L-150.296 255.261C-147.357 252.51 -142.562 248.635 -143.296 242.708L-159.035 242.088C-164.178 235.617 -162.902 229.263 -173.149 227.171C-174.116 237.71 -171.912 256.81 -187.612 267.155C-193.56 271.327 -200.919 272.96 -208.07 271.696C-215.22 270.432 -221.576 266.373 -225.74 260.414C-235.215 247.318 -227.21 226.977 -212.631 225.544C-195.926 223.955 -193.296 245.226 -206.483 244.916C-210.93 244.916 -212.399 242.049 -214.604 239.027C-214.604 239.027 -214.99 239.259 -215.029 239.608C-215.717 240.689 -216.177 241.9 -216.384 243.165C-216.59 244.431 -216.537 245.725 -216.228 246.969C-213.907 268.201 -177.558 259.484 -188.54 228.14C-190.458 223.14 -193.938 218.896 -198.461 216.04C-202.984 213.184 -208.307 211.87 -213.637 212.293C-227.635 212.642 -232.16 223.374 -238.85 228.915C-238.037 216.788 -234.557 208.031 -234.983 194.432C-235.369 182.809 -239.236 171.844 -248.478 168.784C-246.545 183.158 -244.611 182.887 -248.478 198.113C-253.273 217.95 -257.914 233.796 -246.235 253.401C-239.584 264.52 -233.513 267.271 -230.768 271.456L-230.613 271.494ZM-130.767 292.726C-123.459 360.102 -64.6031 417.017 11.1125 409.462C28.3035 408.02 45.0364 403.166 60.3366 395.182C75.6369 387.198 89.1987 376.243 100.232 362.956C111.266 349.67 119.551 334.316 124.605 317.79C129.659 301.264 131.38 283.896 129.669 266.697C127.958 249.498 122.849 232.812 114.639 217.611C106.429 202.409 95.2823 188.996 81.8482 178.153C68.4141 167.31 52.9609 159.253 36.3887 154.452C19.8166 149.65 2.45657 148.2 -14.6803 150.187C-80.8831 157.083 -139.081 216.71 -130.69 292.726H-130.767ZM-16.7685 144.336C-133.59 159.059 -180.729 301.986 -89.8159 383.349C-75.7924 395.375 -59.4697 404.412 -41.8443 409.908C-24.2188 415.404 -5.66043 417.243 12.698 415.313C82.3038 408.377 143.209 344.178 133.735 264.482C131.341 243.422 124.093 223.208 112.563 205.436C101.033 187.665 85.5378 172.822 67.2999 162.081C41.8918 147.312 12.4272 141.092 -16.7685 144.336ZM-41.0144 64.562C-44.8814 65.1044 -41.9039 64.562 -42.9866 65.918L-40.9758 67.3128C-39.373 67.8664 -37.9961 68.9325 -37.0571 70.3468C-36.118 71.7612 -35.669 73.4455 -35.7788 75.1406C-35.8887 76.8357 -36.5514 78.4477 -37.6651 79.7285C-38.7788 81.0093 -40.2817 81.888 -41.9425 82.2293C-50.6432 84.0502 -56.2117 76.3402 -55.477 67.894C-54.2396 54.0236 -34.2859 45.0349 -21.3315 54.4885C-18.3116 56.5035 -15.7224 59.1006 -13.7145 62.1285C-11.7066 65.1563 -10.3203 68.5543 -9.63638 72.1244C-8.95255 75.6945 -8.98483 79.3652 -9.73129 82.9227C-10.4777 86.4802 -11.9235 89.8532 -13.9842 92.8452C-22.2982 105.321 -34.0539 106.987 -53.9302 107.413C-52.3448 117.796 -45.2295 116.905 -38.8103 121.632L-39.1583 137.75C-36.0741 137.97 -33.0247 136.984 -30.6509 134.999C-29.6689 134.322 -28.7841 133.514 -28.0214 132.597L-24.8117 129.536C-19.2046 133.991 -17.0778 137.052 -6.36627 137.285C-8.99582 130.504 -12.5921 125.661 -10.8906 116.208C-9.87643 109.748 -6.56674 103.873 -1.57117 99.6642C14.5542 113.147 6.16281 128.722 3.3399 137.246C14.0515 137.246 16.1396 133.836 21.6694 129.497C21.9014 129.497 22.2108 129.497 22.3268 129.962L24.415 132.016C25.7593 133.714 27.4536 135.103 29.3823 136.085C31.311 137.068 33.4286 137.623 35.5906 137.711L36.0159 121.593C42.2031 116.905 49.3957 117.719 50.9038 107.374C32.3036 107.026 19.5812 105.282 11.4219 93.3876C7.14767 87.4131 5.40363 79.988 6.56982 72.7307C7.73602 65.4733 11.7179 58.972 17.6478 54.6435C30.0995 45.0737 50.3625 53.1712 52.4506 66.6929C53.7267 75.3716 48.5837 83.1591 39.9603 82.1905C38.1719 82.0801 36.4773 81.3508 35.1659 80.1275C33.8546 78.9041 33.0079 77.2625 32.7705 75.4831C32.5331 73.7037 32.9196 71.8969 33.8642 70.3714C34.8088 68.8459 36.2528 67.6963 37.9495 67.1191L40.231 65.9955C39.1482 64.4457 39.9216 65.1431 38.0654 64.407C17.377 63.4771 17.4544 77.58 21.5534 85.1351C29.7127 100.284 67.7639 96.7583 65.7531 65.763C64.941 52.7837 54.8869 48.0569 49.0864 41.6254C61.3061 42.4003 70.8575 46.1197 84.4693 45.4998C95.6062 44.9962 107.671 40.2306 109.334 31.7457C96.6889 34.1866 94.9101 35.6201 81.2983 32.4043C53.6494 26.1278 30.4475 20.4711 7.01355 50.1491C5.3894 30.7771 16.4103 24.1906 31.6076 18.9214L37.1374 16.2093C27.0832 11.405 13.2394 15.8606 3.61057 18.6114L1.32907 15.4731C-0.411072 13.1872 1.01971 14.427 -1.45517 13.1097C-5.32214 15.2407 -3.07932 14.892 -6.48227 18.6114C-15.7244 15.7831 -30.1095 11.3275 -40.0477 16.2093C-33.7445 22.0209 -7.91302 20.6261 -9.88519 50.1491C-32.7391 22.4083 -52.6541 24.7717 -81.8498 31.8619C-97.3177 35.7363 -97.3178 34.0703 -112.128 31.8619C-105.013 53.5586 -64.2164 42.4778 -51.958 41.4317C-57.7972 48.1344 -67.8127 52.2801 -68.6634 65.6081C-70.7129 96.6034 -32.6231 100.245 -24.4637 84.9801C-20.0554 76.8051 -20.5967 63.6709 -41.0144 64.2133V64.562ZM259.914 318.065L260.92 320.428L262.505 317.755C262.003 301.056 264.323 300.475 258.832 284.629C262.505 281.917 262.699 284.125 264.4 279.592C262.467 276.686 262.621 276.88 258.832 275.718C260.92 267.155 266.566 249.604 261.307 240.383C253.998 250.379 258.252 270.952 227.78 271.378C230.641 267.116 236.094 265.257 243.248 253.285C248.215 245.397 250.855 236.264 250.866 226.939C250.312 217.174 248.599 207.51 245.761 198.152C242.204 183.235 243.75 183.274 245.761 168.822C236.326 171.922 232.652 182.809 232.304 194.51C231.918 208.07 235.282 216.749 236.171 228.953C229.559 223.568 225.382 213.223 212.003 212.41C206.651 211.715 201.22 212.817 196.56 215.544C191.9 218.271 188.273 222.469 186.248 227.481C181.531 239.104 184.586 253.091 193.789 257.237C201.948 261.111 214.98 258.748 213.124 240.15L212.273 238.019L210.688 240.422C209.964 242.007 208.743 243.312 207.21 244.136C205.677 244.961 203.917 245.26 202.198 244.987C200.479 244.715 198.897 243.886 197.693 242.628C196.489 241.37 195.729 239.751 195.529 238.019C194.756 229.418 202.064 224.42 210.997 225.66C224.648 227.636 232.42 247.667 223.139 260.53C210.34 278.081 183.193 276.26 173.603 252.316C169.736 242.591 171.477 237.477 170.51 227.287C160.34 229.418 161.5 235.734 156.357 242.475L140.579 242.243C140.497 244.322 140.882 246.394 141.705 248.305C142.528 250.216 143.769 251.918 145.336 253.285L148.623 256.384C144.176 263.513 141.353 262.351 140.889 275.02C148.429 272.54 151.794 268.511 162.428 270.526C168.63 271.671 174.254 274.912 178.36 279.708C174.301 284.862 168.414 288.248 161.925 289.162C151.562 290.944 147.927 287.302 140.773 284.512C140.373 288.016 140.874 291.563 142.228 294.818C143.581 298.073 145.743 300.927 148.507 303.11C144.64 306.984 140.386 309.541 139.729 316.98C145.11 317.729 150.557 317.872 155.97 317.406C160.185 322.792 159.412 330.308 170.432 332.4C169.156 281.413 205.467 281.8 219.156 295.283C221.638 297.475 223.615 300.18 224.953 303.212C226.29 306.243 226.956 309.529 226.905 312.843C226.854 316.157 226.086 319.421 224.655 322.409C223.224 325.397 221.163 328.039 218.615 330.153C207.014 340.227 186.906 328.991 199.28 315.043C208.174 313.919 207.826 315.353 211.693 320.777C218.731 311.633 207.826 297.53 195.336 301.637C176.774 307.798 179.481 348.13 210.804 347.239C223.681 346.929 230.641 336.352 235.978 330.386C235.63 339.18 223.719 385.945 245.916 390.749C243.402 378.157 242.049 376.181 245.259 362.892C251.639 337.553 255.97 313.997 233.155 293.579C230.255 291.021 230.216 291.564 228.515 288.193C239.535 288.426 246.457 290.44 251.136 296.833C255.46 303.232 258.446 310.441 259.914 318.026V318.065ZM-1.84189 565.446C36.4773 565.848 74.5266 558.986 110.301 545.222C144.977 531.422 176.535 510.79 203.108 484.548C230.077 458.667 251.338 427.414 265.522 392.802C279.709 356.8 286.762 318.374 286.287 279.669C286.746 241.119 279.652 202.854 265.406 167.04C251.122 132.392 229.771 101.116 202.722 75.2166C176.144 48.8946 144.592 28.1491 109.914 14.1946C37.6772 -12.8239 -41.8636 -12.8239 -114.101 14.1946C-148.702 28.0146 -180.163 48.6907 -206.599 74.9841C-233.466 100.871 -254.622 132.112 -268.703 166.692C-282.845 202.705 -289.872 241.127 -289.391 279.824C-289.884 318.663 -282.899 357.233 -268.819 393.422C-254.845 427.99 -233.763 459.224 -206.947 485.091C-152.087 538.661 -83.7189 565.446 -1.84189 565.446ZM-202.616 480.403C-148.942 532.862 -82.0174 559.105 -1.84189 559.131C35.7494 559.558 73.0807 552.84 108.174 539.333C142.069 525.883 172.939 505.781 198.971 480.209C225.302 454.932 246.05 424.403 259.876 390.594C273.796 355.365 280.706 317.749 280.216 279.863C280.679 242.123 273.742 204.659 259.799 169.597C245.844 135.77 224.994 105.234 198.584 79.9434C172.573 54.2016 141.708 33.9056 107.787 20.2387C37.0451 -6.21123 -40.8448 -6.21123 -111.587 20.2387C-145.43 33.7237 -176.217 53.8969 -202.113 79.5559C-228.331 104.858 -248.983 135.368 -262.748 169.132C-276.566 204.4 -283.434 242.017 -282.972 279.902C-283.492 317.913 -276.691 355.667 -262.941 391.098C-249.342 424.84 -228.786 455.325 -202.616 480.558V480.403Z" fill="white"/>
</g>
<defs>
<clipPath id="clip0_70_229">
<rect x="-284" width="567" height="563" rx="281.5" fill="white"/>
</clipPath>
</defs>
</svg>
