<svg width="320" height="295" viewBox="0 0 320 295" fill="none" xmlns="http://www.w3.org/2000/svg">
<g clip-path="url(#clip0_114_1125)">
<g clip-path="url(#clip1_114_1125)">
<path fill-rule="evenodd" clip-rule="evenodd" d="M354.29 1019.9C191.171 1019.9 54.9702 966.443 -54.3114 859.539C-163.593 752.634 -218.234 616.417 -218.234 450.89C-218.234 286.368 -163.332 150.414 -53.5285 43.0258C56.2751 -64.3619 192.215 -118.076 354.29 -118.116C515.282 -118.116 651.202 -64.1406 762.049 43.8104C872.896 151.761 928.42 287.455 928.621 450.89C928.621 615.412 873.458 751.386 763.133 858.814C652.807 966.242 516.627 1019.94 354.591 1019.9H354.29ZM331.226 287.636C313.641 279.367 307.498 270.858 283.049 277.496C261.128 283.532 260.767 292.524 251.252 308.578C244.662 306.525 237.607 306.525 231.017 308.578C225.004 310.466 219.778 314.283 216.143 319.442C229.03 319.442 236.196 319.442 240.231 328.917L235.654 330.848C233.607 331.331 231.077 331.572 229.09 332.055C181.997 342.798 179.95 423.067 230.776 418.722C254.504 416.73 251.914 398.262 245.531 383.415C242.158 386.192 245.109 382.933 242.52 386.373C241.135 388.244 242.218 387.278 240.713 389.39C240.04 390.634 239.063 391.686 237.872 392.446C236.681 393.207 235.317 393.65 233.908 393.736C210.903 397.055 216.384 366.396 230.897 359.093C242.52 353.058 255.527 360.723 261.007 366.517C269.679 375.811 269.258 383.476 271.004 399.107L289.793 395.486L288.348 413.592C308.281 412.868 330.503 413.592 335.441 437.733C319.844 434.474 306.595 426.809 287.264 427.413C253.359 428.499 235.233 456.261 197.474 423.671C192.656 419.506 176.818 397.538 176.637 388.364C173.265 409.548 175.011 424.576 184.526 437.552C180.354 438.122 176.349 439.574 172.778 441.81C169.207 444.047 166.15 447.019 163.81 450.528C168.929 461.934 175.855 458.675 184.406 464.711C180.236 471.024 177.382 478.117 176.016 485.564C174.65 493.01 174.8 500.657 176.457 508.044C179.588 505.509 177.179 509.01 180.311 503.88C187.357 492.352 189.525 485.17 200.907 475.574C235.173 446.786 256.069 473.16 287.565 474.005C308.101 474.548 318.76 466.763 335.381 464.167C334.28 468.418 332.351 472.409 329.705 475.91C327.059 479.411 323.749 482.353 319.964 484.567C310.389 489.878 300.212 488.309 288.589 488.067L289.914 505.811L270.824 502.612C270.824 518.425 268.957 526.753 260.225 535.082C236.618 557.775 210 532.97 220.117 513.838C221.142 512.114 222.557 510.655 224.248 509.581C225.939 508.506 227.859 507.845 229.852 507.651C231.845 507.457 233.856 507.736 235.722 508.465C237.587 509.193 239.256 510.352 240.592 511.846C242.098 513.898 240.592 512.691 242.158 514.743L245.109 518.485C266.909 474.729 208.976 471.53 196.45 504.302C191.896 515.258 191.528 527.51 195.416 538.721C199.304 549.931 207.175 559.314 217.528 565.077C226.38 569.845 232.342 568.698 240.291 571.958C236.497 580.89 229.572 582.097 217.227 582.278C223.249 593.262 237.461 596.823 251.372 592.84C256.431 601.229 254.684 603.824 262.212 611.609C267.445 617.403 274.211 621.588 281.724 623.68C310.148 632.733 316.772 618.55 331.647 614.627C340.861 624.464 338.813 629.534 338.211 644.321C344.398 639.766 348.687 633.081 350.256 625.551C352.845 611.971 348.268 607.445 343.872 598.754C347.847 585.235 353.748 579.502 348.81 560.973C347.728 555.161 345.063 549.762 341.109 545.373C337.155 540.985 332.067 537.778 326.408 536.108C293.226 527.357 275.22 568.759 300.633 581.433C300.272 569.362 301.597 558.257 315.688 560.913C325.143 562.724 329.359 573.768 325.264 584.571C323.51 589.126 320.519 593.097 316.628 596.035C312.737 598.973 308.103 600.76 303.251 601.193C298.399 601.627 293.523 600.69 289.175 598.488C284.828 596.286 281.182 592.908 278.652 588.736C261.369 560.008 282.386 511.665 340.018 514.321C339.175 497.482 343.149 482.937 355.194 477.566C367.238 482.937 371.333 497.543 370.369 514.381C392.531 513.355 409.032 518.244 420.895 529.831C434.927 543.531 449.019 584.149 421.919 597.728C417.659 599.895 412.935 600.984 408.159 600.899C403.382 600.815 398.699 599.561 394.518 597.245C381.029 588.192 376.452 556.568 403.732 561.456C410.055 567.491 410.236 569.423 409.754 581.433C434.204 569.362 418.968 528.685 385.304 535.806C379.519 537.207 374.246 540.215 370.091 544.486C365.936 548.757 363.069 554.116 361.818 559.947C356.278 578.415 362.179 585.114 366.395 598.996C366.033 602.918 347.184 626.878 372.056 644.381C372.056 629.232 369.346 625.309 378.74 614.868C387.292 617.162 417.764 641.665 447.513 612.696C455.522 604.85 453.535 601.953 459.015 593.081C471.06 596.219 486.295 594.469 493.703 582.7C481.297 581.976 474.251 582.036 470.156 572.199C485.211 566.164 497.436 568.336 508.156 552.041C524.295 527.9 518.875 477.264 478.045 483.239C459.437 485.955 453.415 508.949 467.085 518.425C469.735 512.389 469.915 509.01 476.841 507.923C508.457 503.035 485.994 570.388 450.343 535.323C441.852 526.934 439.503 518.666 439.865 503.095L420.895 506.113L422.401 489.033C406.081 485.955 382.655 493.378 375.127 464.349C391.507 467.064 403.07 474.729 423.304 474.246C445.706 473.703 506.349 433.086 534.171 513.114C536.58 493.559 536.52 479.135 526.523 464.831C533.81 459.641 541.94 461.934 546.878 450.648C544.545 447.136 541.48 444.173 537.892 441.964C534.305 439.755 530.283 438.352 526.102 437.854C532.495 428.081 535.752 416.582 535.436 404.901C535.436 403.392 535.436 399.831 535.436 398.443L533.268 391.804C502.074 468.694 449.741 428.016 423.485 427.654C405.117 427.232 391.086 434.655 375.308 437.974C380.607 413.833 402.287 412.868 422.34 413.833L420.895 396.21L440.106 399.469C439.263 380.398 448.717 355.774 472.083 357.222C493.823 358.671 503.338 396.633 475.215 393.796C469.193 390.416 470.397 389.692 467.326 383.476C464.328 385.929 462.108 389.203 460.935 392.899C459.763 396.595 459.69 400.553 460.724 404.29C461.758 408.027 463.856 411.382 466.761 413.945C469.665 416.507 473.252 418.167 477.082 418.722C484.869 420.502 493.039 419.28 499.968 415.3C506.897 411.319 512.077 404.87 514.479 397.236C517.087 390.95 518.325 384.178 518.11 377.374C517.896 370.57 516.233 363.89 513.234 357.781C510.235 351.673 505.969 346.277 500.721 341.955C495.472 337.633 489.363 334.484 482.803 332.719L470.758 329.279C475.034 320.045 481.658 319.623 494.847 319.743C487.44 307.311 471.722 306.586 459.678 308.88C455.101 300.793 455.161 296.206 448.898 289.627C443.215 284.212 436.348 280.203 428.844 277.919C420.657 275.148 411.885 274.594 403.415 276.31C394.944 278.027 387.077 281.955 380.607 287.696C368.984 279.548 373.2 272.608 372.056 257.52C346.1 283.049 366.997 294.938 366.515 303.991C361.035 316.062 357.121 327.106 362.179 342.798C363.633 348.537 366.659 353.754 370.916 357.86C375.172 361.966 380.49 364.798 386.268 366.034C420.775 373.397 433.722 330.788 409.513 320.105C411.079 330.426 411.32 335.375 402.708 340.505C377.174 343.824 381.089 313.406 395.181 304.293C426.496 284.014 457.69 335.978 421.738 371.828C410.597 382.872 392.892 388.304 371.032 387.399C371.032 405.806 368.382 417.575 355.495 424.214C342.728 417.756 340.138 405.625 340.018 387.278C318.158 388.364 300.573 382.993 289.372 371.828C275.521 358.007 262.212 317.51 289.372 303.75C293.523 301.651 298.122 300.599 302.77 300.683C307.419 300.767 311.977 301.985 316.05 304.233C330.744 314.312 334.538 344.428 306.595 340.444C300.573 333.142 299.489 331.271 301.717 320.286C277.087 332.357 290.998 373.276 324.842 366.336C330.619 365.075 335.931 362.228 340.186 358.114C344.44 354 347.468 348.78 348.931 343.039C355.495 322.761 347.365 316.545 344.715 302.663C356.759 282.566 352.664 271.22 339.054 257.701C338.091 277.979 342.246 273.091 332.008 287.877L331.226 287.636ZM613.483 553.188L612.64 552.282L611.737 551.377L609.87 549.929C581.686 528.745 600.535 534.418 565.366 527.115C565.366 540.816 569.16 548.48 569.823 558.559H549.227L553.924 583.183L531.883 581.795L534.473 608.049L511.588 607.566V630.862L485.452 628.508L487.139 650.899L462.568 646.071V665.927C451.247 664.358 443.418 660.435 430.952 661.883C437.637 684.093 433.602 684.033 440.045 690.008C453.354 702.078 452.09 704.975 457.028 710.286C460.705 697.523 468.118 686.159 478.308 677.663C488.499 669.168 500.998 663.932 514.19 662.632C527.381 661.332 540.659 664.028 552.305 670.372C563.952 676.715 573.431 686.415 579.518 698.215C583.754 706.639 585.96 715.941 585.96 725.374C585.96 734.807 583.754 744.109 579.518 752.533C561.994 784.339 513.997 791.883 492.739 759.956C490.044 756.273 488.114 752.083 487.066 747.638C486.017 743.192 485.87 738.581 486.634 734.077C487.398 729.574 489.057 725.27 491.513 721.422C493.968 717.573 497.171 714.258 500.929 711.674C518.153 699.181 542.301 708.174 539.471 729.297C536.942 736.6 526.403 739.074 523.753 728.995C523.255 726.144 522.973 723.259 522.91 720.365C518.806 721.014 514.983 722.858 511.916 725.668C508.849 728.477 506.673 732.128 505.66 736.166C504.646 740.204 504.839 744.452 506.214 748.381C507.589 752.31 510.086 755.748 513.395 758.267C520.033 763.388 528.409 765.701 536.728 764.708C545.046 763.715 552.646 759.496 557.899 752.955C581.626 720.667 561.151 684.636 521.766 683.912C482.381 683.188 461.545 711.433 468.048 751.688C469.108 759.308 471.691 766.636 475.644 773.232C479.597 779.828 484.838 785.556 491.053 790.072C507.132 802.505 517.791 800.031 539.23 803.712C542.602 815.783 538.447 818.619 548.685 825.258C556.333 817.171 552.84 809.989 565.848 800.212C594.212 778.847 607.34 776.071 610.231 719.761C619.144 731.832 620.168 746.136 621.252 764.06C629.923 760.62 632.513 756.335 634.741 745.955C643.052 748.791 645.641 751.386 656.18 751.205L649.495 731.349C659.974 728.995 665.032 725.314 668.104 717.227C648.773 716.563 636.969 715.114 623.179 706.484C683.761 701.716 678.883 693.568 704.236 661.4C713.089 650.235 719.111 651.382 725.916 646.795C728.084 645.407 727.301 645.709 728.566 644.321C723.327 635.992 718.75 637.199 707.007 635.449C704.056 601.41 696.528 570.087 653.952 563.931C576.447 552.705 573.797 643.053 610.412 659.952C618.245 663.17 626.797 664.224 635.175 663.003C643.554 661.782 651.452 658.332 658.047 653.011C664.19 647.489 667.961 639.797 668.567 631.549C669.174 623.3 666.568 615.138 661.299 608.773C658.676 605.655 655.214 603.359 651.325 602.16C647.436 600.96 643.285 600.908 639.367 602.009C635.45 603.11 631.931 605.318 629.231 608.368C626.531 611.419 624.765 615.184 624.142 619.214C632.754 619.636 634.681 619.817 639.198 624.404C640.522 646.916 604.691 635.992 610.412 608.471C611.55 603.944 613.581 599.691 616.386 595.964C619.191 592.237 622.713 589.112 626.743 586.771C630.774 584.431 635.231 582.924 639.853 582.338C644.474 581.753 649.166 582.102 653.651 583.364C662.068 586.493 669.429 591.945 674.886 599.09C680.342 606.234 683.669 614.78 684.484 623.74C687.796 662.668 650.218 694.051 606.557 678.058C555.67 659.047 549.528 574.251 613.543 553.429L613.483 553.188ZM538.869 98.1279C500.207 98.6711 473.468 115.691 468.048 150.333C455.884 227.705 544.891 231.93 563.439 195.718C566.723 187.987 567.896 179.518 566.838 171.182C565.78 162.846 562.528 154.942 557.417 148.281C548.866 137.478 528.812 130.175 513.817 143.03C498.821 155.885 503.519 178.759 523.091 180.872C523.091 171.819 523.392 170.189 528.571 165.904C548.263 165.904 539.772 189.502 525.801 194.451C508.517 200.486 494.245 185.7 489.668 175.44C475.275 144.781 508.577 116.354 540.796 121.122C548.19 122.289 555.262 124.977 561.568 129.018C567.874 133.059 573.276 138.365 577.434 144.602C581.592 150.839 584.417 157.871 585.729 165.256C587.041 172.641 586.813 180.218 585.059 187.51C572.171 255.045 473.047 254.442 457.69 191.554C456.623 192.275 455.686 193.173 454.92 194.21C447.874 202.9 448.898 205.314 435.95 215.997C435.95 228.067 433.783 229.818 431.434 240.138C441.991 239.578 452.474 238.042 462.749 235.551V256.071L487.319 251.062L485.392 273.272L512.07 270.858V293.973L534.593 293.611L532.425 320.347L554.888 318.295L549.227 342.557L569.702 342.979C568.016 354.325 564.583 361.568 565.547 374.604C573.216 371.567 581.389 370.01 589.635 370.017C601.378 355.11 609.207 353.722 613.302 347.928C551.636 333.202 550.913 235.612 614.808 221.187C650.941 212.919 679.004 235.37 683.701 264.762C689 297.835 659.914 330.365 629.201 316.182C619.144 311.535 604.39 295.964 610.592 279.971C617.759 260.96 644.497 262.77 638.234 277.376C635.102 283.411 632.874 282.445 624.202 282.807C625.828 300.551 646.966 306.285 659.733 294.878C686.712 270.073 649.796 225.17 611.556 241.828C598.669 247.441 589.214 262.046 587.768 280.997C584.697 320.95 612.459 344.186 653.169 338.634C688.519 333.805 706.404 306.285 706.465 267.417C719.593 264.581 721.942 266.754 728.686 257.399C720.978 250.639 713.812 253.053 704.236 241.586C683.52 216.781 686.17 198.796 623.54 195.96C624.581 194.706 625.901 193.713 627.394 193.063L642.51 187.51C650.631 185.69 658.939 184.839 667.261 184.976C663.949 175.862 658.649 173.69 649.194 170.913C652.374 164.714 654.298 157.945 654.855 150.997C647.798 151.226 640.925 153.307 634.922 157.032C632.332 146.229 629.622 142.487 621.312 138.081C619.445 157.636 619.204 168.258 610.291 183.105C607.28 151.782 608.003 139.228 589.455 120.458C578.193 109.052 577.109 111.224 566.089 102.896C559.965 98.324 555.35 92.0172 552.84 84.7899C552.84 84.4278 551.515 81.5309 551.455 81.4102C549.287 77.2458 549.889 78.8754 548.564 77.4872C539.652 82.2551 541.278 87.8076 538.809 99.3953L538.869 98.1279ZM140.264 558.439C140.926 548.722 144.419 540.634 144.72 527.176C102.565 538.039 131.05 526.029 109.31 543.35L96.6032 553.369C161.161 575.458 154.596 659.047 102.625 678.42C93.6703 682.115 83.9332 683.498 74.3062 682.444C64.6792 681.389 55.4702 677.931 47.5229 672.384C39.9203 666.693 33.9322 659.112 30.1509 650.39C26.3696 641.667 24.9263 632.107 25.9636 622.654C31.2029 575.579 91.4242 569.362 99.9154 608.893C105.516 635.086 71.8523 647.64 70.8888 625.913C75.1645 619.878 76.2485 620.24 86.185 619.878C85.5425 615.747 83.7016 611.897 80.8917 608.808C78.0818 605.718 74.427 603.525 70.3826 602.502C66.3381 601.479 62.0827 601.672 58.1464 603.055C54.2101 604.438 50.7669 606.951 48.2455 610.282C43.0881 616.782 40.7064 625.064 41.6203 633.318C42.5342 641.573 46.6695 649.13 53.1234 654.339C85.101 677.333 120.511 660.374 122.378 619.817C124.245 579.26 95.6999 558.257 54.7494 564.836C12.1127 571.656 6.57235 604.789 3.26017 636.173C-9.20564 638.044 -12.578 636.656 -18.1786 644.984C-13.3609 651.02 -2.03929 651.02 6.75302 663.09C30.3598 694.956 31.9255 703.889 87.2087 707.268C73.3578 715.959 61.5544 717.347 42.2234 718.011C43.6796 721.88 46.2012 725.254 49.4951 727.744C52.7891 730.233 56.7202 731.734 60.8318 732.073C57.7047 738.383 55.6684 745.179 54.8096 752.171C61.904 751.94 68.8159 749.86 74.8633 746.136C77.9346 756.939 79.922 761.224 88.9552 764.905C89.9187 748.007 91.1833 731.651 99.9756 720.606C101.421 749.817 104.854 767.742 120.872 783.494C128.515 790.03 136.561 796.077 144.961 801.6C156.283 810.291 154.175 818.318 161.221 825.741C171.458 818.68 167.243 816.809 170.675 804.255C192.656 800.151 202.773 803.229 219.515 789.891C258.418 758.93 251.252 681.92 186.333 684.515C147.009 686.085 128.521 723.443 152.549 754.344C157.787 760.378 165.076 764.246 173.001 765.194C180.925 766.142 188.918 764.103 195.426 759.474C198.866 757.153 201.547 753.868 203.133 750.029C204.719 746.189 205.14 741.966 204.342 737.889C203.545 733.811 201.566 730.059 198.652 727.103C195.737 724.147 192.018 722.118 187.959 721.27C187.959 721.693 187.537 722.236 187.417 722.598C187.297 722.96 187.056 723.443 186.996 723.865L185.911 729.478C184.105 735.815 185.911 732.315 181.877 735.031C162.726 742.756 166.34 701.233 196.812 706.906C205.832 709.085 213.627 714.748 218.5 722.661C223.373 730.574 224.928 740.096 222.827 749.153C220.05 757.564 214.969 765.023 208.165 770.679C201.361 776.334 193.107 779.96 184.346 781.14C119.006 790.072 99.253 692.844 162.847 668.582C198.98 654.701 237.702 668.582 252.757 710.829C255.949 707.57 257.394 703.949 260.586 700.328C284.193 673.109 266.608 701.233 278.652 662.366C265.885 661.038 258.599 664.901 247.036 666.47V646.01L222.406 651.261L224.152 628.749L197.775 631.405V608.109H174.71L177.36 581.795L154.898 583.364L160.077 558.861L139.722 558.499L140.264 558.439ZM99.7348 181.958C90.5209 166.447 90.7618 156.972 88.6541 136.995C84.9421 138.671 81.7387 141.301 79.3695 144.619C77.0002 147.937 75.5494 151.824 75.1645 155.885C69.1124 152.171 62.2033 150.092 55.1107 149.85C55.8376 156.812 57.8814 163.571 61.1329 169.767C51.6781 172.603 46.0776 174.776 43.0665 183.829C56.7969 184.251 76.8507 185.881 86.8474 194.873C31.7449 196.805 28.4929 210.324 7.47565 238.689C-1.25645 250.398 -8.48295 248.346 -18.0581 256.252C-12.3371 265.728 -7.63985 263.796 3.86242 266.21C3.86242 305.078 21.9288 332.961 56.9174 337.487C97.6872 342.738 125.63 320.528 122.559 279.85C121.113 261.322 112.201 247.079 99.795 241.164C91.9409 237.867 83.3233 236.838 74.9162 238.193C66.509 239.547 58.6476 243.231 52.2201 248.829C40.7781 258.968 36.8035 280.092 49.7511 292.947C61.7953 304.715 83.9568 300.249 86.2452 281.962C77.4529 281.6 75.1645 282.385 72.0932 276.47C64.6258 259.149 103.408 261.02 100.759 289.386C97.0248 328.615 34.5151 330.607 26.6261 281.419C16.0873 215.936 111.538 193.002 138.397 257.701C141.925 265.8 143.812 274.521 143.948 283.358C144.084 292.194 142.465 300.97 139.187 309.174C135.909 317.378 131.037 324.848 124.853 331.149C118.67 337.449 111.298 342.455 103.167 345.876L97.1452 349.497C106.428 354.479 114.523 361.418 120.872 369.836C129.119 369.762 137.301 371.3 144.961 374.363C145.623 360.783 142.552 354.627 140.806 342.617H161.221L155.861 318.174L178.444 319.985L175.855 293.188H198.859L198.498 270.314L225.116 272.789L223.189 250.639L247.699 255.407V234.887C258.013 237.157 268.479 238.67 279.014 239.414C276.304 228.852 274.437 227.343 274.557 215.273L252.757 190.769C238.545 250.036 149.116 256.071 127.677 197.167C124.204 187.998 123.04 178.112 124.29 168.384C125.54 158.657 129.165 149.389 134.844 141.401C160.98 107.483 212.59 117.26 222.887 152.144C225.051 161.166 223.602 170.678 218.852 178.642C214.101 186.607 206.427 192.39 197.474 194.753C171.278 200.184 159.173 165.24 181.274 165.723C186.453 170.068 186.574 171.396 186.815 180.63C190.741 180.229 194.469 178.706 197.556 176.242C200.643 173.778 202.959 170.477 204.228 166.732C205.497 162.988 205.665 158.956 204.713 155.118C203.762 151.28 201.73 147.796 198.859 145.082C195.985 142.168 192.555 139.861 188.774 138.3C184.994 136.739 180.938 135.954 176.849 135.994C172.76 136.033 168.721 136.895 164.971 138.529C161.22 140.163 157.836 142.535 155.018 145.505C134.543 167.051 136.952 212.557 183.744 216.902C225.477 220.825 247.638 192.761 242.339 150.514C241.463 142.782 238.998 135.316 235.101 128.585C231.204 121.854 225.959 116.005 219.696 111.406C201.629 98.309 193.68 101.447 170.736 97.4037C169.772 85.3331 169.893 80.1428 161.763 76.0388C158.511 79.4789 159.836 77.6683 157.969 82.074C155.751 89.5017 151.265 96.0453 145.142 100.783C114.67 124.925 106.058 116.898 100.036 181.716L99.7348 181.958ZM355.013 731.168C337.489 719.098 336.646 691.697 348.148 673.109C331.527 670.996 325.806 679.144 318.82 684.878C312.798 680.049 308.101 671.962 296.598 671.721V698.034C284.554 703.708 276.484 704.915 273.714 719.46C353.146 715.295 357.181 781.261 322.734 802.686C301.476 815.903 269.86 800.876 270.944 776.855C272.148 751.447 304.969 753.318 301.055 773.174C299.85 779.209 295.635 779.511 291.66 785.244C345.076 792.728 323.999 722.115 273.594 743.782C265.597 747.343 259.021 753.486 254.917 761.232C250.812 768.977 249.416 777.878 250.951 786.512C252.998 803.048 268.475 814.636 277.93 822.18C255.226 819.645 195.426 802.565 182.358 836.906C203.797 833.768 206.447 830.509 229.632 836.906C267.752 847.106 298.405 851.029 330.262 821.456C334.035 817.064 338.056 812.893 342.306 808.963C342.306 827.612 338.031 837.872 327.733 845.899C317.435 853.926 303.102 855.193 292.985 861.651C315.026 867.686 328.576 863.28 347.184 857.547C351.46 862.134 348.509 862.496 355.013 865.936C359.048 863.824 356.338 865.936 359.65 862.194L362.902 857.547C393.434 866.539 385.846 866.6 417.101 861.349C387.773 848.071 367.961 849.641 367.72 808.903C374.404 813.369 377.235 822.24 396.265 833.466C425.231 850.606 450.464 844.933 481.779 836.544C503.579 830.509 507.915 834.13 527.788 837.087C515.081 803.169 455.522 819.585 432.277 822.421C476.359 791.038 459.979 753.076 435.469 743.54C383.979 723.443 367.057 794.116 418.366 785.425L415.837 782.347L414.933 781.563C402.166 769.492 411.922 760.741 416.921 759.112C429.748 754.947 438.721 766.475 439.082 777.217C439.985 800.876 408.971 816.447 387.292 802.867C382.308 799.923 377.983 795.981 374.585 791.289C371.187 786.596 368.789 781.253 367.54 775.592C366.292 769.93 366.22 764.072 367.328 758.381C368.436 752.691 370.702 747.29 373.983 742.515C388.797 721.089 405.358 720.667 436.613 719.098C433.602 704.553 425.111 703.647 413.367 698.034C412.585 688.137 414.632 682.765 412.464 671.721C402.106 671.721 396.566 680.11 390.965 684.878C384.943 680.17 386.268 678.842 378.921 675.583C373.625 673.036 367.684 672.153 361.878 673.048C374.404 694.655 372.056 719.399 354.953 731.168H355.013ZM-1.85858 437.914C-27.814 437.371 -38.7141 429.223 -46.7236 408.341C-47.8678 405.384 -48.8915 402.668 -50.0959 399.107L-54.1909 390.356C-62.6219 406.168 -53.7092 429.284 -50.2766 444.674C-56.7203 446.665 -57.3224 446.484 -59.0689 452.881C-56.1782 455.296 -53.7092 456.261 -50.6379 458.555C-53.7092 472.919 -62.6821 497.18 -54.1909 512.872C-41.3036 491.447 -48.5904 465.676 -2.94262 463.926C-5.35148 468.754 -2.21999 464.53 -6.07415 468.815C-19.3831 483.661 -38.413 496.034 -37.5699 535.746C-36.3429 550.766 -33.5371 565.615 -29.1991 580.045C-24.0201 601.651 -26.3085 604.186 -30.1627 623.801C4.22369 615.472 -13.8426 545.342 -14.7459 529.711C-5.95363 539.307 4.16354 553.852 21.3868 555.904C29.8079 557.091 38.3857 555.501 45.8267 551.375C53.2676 547.249 59.1682 540.811 62.6384 533.03C84.7999 480.04 11.3901 463.021 21.6277 514.924C29.2156 510.579 23.2537 503.336 41.9825 505.871C49.9318 514.562 51.4975 522.77 41.9825 530.978C18.978 550.351 -22.2134 506.414 11.8719 474.186C19.4443 467.046 29.406 463.001 39.8016 462.845C50.1972 462.689 60.2757 466.432 68.0584 473.341C83.3546 486.015 88.0518 506.052 87.0281 533.09C99.5541 530.556 104.673 522.046 108.226 509.492C117.068 510.357 125.979 510.195 134.784 509.01C133.579 497.724 127.075 493.378 121.113 487.403C125.503 484.058 128.958 479.634 131.141 474.559C133.325 469.484 134.165 463.93 133.579 458.434C122.438 462.96 116.416 468.271 100.759 465.676C95.7516 464.992 90.929 463.322 86.5678 460.764C82.2066 458.206 78.3926 454.809 75.3451 450.769C81.6683 443.192 90.4928 438.139 100.217 436.526C117.079 433.448 121.836 439.604 133.76 443.466C133.218 428.137 131.833 426.93 124.426 418.42C123.199 417.306 122.215 415.95 121.535 414.437L123.221 412.626C127.798 408.341 135.265 402.306 134.121 393.072L109.611 392.106C101.602 382.027 103.589 372.13 87.6303 368.87C86.1248 385.286 89.5574 415.04 65.1075 431.155C55.8438 437.653 44.3837 440.197 33.2482 438.228C22.1128 436.258 12.214 429.937 5.72927 420.653C-9.02496 400.254 3.44085 368.569 26.1443 366.336C52.1599 363.861 56.2549 396.995 35.7195 396.512C28.794 396.512 26.5057 392.046 23.073 387.338C23.073 387.338 22.4708 387.701 22.4106 388.244C21.3397 389.928 20.6219 391.814 20.301 393.785C19.98 395.756 20.0627 397.772 20.5438 399.711C24.157 432.784 80.765 419.205 63.6622 370.379C60.6749 362.591 55.2552 355.98 48.2116 351.531C41.168 347.082 32.8781 345.035 24.5786 345.695C2.77845 346.238 -4.26748 362.956 -14.6858 371.586C-13.4211 352.696 -8.00119 339.056 -8.66362 317.872C-9.26584 299.767 -15.288 282.687 -29.6809 277.919C-26.6698 300.31 -23.6588 299.887 -29.6809 323.606C-37.1484 354.506 -44.3749 379.191 -26.1881 409.729C-15.83 427.051 -6.37524 431.336 -2.09953 437.854L-1.85858 437.914ZM153.633 470.987C165.015 575.941 256.672 664.599 374.585 652.83C401.357 650.584 427.415 643.022 451.243 630.585C475.07 618.148 496.19 601.084 513.373 580.387C530.556 559.69 543.458 535.773 551.329 510.03C559.199 484.288 561.88 457.233 559.215 430.441C556.551 403.65 548.594 377.657 535.808 353.978C523.023 330.298 505.664 309.405 484.743 292.514C463.822 275.623 439.756 263.072 413.948 255.593C388.14 248.114 361.105 245.856 334.417 248.949C231.318 259.692 140.685 352.575 153.753 470.987H153.633ZM331.165 239.836C149.237 262.77 75.8269 485.412 217.407 612.152C239.246 630.887 264.666 644.964 292.114 653.524C319.563 662.085 348.464 664.95 377.054 661.944C485.452 651.14 580.301 551.136 565.547 426.99C561.819 394.184 550.531 362.697 532.576 335.013C514.62 307.33 490.489 284.21 462.087 267.478C422.518 244.471 376.632 234.783 331.165 239.836ZM293.407 115.57C287.384 116.415 292.021 115.57 290.335 117.682L293.467 119.855C295.963 120.717 298.107 122.378 299.569 124.581C301.032 126.784 301.731 129.408 301.56 132.048C301.389 134.689 300.357 137.2 298.623 139.195C296.888 141.19 294.548 142.559 291.961 143.091C278.411 145.927 269.74 133.917 270.884 120.76C272.811 99.1539 303.885 85.1521 324.059 99.8781C328.762 103.017 332.794 107.063 335.921 111.779C339.048 116.496 341.207 121.789 342.272 127.35C343.337 132.911 343.287 138.629 342.124 144.171C340.962 149.712 338.71 154.967 335.501 159.627C322.554 179.061 304.246 181.656 273.293 182.32C275.762 198.495 286.842 197.106 296.839 204.469L296.297 229.576C301.1 229.92 305.849 228.384 309.546 225.291C311.075 224.237 312.453 222.978 313.641 221.549L318.639 216.781C327.371 223.722 330.684 228.49 347.365 228.852C343.27 218.29 337.669 210.746 340.319 196.02C341.898 185.957 347.053 176.805 354.832 170.249C379.945 191.252 366.877 215.514 362.48 228.792C379.162 228.792 382.414 223.481 391.025 216.721C391.387 216.721 391.868 216.721 392.049 217.445L395.301 220.644C397.395 223.29 400.033 225.453 403.037 226.984C406.04 228.515 409.338 229.379 412.705 229.516L413.367 204.409C423.003 197.106 434.204 198.374 436.553 182.26C407.586 181.716 387.773 179.001 375.067 160.472C368.41 151.166 365.694 139.599 367.51 128.294C369.327 116.99 375.528 106.862 384.762 100.12C404.154 85.2124 435.71 97.8261 438.962 118.889C440.949 132.408 432.939 144.539 419.51 143.03C416.725 142.858 414.086 141.722 412.044 139.817C410.002 137.911 408.683 135.354 408.313 132.582C407.944 129.81 408.546 126.996 410.017 124.619C411.488 122.243 413.736 120.452 416.379 119.553L419.932 117.803C418.245 115.389 419.45 116.475 416.559 115.328C384.341 113.88 384.461 135.848 390.845 147.617C403.551 171.215 462.809 165.723 459.678 117.441C458.413 97.2226 442.756 89.8596 433.722 79.841C452.752 81.0481 467.627 86.8419 488.825 85.8763C506.169 85.0917 524.958 77.6683 527.547 64.4511C507.855 68.2533 505.084 70.4863 483.887 65.477C440.828 55.6999 404.696 46.8884 368.201 93.1186C365.672 62.9422 382.835 52.6823 406.502 44.4743L415.114 40.2496C399.456 32.7658 377.897 39.7064 362.902 43.9915L359.349 39.1029C356.639 35.5421 358.867 37.4734 355.013 35.4214C348.991 38.7408 352.484 38.1976 347.184 43.9915C332.791 39.5857 310.389 32.6451 294.912 40.2496C304.728 49.3025 344.956 47.1298 341.885 93.1186C306.294 49.906 275.28 53.5876 229.813 64.6321C205.724 70.6674 205.724 68.0722 182.66 64.6321C193.74 98.4297 257.274 81.1688 276.364 79.5392C267.271 89.9803 251.673 96.438 250.348 117.199C247.157 165.482 306.475 171.155 319.181 147.376C326.047 134.641 325.203 114.182 293.407 115.027V115.57ZM762.049 510.458L763.615 514.14L766.084 509.975C765.301 483.963 768.914 483.058 760.363 458.374C766.084 454.149 766.385 457.589 769.035 450.528C766.024 446.001 766.264 446.303 760.363 444.492C763.615 431.155 772.407 403.815 764.217 389.451C752.835 405.022 759.459 437.069 712.005 437.733C716.461 431.094 724.953 428.197 736.094 409.548C743.829 397.262 747.941 383.035 747.957 368.508C747.095 353.297 744.426 338.244 740.008 323.666C734.468 300.43 736.876 300.491 740.008 277.979C725.314 282.807 719.593 299.767 719.051 317.993C718.449 339.117 723.688 352.636 725.073 371.647C714.775 363.258 708.271 347.143 687.435 345.876C679.1 344.793 670.642 346.51 663.385 350.759C656.128 355.007 650.481 361.546 647.327 369.353C639.98 387.459 644.738 409.246 659.07 415.704C671.777 421.739 692.072 418.058 689.181 389.089L687.856 385.769L685.387 389.511C684.261 391.981 682.359 394.013 679.971 395.297C677.584 396.582 674.842 397.047 672.166 396.623C669.49 396.199 667.026 394.908 665.15 392.948C663.275 390.988 662.091 388.467 661.781 385.769C660.576 372.371 671.958 364.585 685.869 366.517C707.127 369.595 719.232 400.797 704.778 420.834C684.845 448.174 642.57 445.337 627.635 408.039C621.613 392.891 624.323 384.924 622.817 369.051C606.979 372.371 608.786 382.208 600.776 392.71L576.206 392.348C576.078 395.587 576.677 398.815 577.959 401.792C579.241 404.769 581.173 407.419 583.613 409.548L588.732 414.376C581.807 425.481 577.41 423.671 576.688 443.406C588.431 439.544 593.67 433.267 610.231 436.405C619.89 438.189 628.648 443.237 635.042 450.709C628.721 458.737 619.553 464.012 609.448 465.435C593.309 468.211 587.648 462.538 576.507 458.193C575.885 463.65 576.665 469.176 578.773 474.246C580.881 479.316 584.247 483.762 588.551 487.162C582.529 493.197 575.905 497.18 574.881 508.768C583.261 509.934 591.745 510.157 600.174 509.432C606.738 517.821 605.534 529.53 622.697 532.789C620.71 453.364 677.257 453.968 698.576 474.971C702.44 478.385 705.519 482.599 707.602 487.321C709.686 492.043 710.723 497.162 710.643 502.324C710.563 507.486 709.367 512.57 707.138 517.225C704.91 521.88 701.701 525.995 697.733 529.288C679.666 544.98 648.351 527.478 667.622 505.751C681.473 504 680.931 506.233 686.953 514.683C697.913 500.439 680.931 478.471 661.479 484.868C632.573 494.465 636.789 557.292 685.568 555.904C705.622 555.421 716.461 538.945 724.772 529.65C724.23 543.35 705.682 616.196 740.249 623.68C736.334 604.065 734.227 600.987 739.225 580.286C749.162 540.816 755.907 504.121 720.376 472.315C715.859 468.332 715.799 469.177 713.149 463.926C730.312 464.288 741.092 467.427 748.379 477.385C755.111 487.352 759.761 498.582 762.049 510.398V510.458ZM354.411 895.81C414.086 896.436 473.341 885.747 529.053 864.306C583.054 842.81 632.201 810.671 673.584 769.794C715.582 729.478 748.692 680.795 770.781 626.879C792.875 570.796 803.859 510.939 803.12 450.648C803.834 390.598 792.786 330.99 770.601 275.203C748.357 221.231 715.107 172.511 672.982 132.167C631.592 91.1644 582.456 58.8486 528.45 37.1112C415.955 -4.97616 292.084 -4.97616 179.588 37.1112C125.702 58.639 76.7074 90.8468 35.5388 131.805C-6.30252 172.13 -39.2488 220.794 -61.1766 274.66C-83.2013 330.758 -94.1434 390.61 -93.3951 450.89C-94.1621 511.39 -83.2844 571.471 -61.3573 627.844C-39.5951 681.692 -6.76511 730.345 34.9968 770.639C120.431 854.087 226.902 895.81 354.411 895.81ZM41.7416 763.336C125.329 845.054 229.552 885.933 354.411 885.973C412.952 886.639 471.089 876.174 525.74 855.133C578.526 834.181 626.6 802.869 667.14 763.034C708.146 723.659 740.457 676.104 761.989 623.438C783.667 568.562 794.428 509.966 793.665 450.95C794.386 392.162 783.583 333.803 761.868 279.186C740.137 226.492 707.667 178.925 666.538 139.53C626.031 99.4313 577.963 67.8156 525.138 46.5263C414.97 5.32458 293.671 5.32458 183.503 46.5263C130.799 67.5323 82.8534 98.9565 42.5245 138.926C1.69528 178.34 -30.4675 225.867 -51.9026 278.462C-73.422 333.4 -84.1176 391.996 -83.3983 451.011C-84.208 510.221 -73.6164 569.032 -52.2036 624.223C-31.0263 676.784 0.987078 724.272 41.7416 763.578V763.336Z" fill="white"/>
<rect y="169" width="320" height="186" fill="url(#paint0_linear_114_1125)"/>
</g>
</g>
<defs>
<linearGradient id="paint0_linear_114_1125" x1="160" y1="208" x2="160" y2="355" gradientUnits="userSpaceOnUse">
<stop stop-color="#D9D9D9" stop-opacity="0"/>
<stop offset="1" stop-opacity="0.41"/>
</linearGradient>
<clipPath id="clip0_114_1125">
<rect width="320" height="295" fill="white"/>
</clipPath>
<clipPath id="clip1_114_1125">
<rect x="-85" y="15" width="883" height="877" rx="438.5" fill="white"/>
</clipPath>
</defs>
</svg>
