<svg width="395" height="295" viewBox="0 0 395 295" fill="none" xmlns="http://www.w3.org/2000/svg">
<g clip-path="url(#clip0_114_1125)">
<g clip-path="url(#clip1_114_1125)">
<path fill-rule="evenodd" clip-rule="evenodd" d="M414.29 1019.9C251.171 1019.9 114.97 966.443 5.68858 859.539C-103.593 752.634 -158.234 616.417 -158.234 450.89C-158.234 286.368 -103.332 150.414 6.4715 43.0258C116.275 -64.3619 252.215 -118.076 414.29 -118.116C575.282 -118.116 711.202 -64.1406 822.049 43.8104C932.896 151.761 988.42 287.455 988.621 450.89C988.621 615.411 933.458 751.386 823.133 858.814C712.807 966.242 576.627 1019.94 414.591 1019.9H414.29ZM391.226 287.636C373.641 279.367 367.498 270.858 343.049 277.496C321.128 283.532 320.767 292.524 311.252 308.578C304.662 306.525 297.607 306.525 291.017 308.578C285.004 310.466 279.778 314.283 276.143 319.441C289.03 319.441 296.196 319.442 300.231 328.917L295.654 330.848C293.607 331.331 291.077 331.572 289.09 332.055C241.997 342.798 239.95 423.067 290.776 418.722C314.504 416.73 311.914 398.262 305.531 383.415C302.158 386.192 305.109 382.933 302.52 386.373C301.135 388.244 302.218 387.278 300.713 389.39C300.04 390.634 299.063 391.686 297.872 392.446C296.681 393.207 295.317 393.65 293.908 393.736C270.903 397.055 276.384 366.396 290.897 359.093C302.52 353.058 315.527 360.723 321.008 366.517C329.679 375.811 329.258 383.476 331.004 399.107L349.793 395.486L348.348 413.592C368.281 412.868 390.503 413.592 395.441 437.733C379.844 434.474 366.595 426.809 347.264 427.413C313.359 428.499 295.233 456.261 257.474 423.671C252.656 419.506 236.818 397.538 236.637 388.364C233.265 409.548 235.011 424.576 244.526 437.552C240.354 438.122 236.349 439.573 232.778 441.81C229.207 444.047 226.15 447.019 223.81 450.528C228.929 461.934 235.855 458.675 244.406 464.711C240.236 471.024 237.382 478.117 236.016 485.564C234.65 493.01 234.8 500.657 236.457 508.044C239.588 505.509 237.179 509.01 240.311 503.88C247.357 492.352 249.525 485.17 260.907 475.574C295.173 446.786 316.069 473.16 347.565 474.005C368.101 474.548 378.76 466.763 395.381 464.167C394.28 468.418 392.351 472.409 389.705 475.91C387.059 479.411 383.749 482.353 379.964 484.567C370.389 489.878 360.212 488.309 348.589 488.067L349.914 505.811L330.824 502.612C330.824 518.425 328.957 526.753 320.225 535.082C296.618 557.775 270 532.97 280.117 513.838C281.142 512.114 282.557 510.655 284.248 509.581C285.939 508.506 287.859 507.845 289.852 507.651C291.845 507.457 293.856 507.736 295.722 508.465C297.587 509.193 299.256 510.352 300.592 511.846C302.098 513.898 300.592 512.691 302.158 514.743L305.109 518.485C326.909 474.729 268.976 471.531 256.45 504.302C251.896 515.258 251.528 527.51 255.416 538.721C259.304 549.931 267.175 559.314 277.528 565.077C286.38 569.845 292.342 568.698 300.291 571.958C296.497 580.89 289.572 582.097 277.227 582.278C283.249 593.262 297.461 596.823 311.372 592.84C316.431 601.229 314.684 603.824 322.212 611.609C327.445 617.402 334.211 621.588 341.724 623.68C370.148 632.733 376.772 618.55 391.647 614.627C400.861 624.464 398.814 629.534 398.211 644.321C404.398 639.766 408.687 633.081 410.256 625.551C412.845 611.971 408.268 607.445 403.872 598.754C407.847 585.235 413.748 579.502 408.81 560.973C407.728 555.161 405.063 549.762 401.109 545.373C397.155 540.985 392.067 537.778 386.408 536.108C353.226 527.357 335.22 568.759 360.633 581.433C360.272 569.362 361.597 558.258 375.688 560.913C385.143 562.724 389.359 573.768 385.264 584.571C383.51 589.126 380.519 593.097 376.628 596.035C372.737 598.973 368.103 600.76 363.251 601.193C358.399 601.627 353.523 600.69 349.175 598.488C344.828 596.286 341.182 592.908 338.652 588.736C321.369 560.008 342.386 511.665 400.018 514.321C399.175 497.482 403.149 482.937 415.194 477.566C427.238 482.937 431.333 497.543 430.369 514.381C452.531 513.355 469.032 518.244 480.895 529.831C494.927 543.531 509.018 584.149 481.919 597.728C477.659 599.895 472.935 600.984 468.159 600.899C463.382 600.815 458.699 599.561 454.518 597.245C441.029 588.192 436.452 556.568 463.732 561.456C470.055 567.491 470.236 569.423 469.754 581.433C494.204 569.362 478.968 528.685 445.304 535.806C439.519 537.207 434.246 540.215 430.091 544.486C425.936 548.757 423.069 554.116 421.818 559.947C416.278 578.415 422.179 585.114 426.395 598.996C426.034 602.918 407.184 626.878 432.056 644.381C432.056 629.232 429.346 625.309 438.74 614.868C447.292 617.162 477.764 641.665 507.513 612.696C515.522 604.85 513.535 601.953 519.015 593.081C531.06 596.219 546.295 594.469 553.703 582.7C541.297 581.976 534.251 582.036 530.156 572.199C545.211 566.164 557.436 568.336 568.156 552.041C584.295 527.9 578.875 477.264 538.045 483.239C519.437 485.955 513.415 508.949 527.085 518.425C529.735 512.389 529.915 509.01 536.841 507.923C568.457 503.035 545.994 570.388 510.343 535.323C501.852 526.934 499.503 518.666 499.865 503.095L480.895 506.113L482.401 489.033C466.081 485.955 442.655 493.378 435.127 464.349C451.507 467.064 463.07 474.729 483.304 474.246C505.706 473.703 566.349 433.086 594.171 513.114C596.58 493.559 596.52 479.135 586.523 464.831C593.81 459.641 601.94 461.934 606.878 450.648C604.545 447.136 601.48 444.173 597.892 441.964C594.305 439.755 590.283 438.352 586.102 437.854C592.495 428.081 595.752 416.582 595.436 404.901C595.436 403.392 595.436 399.831 595.436 398.443L593.268 391.804C562.074 468.694 509.741 428.016 483.485 427.654C465.117 427.232 451.086 434.655 435.308 437.974C440.607 413.833 462.287 412.868 482.34 413.833L480.895 396.21L500.106 399.469C499.263 380.398 508.717 355.774 532.083 357.222C553.823 358.671 563.338 396.633 535.215 393.796C529.193 390.416 530.397 389.692 527.326 383.476C524.328 385.929 522.108 389.203 520.935 392.899C519.763 396.595 519.69 400.553 520.724 404.29C521.758 408.027 523.856 411.382 526.761 413.945C529.665 416.507 533.252 418.167 537.082 418.722C544.869 420.502 553.039 419.28 559.968 415.299C566.897 411.319 572.077 404.87 574.479 397.236C577.087 390.95 578.325 384.178 578.11 377.374C577.896 370.57 576.233 363.89 573.234 357.781C570.235 351.673 565.969 346.277 560.721 341.955C555.472 337.633 549.363 334.484 542.803 332.719L530.758 329.279C535.034 320.045 541.658 319.623 554.847 319.743C547.44 307.311 531.722 306.586 519.678 308.88C515.101 300.792 515.161 296.206 508.898 289.627C503.215 284.213 496.348 280.203 488.844 277.919C480.657 275.148 471.885 274.594 463.415 276.31C454.944 278.027 447.077 281.955 440.607 287.696C428.984 279.548 433.2 272.608 432.056 257.52C406.1 283.049 426.997 294.938 426.515 303.991C421.035 316.062 417.121 327.106 422.179 342.798C423.633 348.537 426.659 353.754 430.916 357.86C435.172 361.966 440.49 364.798 446.268 366.034C480.775 373.397 493.722 330.788 469.513 320.105C471.079 330.426 471.32 335.375 462.708 340.505C437.174 343.824 441.089 313.406 455.181 304.293C486.496 284.014 517.69 335.978 481.738 371.828C470.597 382.872 452.892 388.304 431.032 387.399C431.032 405.806 428.382 417.575 415.495 424.214C402.728 417.756 400.138 405.625 400.018 387.278C378.158 388.364 360.573 382.993 349.372 371.828C335.521 358.007 322.212 317.51 349.372 303.75C353.523 301.651 358.122 300.599 362.77 300.683C367.419 300.767 371.977 301.985 376.05 304.233C390.744 314.312 394.538 344.428 366.595 340.444C360.573 333.142 359.489 331.271 361.717 320.286C337.087 332.357 350.998 373.276 384.842 366.336C390.619 365.075 395.932 362.228 400.186 358.114C404.44 354 407.468 348.78 408.931 343.039C415.495 322.761 407.365 316.545 404.715 302.663C416.759 282.566 412.664 271.22 399.054 257.701C398.091 277.979 402.246 273.091 392.008 287.877L391.226 287.636ZM673.483 553.188L672.64 552.282L671.737 551.377L669.87 549.929C641.686 528.745 660.535 534.418 625.366 527.115C625.366 540.815 629.16 548.48 629.823 558.559H609.227L613.924 583.183L591.883 581.795L594.473 608.049L571.588 607.566V630.862L545.452 628.508L547.139 650.899L522.568 646.071V665.927C511.247 664.358 503.418 660.435 490.952 661.883C497.637 684.093 493.602 684.033 500.045 690.008C513.354 702.078 512.09 704.975 517.028 710.286C520.705 697.523 528.118 686.159 538.308 677.663C548.499 669.168 560.998 663.932 574.19 662.632C587.381 661.332 600.659 664.028 612.305 670.372C623.952 676.715 633.431 686.415 639.518 698.215C643.754 706.639 645.96 715.941 645.96 725.374C645.96 734.807 643.754 744.109 639.518 752.533C621.994 784.339 573.997 791.883 552.739 759.956C550.044 756.273 548.114 752.083 547.066 747.638C546.017 743.192 545.87 738.581 546.634 734.078C547.398 729.574 549.057 725.27 551.513 721.422C553.968 717.573 557.171 714.258 560.929 711.674C578.153 699.181 602.301 708.174 599.471 729.297C596.942 736.6 586.403 739.074 583.753 728.995C583.255 726.144 582.973 723.259 582.91 720.365C578.806 721.014 574.983 722.859 571.916 725.668C568.849 728.477 566.673 732.128 565.66 736.166C564.646 740.204 564.839 744.452 566.214 748.381C567.589 752.31 570.086 755.748 573.395 758.267C580.033 763.388 588.409 765.701 596.728 764.708C605.046 763.715 612.646 759.496 617.899 752.956C641.626 720.667 621.151 684.636 581.766 683.912C542.381 683.188 521.545 711.433 528.048 751.688C529.108 759.308 531.691 766.636 535.644 773.232C539.597 779.828 544.838 785.556 551.053 790.072C567.132 802.505 577.791 800.031 599.23 803.712C602.602 815.783 598.447 818.619 608.685 825.258C616.333 817.171 612.84 809.989 625.848 800.212C654.212 778.847 667.34 776.071 670.231 719.761C679.144 731.832 680.168 746.136 681.252 764.06C689.923 760.62 692.513 756.335 694.741 745.955C703.052 748.791 705.641 751.386 716.18 751.205L709.495 731.349C719.974 728.995 725.032 725.314 728.104 717.227C708.773 716.563 696.969 715.114 683.179 706.484C743.761 701.716 738.883 693.568 764.237 661.4C773.089 650.235 779.111 651.382 785.916 646.795C788.084 645.407 787.301 645.709 788.566 644.321C783.327 635.992 778.75 637.199 767.007 635.449C764.056 601.41 756.528 570.087 713.952 563.931C636.447 552.705 633.797 643.053 670.412 659.952C678.245 663.17 686.797 664.224 695.175 663.003C703.554 661.782 711.452 658.332 718.047 653.011C724.19 647.489 727.961 639.797 728.567 631.549C729.174 623.3 726.568 615.138 721.299 608.773C718.676 605.655 715.214 603.359 711.325 602.16C707.436 600.96 703.285 600.908 699.367 602.009C695.45 603.11 691.931 605.318 689.231 608.368C686.531 611.419 684.765 615.184 684.142 619.214C692.754 619.636 694.681 619.817 699.198 624.404C700.522 646.916 664.691 635.992 670.412 608.471C671.55 603.944 673.581 599.691 676.386 595.964C679.191 592.237 682.713 589.112 686.743 586.771C690.774 584.431 695.231 582.924 699.853 582.338C704.474 581.753 709.166 582.102 713.651 583.364C722.068 586.493 729.429 591.945 734.886 599.09C740.342 606.234 743.669 614.78 744.484 623.74C747.796 662.668 710.218 694.051 666.557 678.058C615.67 659.047 609.528 574.251 673.543 553.429L673.483 553.188ZM598.869 98.1279C560.207 98.6711 533.468 115.691 528.048 150.333C515.884 227.705 604.891 231.93 623.439 195.718C626.723 187.987 627.896 179.518 626.838 171.182C625.78 162.846 622.528 154.942 617.417 148.281C608.866 137.478 588.812 130.175 573.817 143.03C558.821 155.886 563.519 178.759 583.091 180.872C583.091 171.819 583.392 170.189 588.571 165.904C608.263 165.904 599.772 189.502 585.801 194.451C568.517 200.486 554.245 185.7 549.668 175.44C535.275 144.781 568.577 116.354 600.796 121.122C608.19 122.289 615.262 124.977 621.568 129.018C627.874 133.059 633.276 138.365 637.434 144.602C641.592 150.839 644.417 157.871 645.729 165.256C647.041 172.641 646.813 180.218 645.059 187.51C632.171 255.045 533.047 254.442 517.69 191.554C516.623 192.275 515.686 193.173 514.92 194.21C507.874 202.9 508.898 205.314 495.951 215.997C495.951 228.067 493.783 229.818 491.434 240.138C501.991 239.578 512.474 238.042 522.749 235.551V256.071L547.319 251.062L545.392 273.272L572.07 270.858V293.973L594.593 293.611L592.425 320.347L614.888 318.295L609.227 342.557L629.702 342.979C628.016 354.325 624.583 361.568 625.547 374.604C633.216 371.567 641.389 370.01 649.635 370.017C661.378 355.11 669.207 353.722 673.302 347.928C611.636 333.202 610.913 235.612 674.808 221.187C710.941 212.919 739.004 235.37 743.701 264.762C749 297.835 719.914 330.365 689.201 316.182C679.144 311.535 664.39 295.964 670.592 279.971C677.759 260.96 704.497 262.77 698.234 277.376C695.102 283.411 692.874 282.445 684.202 282.807C685.828 300.551 706.966 306.285 719.733 294.878C746.712 270.073 709.796 225.17 671.556 241.828C658.669 247.441 649.214 262.046 647.768 280.997C644.697 320.95 672.459 344.186 713.169 338.634C748.519 333.805 766.404 306.285 766.465 267.417C779.593 264.581 781.942 266.754 788.686 257.399C780.978 250.639 773.812 253.053 764.237 241.586C743.52 216.781 746.17 198.796 683.54 195.96C684.581 194.706 685.901 193.713 687.394 193.063L702.51 187.51C710.631 185.69 718.939 184.839 727.261 184.976C723.949 175.862 718.649 173.69 709.194 170.913C712.374 164.714 714.298 157.945 714.855 150.997C707.798 151.226 700.925 153.307 694.922 157.032C692.332 146.229 689.622 142.487 681.312 138.081C679.445 157.636 679.204 168.258 670.291 183.105C667.28 151.782 668.003 139.228 649.455 120.458C638.193 109.052 637.109 111.224 626.089 102.896C619.965 98.324 615.35 92.0172 612.84 84.7899C612.84 84.4278 611.515 81.5309 611.455 81.4102C609.287 77.2458 609.889 78.8754 608.564 77.4872C599.652 82.2551 601.278 87.8076 598.809 99.3953L598.869 98.1279ZM200.264 558.439C200.926 548.722 204.419 540.634 204.72 527.176C162.565 538.039 191.05 526.029 169.31 543.35L156.603 553.369C221.161 575.458 214.596 659.047 162.625 678.42C153.67 682.115 143.933 683.498 134.306 682.444C124.679 681.389 115.47 677.931 107.523 672.384C99.9204 666.693 93.9322 659.112 90.1509 650.39C86.3696 641.667 84.9263 632.107 85.9636 622.654C91.2029 575.579 151.424 569.362 159.915 608.893C165.516 635.086 131.852 647.64 130.889 625.913C135.165 619.878 136.248 620.24 146.185 619.878C145.542 615.747 143.702 611.897 140.892 608.808C138.082 605.718 134.427 603.525 130.383 602.502C126.338 601.479 122.083 601.672 118.146 603.055C114.21 604.438 110.767 606.951 108.246 610.282C103.088 616.782 100.706 625.064 101.62 633.318C102.534 641.573 106.67 649.13 113.123 654.339C145.101 677.333 180.511 660.374 182.378 619.817C184.245 579.26 155.7 558.257 114.749 564.836C72.1127 571.656 66.5724 604.789 63.2602 636.173C50.7944 638.044 47.422 636.656 41.8214 644.984C46.6391 651.02 57.9607 651.02 66.753 663.09C90.3598 694.956 91.9255 703.889 147.209 707.268C133.358 715.959 121.554 717.347 102.223 718.011C103.68 721.879 106.201 725.254 109.495 727.744C112.789 730.233 116.72 731.734 120.832 732.073C117.705 738.383 115.668 745.179 114.81 752.171C121.904 751.94 128.816 749.86 134.863 746.136C137.935 756.939 139.922 761.224 148.955 764.905C149.919 748.006 151.183 731.651 159.976 720.606C161.421 749.817 164.854 767.742 180.872 783.494C188.515 790.03 196.561 796.077 204.961 801.6C216.283 810.291 214.175 818.318 221.221 825.741C231.458 818.68 227.243 816.809 230.675 804.255C252.656 800.151 262.773 803.229 279.515 789.891C318.418 758.93 311.252 681.92 246.333 684.516C207.009 686.085 188.521 723.443 212.549 754.344C217.787 760.378 225.076 764.246 233.001 765.194C240.925 766.142 248.918 764.103 255.426 759.474C258.866 757.153 261.547 753.868 263.133 750.029C264.719 746.189 265.14 741.966 264.342 737.889C263.545 733.811 261.566 730.059 258.652 727.103C255.737 724.147 252.018 722.118 247.959 721.27C247.959 721.693 247.537 722.236 247.417 722.598C247.297 722.96 247.056 723.443 246.996 723.865L245.911 729.478C244.105 735.815 245.911 732.315 241.877 735.031C222.726 742.756 226.34 701.233 256.812 706.906C265.832 709.085 273.627 714.748 278.5 722.661C283.373 730.574 284.928 740.096 282.827 749.153C280.05 757.564 274.969 765.023 268.165 770.679C261.361 776.334 253.107 779.96 244.346 781.14C179.006 790.072 159.253 692.844 222.847 668.582C258.98 654.701 297.702 668.582 312.757 710.829C315.949 707.57 317.394 703.949 320.586 700.328C344.193 673.109 326.608 701.233 338.652 662.366C325.885 661.038 318.599 664.901 307.036 666.47V646.01L282.406 651.261L284.152 628.749L257.775 631.405V608.109H234.71L237.36 581.795L214.898 583.364L220.077 558.861L199.722 558.499L200.264 558.439ZM159.735 181.958C150.521 166.447 150.762 156.972 148.654 136.995C144.942 138.671 141.739 141.301 139.369 144.619C137 147.937 135.549 151.824 135.164 155.885C129.112 152.171 122.203 150.092 115.111 149.85C115.838 156.812 117.881 163.571 121.133 169.767C111.678 172.603 106.078 174.776 103.066 183.829C116.797 184.251 136.851 185.881 146.847 194.873C91.7449 196.805 88.4929 210.324 67.4756 238.689C58.7436 250.398 51.517 248.346 41.9418 256.252C47.6629 265.728 52.3602 263.796 63.8624 266.21C63.8624 305.078 81.9288 332.961 116.917 337.487C157.687 342.738 185.63 320.528 182.559 279.85C181.113 261.322 172.201 247.079 159.795 241.164C151.941 237.867 143.323 236.838 134.916 238.193C126.509 239.547 118.648 243.231 112.22 248.829C100.778 258.968 96.8035 280.092 109.751 292.947C121.795 304.715 143.957 300.249 146.245 281.962C137.453 281.6 135.164 282.385 132.093 276.47C124.626 259.149 163.408 261.02 160.759 289.386C157.025 328.615 94.5151 330.607 86.6261 281.419C76.0873 215.936 171.538 193.002 198.397 257.701C201.925 265.8 203.812 274.521 203.948 283.358C204.083 292.194 202.465 300.97 199.187 309.174C195.909 317.378 191.037 324.848 184.853 331.149C178.67 337.449 171.298 342.455 163.167 345.876L157.145 349.497C166.428 354.479 174.523 361.418 180.872 369.836C189.119 369.762 197.301 371.3 204.961 374.363C205.623 360.783 202.552 354.627 200.806 342.617H221.221L215.861 318.174L238.444 319.985L235.855 293.188H258.859L258.498 270.314L285.116 272.789L283.189 250.639L307.699 255.407V234.887C318.013 237.157 328.479 238.67 339.014 239.414C336.304 228.852 334.437 227.343 334.557 215.273L312.757 190.769C298.545 250.036 209.116 256.071 187.677 197.167C184.204 187.998 183.04 178.112 184.29 168.384C185.54 158.657 189.165 149.389 194.844 141.401C220.98 107.483 272.59 117.26 282.887 152.144C285.051 161.166 283.602 170.678 278.852 178.642C274.101 186.607 266.427 192.39 257.474 194.753C231.278 200.184 219.173 165.24 241.274 165.723C246.453 170.068 246.574 171.396 246.815 180.63C250.741 180.229 254.469 178.706 257.556 176.242C260.643 173.778 262.959 170.477 264.228 166.732C265.497 162.988 265.665 158.956 264.713 155.118C263.762 151.28 261.73 147.796 258.859 145.082C255.985 142.168 252.555 139.861 248.774 138.3C244.994 136.739 240.938 135.954 236.849 135.994C232.76 136.033 228.721 136.895 224.971 138.529C221.22 140.163 217.836 142.535 215.018 145.505C194.543 167.051 196.952 212.557 243.744 216.902C285.477 220.825 307.638 192.761 302.339 150.514C301.463 142.782 298.998 135.316 295.101 128.585C291.204 121.854 285.959 116.005 279.696 111.406C261.629 98.309 253.68 101.447 230.736 97.4037C229.772 85.3331 229.893 80.1428 221.763 76.0388C218.511 79.4789 219.836 77.6683 217.969 82.0741C215.751 89.5017 211.265 96.0453 205.142 100.783C174.67 124.925 166.058 116.898 160.036 181.716L159.735 181.958ZM415.013 731.168C397.489 719.098 396.645 691.697 408.148 673.109C391.527 670.996 385.806 679.144 378.82 684.878C372.798 680.049 368.101 671.962 356.598 671.721V698.034C344.554 703.708 336.484 704.915 333.714 719.46C413.146 715.295 417.181 781.261 382.734 802.686C361.476 815.903 329.86 800.876 330.944 776.855C332.148 751.447 364.969 753.318 361.055 773.174C359.85 779.209 355.635 779.511 351.66 785.244C405.076 792.728 383.999 722.115 333.594 743.782C325.597 747.343 319.021 753.486 314.917 761.232C310.812 768.977 309.416 777.878 310.951 786.512C312.998 803.048 328.475 814.636 337.93 822.18C315.226 819.645 255.426 802.565 242.358 836.906C263.797 833.768 266.447 830.509 289.632 836.906C327.752 847.106 358.405 851.029 390.262 821.456C394.035 817.064 398.056 812.893 402.306 808.963C402.306 827.612 398.031 837.872 387.733 845.899C377.435 853.926 363.102 855.193 352.985 861.651C375.026 867.686 388.576 863.28 407.184 857.547C411.46 862.134 408.509 862.496 415.013 865.936C419.048 863.824 416.338 865.936 419.65 862.194L422.902 857.547C453.434 866.539 445.846 866.6 477.101 861.349C447.773 848.071 427.961 849.641 427.72 808.903C434.404 813.369 437.235 822.24 456.265 833.466C485.231 850.606 510.464 844.933 541.779 836.544C563.579 830.509 567.915 834.13 587.788 837.087C575.081 803.169 515.522 819.585 492.277 822.421C536.359 791.038 519.979 753.076 495.469 743.54C443.979 723.443 427.057 794.116 478.366 785.425L475.837 782.347L474.933 781.563C462.166 769.492 471.922 760.741 476.921 759.112C489.748 754.947 498.721 766.475 499.082 777.217C499.985 800.876 468.971 816.447 447.292 802.867C442.308 799.923 437.983 795.981 434.585 791.289C431.187 786.596 428.789 781.253 427.54 775.592C426.292 769.93 426.22 764.072 427.328 758.381C428.436 752.691 430.701 747.29 433.983 742.515C448.797 721.089 465.358 720.667 496.613 719.098C493.602 704.553 485.111 703.647 473.367 698.034C472.585 688.137 474.632 682.765 472.464 671.721C462.106 671.721 456.566 680.11 450.965 684.878C444.943 680.17 446.268 678.842 438.921 675.583C433.625 673.036 427.684 672.153 421.878 673.048C434.404 694.655 432.056 719.399 414.953 731.168H415.013ZM58.1414 437.914C32.186 437.371 21.2859 429.223 13.2764 408.341C12.1322 405.384 11.1085 402.668 9.90407 399.107L5.80907 390.356C-2.62192 406.168 6.2908 429.284 9.72342 444.674C3.27974 446.665 2.67756 446.484 0.931137 452.881C3.82176 455.296 6.2908 456.261 9.36209 458.555C6.2908 472.919 -2.68214 497.18 5.80907 512.872C18.6964 491.447 11.4096 465.676 57.0574 463.926C54.6485 468.754 57.78 464.53 53.9258 468.815C40.6169 483.661 21.587 496.034 22.4301 535.746C23.6571 550.766 26.4629 565.615 30.8009 580.045C35.9799 601.651 33.6915 604.186 29.8373 623.801C64.2237 615.472 46.1574 545.342 45.2541 529.711C54.0464 539.307 64.1635 553.852 81.3868 555.904C89.8079 557.091 98.3857 555.501 105.827 551.375C113.268 547.249 119.168 540.811 122.638 533.03C144.8 480.04 71.3901 463.021 81.6277 514.924C89.2156 510.579 83.2537 503.336 101.983 505.871C109.932 514.562 111.498 522.77 101.983 530.978C78.978 550.351 37.7866 506.414 71.8719 474.186C79.4443 467.046 89.406 463.001 99.8016 462.845C110.197 462.689 120.276 466.432 128.058 473.341C143.355 486.015 148.052 506.052 147.028 533.09C159.554 530.556 164.673 522.046 168.226 509.492C177.068 510.357 185.979 510.195 194.784 509.01C193.579 497.724 187.075 493.378 181.113 487.403C185.503 484.058 188.958 479.634 191.141 474.559C193.325 469.484 194.165 463.93 193.579 458.434C182.438 462.96 176.416 468.271 160.759 465.676C155.752 464.991 150.929 463.322 146.568 460.764C142.207 458.206 138.393 454.809 135.345 450.769C141.668 443.192 150.493 438.139 160.217 436.526C177.079 433.448 181.836 439.604 193.76 443.466C193.218 428.137 191.833 426.93 184.426 418.42C183.199 417.306 182.215 415.95 181.535 414.437L183.221 412.626C187.798 408.341 195.265 402.306 194.121 393.072L169.611 392.106C161.602 382.027 163.589 372.13 147.63 368.87C146.125 385.286 149.557 415.04 125.108 431.154C115.844 437.653 104.384 440.197 93.2482 438.228C82.1128 436.258 72.214 429.937 65.7293 420.653C50.975 400.254 63.4408 368.569 86.1443 366.336C112.16 363.861 116.255 396.995 95.7195 396.512C88.794 396.512 86.5057 392.046 83.073 387.338C83.073 387.338 82.4708 387.701 82.4106 388.244C81.3397 389.928 80.6219 391.814 80.301 393.785C79.98 395.756 80.0627 397.772 80.5438 399.711C84.157 432.784 140.765 419.205 123.662 370.379C120.675 362.591 115.255 355.98 108.212 351.531C101.168 347.082 92.8781 345.035 84.5786 345.695C62.7784 346.238 55.7325 362.956 45.3142 371.586C46.5789 352.696 51.9988 339.056 51.3364 317.872C50.7342 299.767 44.712 282.687 30.3191 277.919C33.3302 300.31 36.3412 299.887 30.3191 323.606C22.8516 354.506 15.6251 379.191 33.8119 409.729C44.17 427.05 53.6248 431.336 57.9005 437.854L58.1414 437.914ZM213.633 470.987C225.015 575.941 316.672 664.599 434.585 652.83C461.357 650.584 487.415 643.022 511.243 630.585C535.07 618.148 556.19 601.084 573.373 580.387C590.556 559.69 603.458 535.773 611.329 510.03C619.199 484.288 621.88 457.233 619.215 430.441C616.551 403.65 608.594 377.657 595.808 353.978C583.023 330.298 565.664 309.405 544.743 292.514C523.822 275.623 499.756 263.072 473.948 255.593C448.14 248.114 421.105 245.856 394.417 248.949C291.318 259.692 200.685 352.575 213.753 470.987H213.633ZM391.165 239.836C209.237 262.77 135.827 485.412 277.407 612.152C299.246 630.887 324.666 644.964 352.114 653.524C379.563 662.085 408.464 664.95 437.054 661.943C545.452 651.14 640.301 551.136 625.547 426.99C621.819 394.185 610.531 362.697 592.576 335.013C574.62 307.33 550.489 284.21 522.087 267.478C482.518 244.471 436.632 234.783 391.165 239.836ZM353.407 115.57C347.384 116.415 352.021 115.57 350.335 117.682L353.467 119.855C355.963 120.717 358.107 122.378 359.57 124.581C361.032 126.784 361.731 129.408 361.56 132.048C361.389 134.689 360.357 137.2 358.623 139.195C356.888 141.19 354.548 142.559 351.961 143.091C338.411 145.927 329.74 133.917 330.884 120.76C332.811 99.1539 363.885 85.1521 384.059 99.8781C388.762 103.017 392.794 107.063 395.921 111.779C399.048 116.496 401.207 121.789 402.272 127.35C403.337 132.911 403.287 138.629 402.124 144.171C400.962 149.712 398.71 154.967 395.501 159.627C382.554 179.061 364.246 181.656 333.293 182.32C335.762 198.495 346.842 197.106 356.839 204.469L356.297 229.576C361.1 229.92 365.849 228.384 369.546 225.291C371.075 224.237 372.453 222.978 373.641 221.549L378.639 216.781C387.371 223.722 390.684 228.49 407.365 228.852C403.27 218.29 397.669 210.746 400.319 196.02C401.898 185.957 407.053 176.805 414.832 170.249C439.945 191.252 426.877 215.514 422.48 228.792C439.162 228.792 442.414 223.481 451.025 216.721C451.387 216.721 451.868 216.721 452.049 217.445L455.301 220.644C457.395 223.29 460.033 225.453 463.037 226.984C466.04 228.515 469.338 229.379 472.705 229.516L473.367 204.409C483.003 197.106 494.204 198.374 496.553 182.26C467.586 181.716 447.773 179.001 435.067 160.472C428.41 151.166 425.694 139.599 427.51 128.294C429.327 116.99 435.528 106.862 444.762 100.12C464.154 85.2124 495.71 97.8261 498.962 118.889C500.949 132.408 492.939 144.539 479.51 143.03C476.725 142.858 474.086 141.722 472.044 139.817C470.002 137.911 468.683 135.354 468.313 132.582C467.944 129.81 468.546 126.996 470.017 124.619C471.488 122.243 473.736 120.452 476.379 119.553L479.932 117.803C478.245 115.389 479.45 116.475 476.559 115.328C444.341 113.88 444.461 135.848 450.845 147.617C463.551 171.215 522.809 165.723 519.678 117.441C518.413 97.2226 502.756 89.8596 493.722 79.841C512.752 81.0481 527.627 86.8419 548.825 85.8763C566.169 85.0917 584.958 77.6683 587.547 64.451C567.855 68.2533 565.085 70.4863 543.887 65.477C500.828 55.6999 464.696 46.8884 428.201 93.1186C425.672 62.9422 442.835 52.6823 466.502 44.4743L475.114 40.2496C459.456 32.7658 437.897 39.7064 422.902 43.9915L419.349 39.1029C416.639 35.5421 418.867 37.4734 415.013 35.4214C408.991 38.7408 412.484 38.1976 407.184 43.9915C392.791 39.5857 370.389 32.6451 354.912 40.2496C364.728 49.3025 404.956 47.1298 401.885 93.1186C366.294 49.906 335.28 53.5876 289.813 64.6321C265.724 70.6674 265.724 68.0722 242.66 64.6321C253.74 98.4297 317.274 81.1688 336.364 79.5392C327.271 89.9803 311.673 96.438 310.348 117.199C307.157 165.482 366.475 171.155 379.181 147.376C386.047 134.641 385.203 114.182 353.407 115.027V115.57ZM822.049 510.458L823.615 514.14L826.084 509.975C825.301 483.963 828.914 483.058 820.363 458.374C826.084 454.149 826.385 457.589 829.035 450.528C826.024 446.001 826.264 446.303 820.363 444.492C823.615 431.155 832.407 403.815 824.217 389.451C812.835 405.022 819.459 437.069 772.005 437.733C776.461 431.094 784.953 428.197 796.094 409.548C803.829 397.262 807.941 383.035 807.957 368.508C807.095 353.297 804.426 338.244 800.008 323.666C794.468 300.43 796.876 300.491 800.008 277.979C785.314 282.807 779.593 299.767 779.051 317.993C778.449 339.117 783.688 352.636 785.073 371.647C774.775 363.258 768.271 347.143 747.435 345.876C739.1 344.793 730.642 346.51 723.385 350.759C716.128 355.007 710.481 361.546 707.327 369.353C699.98 387.459 704.738 409.246 719.07 415.704C731.777 421.739 752.072 418.058 749.181 389.089L747.856 385.769L745.387 389.511C744.261 391.981 742.359 394.013 739.971 395.297C737.584 396.582 734.842 397.047 732.166 396.623C729.49 396.199 727.026 394.908 725.15 392.948C723.275 390.988 722.091 388.467 721.781 385.769C720.576 372.371 731.958 364.585 745.869 366.517C767.127 369.595 779.232 400.797 764.778 420.834C744.845 448.174 702.57 445.337 687.635 408.039C681.613 392.891 684.323 384.924 682.817 369.051C666.979 372.371 668.786 382.208 660.776 392.71L636.206 392.348C636.078 395.587 636.677 398.815 637.959 401.792C639.241 404.769 641.173 407.419 643.613 409.548L648.732 414.376C641.807 425.481 637.41 423.671 636.688 443.406C648.431 439.544 653.67 433.267 670.231 436.405C679.89 438.189 688.648 443.237 695.042 450.709C688.721 458.737 679.553 464.012 669.448 465.435C653.309 468.211 647.648 462.538 636.507 458.193C635.885 463.65 636.665 469.176 638.773 474.246C640.881 479.316 644.247 483.762 648.551 487.162C642.529 493.197 635.905 497.18 634.881 508.768C643.261 509.934 651.745 510.157 660.174 509.432C666.738 517.821 665.534 529.53 682.697 532.789C680.71 453.364 737.257 453.968 758.576 474.971C762.44 478.385 765.519 482.599 767.602 487.321C769.686 492.043 770.723 497.162 770.643 502.324C770.563 507.486 769.367 512.57 767.138 517.225C764.91 521.88 761.701 525.995 757.733 529.288C739.666 544.98 708.351 527.478 727.622 505.751C741.473 504 740.931 506.233 746.953 514.683C757.913 500.439 740.931 478.471 721.479 484.868C692.573 494.465 696.789 557.292 745.568 555.904C765.622 555.421 776.461 538.945 784.772 529.65C784.23 543.35 765.682 616.196 800.249 623.68C796.335 604.065 794.227 600.987 799.225 580.286C809.162 540.816 815.907 504.121 780.376 472.315C775.859 468.332 775.799 469.177 773.149 463.926C790.312 464.288 801.092 467.426 808.379 477.385C815.111 487.352 819.761 498.582 822.049 510.398V510.458ZM414.411 895.81C474.086 896.436 533.341 885.747 589.053 864.306C643.054 842.81 692.201 810.671 733.584 769.794C775.582 729.478 808.692 680.795 830.781 626.879C852.875 570.796 863.859 510.939 863.12 450.648C863.834 390.598 852.786 330.99 830.601 275.203C808.357 221.231 775.107 172.511 732.982 132.167C691.591 91.1644 642.456 58.8486 588.451 37.1112C475.955 -4.97616 352.084 -4.97616 239.588 37.1112C185.702 58.639 136.707 90.8468 95.5388 131.805C53.6975 172.13 20.7512 220.794 -1.17664 274.66C-23.2013 330.758 -34.1434 390.61 -33.3951 450.89C-34.1621 511.39 -23.2844 571.471 -1.3573 627.844C20.4049 681.692 53.2349 730.345 94.9968 770.639C180.431 854.087 286.902 895.81 414.411 895.81ZM101.742 763.336C185.329 845.054 289.552 885.933 414.411 885.973C472.952 886.639 531.089 876.174 585.74 855.133C638.526 834.181 686.6 802.869 727.14 763.034C768.146 723.659 800.457 676.104 821.989 623.438C843.667 568.562 854.428 509.966 853.665 450.95C854.386 392.162 843.583 333.803 821.868 279.186C800.137 226.492 767.667 178.925 726.538 139.53C686.031 99.4313 637.963 67.8156 585.138 46.5263C474.97 5.32458 353.671 5.32458 243.503 46.5263C190.799 67.5323 142.853 98.9565 102.525 138.926C61.6953 178.34 29.5325 225.867 8.09741 278.462C-13.422 333.4 -24.1176 391.996 -23.3983 451.011C-24.208 510.221 -13.6164 569.032 7.79637 624.223C28.9737 676.784 60.9871 724.272 101.742 763.578V763.336Z" fill="white"/>
<rect x="4" y="169" width="392" height="186" fill="url(#paint0_linear_114_1125)"/>
</g>
</g>
<defs>
<linearGradient id="paint0_linear_114_1125" x1="200" y1="208" x2="200" y2="355" gradientUnits="userSpaceOnUse">
<stop stop-color="#D9D9D9" stop-opacity="0"/>
<stop offset="1" stop-opacity="0.41"/>
</linearGradient>
<clipPath id="clip0_114_1125">
<rect width="395" height="295" fill="white"/>
</clipPath>
<clipPath id="clip1_114_1125">
<rect x="-25" y="15" width="883" height="877" rx="438.5" fill="white"/>
</clipPath>
</defs>
</svg>
