<svg width="394" height="391" viewBox="0 0 394 391" fill="none" xmlns="http://www.w3.org/2000/svg">
<g clip-path="url(#clip0_51_359)">
<g style="mix-blend-mode:multiply" opacity="0.5">
<path fill-rule="evenodd" clip-rule="evenodd" d="M196.014 448.021C123.229 448.021 62.4556 424.19 13.6935 376.527C-35.0686 328.865 -59.4497 268.135 -59.4497 194.336C-59.4497 120.986 -34.9522 60.3725 14.0428 12.495C63.0379 -35.3825 123.695 -59.3303 196.014 -59.3482C267.85 -59.3482 328.498 -35.2839 377.959 12.8448C427.419 60.9734 452.194 121.471 452.284 194.336C452.284 267.686 427.67 328.309 378.442 376.204C329.214 424.1 268.45 448.039 196.148 448.021H196.014ZM185.722 121.551C177.876 117.865 175.135 114.071 164.226 117.031C154.444 119.722 154.283 123.731 150.038 130.888C147.097 129.973 143.949 129.973 141.009 130.888C138.326 131.73 135.994 133.432 134.372 135.732C140.122 135.732 143.32 135.732 145.12 139.956L143.078 140.817C142.164 141.032 141.036 141.14 140.149 141.355C119.136 146.145 118.222 181.932 140.901 179.995C151.489 179.107 150.333 170.873 147.485 164.254C145.98 165.491 147.297 164.038 146.141 165.572C145.523 166.406 146.007 165.976 145.335 166.917C145.035 167.472 144.599 167.941 144.068 168.28C143.536 168.619 142.928 168.817 142.299 168.855C132.034 170.335 134.479 156.666 140.955 153.41C146.141 150.719 151.945 154.136 154.391 156.72C158.26 160.863 158.072 164.281 158.851 171.25L167.235 169.635L166.59 177.707C175.485 177.385 185.4 177.707 187.603 188.47C180.644 187.017 174.732 183.6 166.107 183.869C150.978 184.354 142.89 196.731 126.042 182.201C123.892 180.344 116.825 170.55 116.744 166.46C115.24 175.905 116.019 182.605 120.264 188.39C118.403 188.644 116.616 189.291 115.022 190.288C113.429 191.286 112.065 192.61 111.021 194.175C113.305 199.26 116.395 197.807 120.211 200.498C118.35 203.313 117.077 206.475 116.467 209.795C115.858 213.115 115.925 216.524 116.664 219.818C118.061 218.688 116.986 220.248 118.383 217.961C121.527 212.822 122.495 209.62 127.573 205.341C142.863 192.507 152.187 204.265 166.241 204.642C175.404 204.884 180.16 201.413 187.577 200.256C187.085 202.151 186.224 203.93 185.044 205.491C183.863 207.052 182.386 208.364 180.698 209.351C176.425 211.719 171.884 211.019 166.698 210.911L167.289 218.822L158.771 217.396C158.771 224.446 157.938 228.159 154.041 231.872C143.508 241.99 131.631 230.931 136.145 222.401C136.603 221.632 137.234 220.982 137.989 220.503C138.743 220.024 139.6 219.729 140.489 219.643C141.378 219.556 142.276 219.68 143.108 220.005C143.941 220.33 144.685 220.847 145.281 221.513C145.953 222.428 145.281 221.89 145.98 222.804L147.297 224.473C157.024 204.965 131.174 203.539 125.585 218.149C123.553 223.034 123.388 228.497 125.123 233.495C126.858 238.493 130.37 242.676 134.99 245.245C138.94 247.371 141.6 246.86 145.147 248.313C143.454 252.295 140.364 252.833 134.855 252.914C137.543 257.811 143.884 259.399 150.091 257.623C152.349 261.363 151.569 262.52 154.928 265.991C157.263 268.574 160.282 270.44 163.634 271.373C176.318 275.409 179.273 269.086 185.911 267.337C190.022 271.722 189.108 273.983 188.84 280.575C191.6 278.544 193.514 275.564 194.214 272.207C195.369 266.153 193.327 264.135 191.365 260.26C193.139 254.233 195.772 251.676 193.569 243.416C193.086 240.824 191.897 238.417 190.133 236.461C188.368 234.504 186.098 233.074 183.573 232.33C168.767 228.428 160.732 246.887 172.072 252.537C171.911 247.156 172.502 242.205 178.79 243.389C183.008 244.196 184.889 249.12 183.062 253.937C182.28 255.967 180.945 257.738 179.209 259.048C177.473 260.357 175.405 261.154 173.24 261.347C171.075 261.541 168.899 261.123 166.959 260.141C165.019 259.159 163.393 257.653 162.264 255.793C154.552 242.985 163.93 221.432 189.646 222.616C189.269 215.109 191.043 208.624 196.417 206.229C201.791 208.624 203.619 215.136 203.189 222.643C213.077 222.186 220.44 224.365 225.734 229.531C231.995 235.639 238.282 253.748 226.19 259.802C224.29 260.768 222.182 261.254 220.05 261.216C217.919 261.179 215.83 260.619 213.964 259.587C207.945 255.551 205.903 241.451 218.075 243.631C220.897 246.322 220.977 247.183 220.762 252.537C231.672 247.156 224.874 229.02 209.853 232.195C207.271 232.82 204.918 234.161 203.065 236.065C201.211 237.969 199.931 240.358 199.373 242.958C196.901 251.192 199.534 254.179 201.415 260.367C201.254 262.116 192.843 272.799 203.941 280.602C203.941 273.848 202.732 272.099 206.924 267.444C210.739 268.467 224.336 279.391 237.611 266.475C241.184 262.977 240.298 261.686 242.743 257.731C248.117 259.13 254.916 258.349 258.221 253.102C252.685 252.78 249.541 252.806 247.714 248.42C254.432 245.73 259.887 246.698 264.67 239.433C271.871 228.67 269.453 206.095 251.234 208.759C242.931 209.97 240.244 220.221 246.344 224.446C247.526 221.755 247.607 220.248 250.697 219.764C264.804 217.584 254.781 247.613 238.874 231.98C235.085 228.24 234.037 224.553 234.198 217.611L225.734 218.957L226.405 211.342C219.123 209.97 208.67 213.279 205.312 200.337C212.62 201.548 217.78 204.965 226.808 204.75C236.804 204.507 263.864 186.399 276.278 222.078C277.353 213.36 277.326 206.929 272.866 200.552C276.117 198.238 279.745 199.26 281.948 194.229C280.907 192.663 279.539 191.342 277.938 190.357C276.338 189.372 274.543 188.747 272.677 188.524C275.53 184.167 276.983 179.041 276.842 173.833C276.842 173.16 276.842 171.572 276.842 170.954L275.875 167.994C261.956 202.274 238.605 184.138 226.889 183.977C218.693 183.789 212.432 187.098 205.392 188.578C207.757 177.815 217.43 177.385 226.378 177.815L225.734 169.958L234.305 171.411C233.929 162.908 238.148 151.93 248.574 152.576C258.275 153.222 262.52 170.146 249.971 168.882C247.284 167.375 247.822 167.052 246.451 164.281C245.114 165.374 244.123 166.834 243.6 168.482C243.077 170.13 243.044 171.894 243.505 173.56C243.967 175.227 244.903 176.722 246.199 177.865C247.495 179.007 249.095 179.747 250.804 179.995C254.279 180.788 257.924 180.244 261.016 178.469C264.108 176.694 266.42 173.819 267.491 170.415C268.655 167.613 269.207 164.594 269.112 161.56C269.016 158.526 268.274 155.548 266.936 152.825C265.598 150.102 263.694 147.696 261.352 145.769C259.01 143.842 256.285 142.438 253.357 141.651L247.983 140.118C249.891 136.001 252.847 135.812 258.731 135.866C255.426 130.323 248.413 130 243.039 131.023C240.996 127.417 241.023 125.372 238.229 122.439C235.693 120.025 232.629 118.238 229.281 117.219C225.627 115.984 221.713 115.737 217.934 116.502C214.154 117.268 210.644 119.019 207.757 121.578C202.571 117.946 204.452 114.851 203.941 108.124C192.36 119.506 201.684 124.807 201.469 128.843C199.024 134.225 197.277 139.149 199.534 146.145C200.183 148.704 201.533 151.03 203.432 152.86C205.332 154.691 207.705 155.953 210.283 156.504C225.68 159.787 231.457 140.79 220.655 136.028C221.354 140.629 221.461 142.835 217.618 145.122C206.225 146.602 207.972 133.041 214.26 128.978C228.233 119.937 242.152 143.104 226.11 159.087C221.139 164.011 213.239 166.433 203.484 166.03C203.484 174.236 202.302 179.483 196.552 182.443C190.855 179.564 189.699 174.156 189.646 165.976C179.891 166.46 172.045 164.065 167.047 159.087C160.867 152.926 154.928 134.871 167.047 128.736C168.899 127.8 170.951 127.331 173.026 127.368C175.1 127.406 177.134 127.949 178.951 128.951C185.508 133.444 187.2 146.871 174.732 145.095C172.045 141.84 171.561 141.006 172.556 136.108C161.565 141.49 167.773 159.733 182.874 156.639C185.452 156.077 187.822 154.808 189.721 152.973C191.619 151.139 192.97 148.812 193.623 146.252C196.552 137.212 192.924 134.44 191.742 128.251C197.116 119.291 195.289 114.232 189.216 108.205C188.786 117.246 190.64 115.067 186.072 121.659L185.722 121.551ZM311.667 239.945L311.291 239.541L310.888 239.137L310.055 238.492C297.479 229.047 305.89 231.576 290.197 228.321C290.197 234.429 291.89 237.846 292.186 242.339H282.996L285.092 253.318L275.257 252.699L276.413 264.404L266.201 264.188V274.575L254.539 273.525L255.292 283.508L244.328 281.355V290.208C239.277 289.508 235.783 287.759 230.221 288.405C233.204 298.307 231.403 298.28 234.279 300.944C240.217 306.326 239.653 307.617 241.856 309.985C243.497 304.295 246.805 299.228 251.352 295.441C255.899 291.653 261.476 289.318 267.362 288.739C273.248 288.159 279.173 289.361 284.37 292.19C289.566 295.018 293.796 299.342 296.512 304.603C298.402 308.359 299.387 312.506 299.387 316.712C299.387 320.917 298.402 325.065 296.512 328.82C288.693 343.001 267.276 346.364 257.791 332.13C256.588 330.488 255.727 328.62 255.259 326.638C254.791 324.656 254.726 322.6 255.067 320.592C255.408 318.584 256.148 316.666 257.244 314.95C258.339 313.234 259.768 311.756 261.445 310.604C269.13 305.034 279.906 309.043 278.643 318.461C277.514 321.717 272.812 322.82 271.629 318.326C271.407 317.055 271.281 315.769 271.253 314.479C269.422 314.768 267.716 315.59 266.348 316.843C264.979 318.095 264.008 319.723 263.556 321.523C263.104 323.323 263.19 325.217 263.803 326.969C264.417 328.721 265.531 330.254 267.008 331.377C269.97 333.66 273.707 334.691 277.419 334.248C281.131 333.806 284.522 331.925 286.865 329.009C297.453 314.613 288.316 298.549 270.743 298.226C253.169 297.903 243.872 310.496 246.774 328.444C247.246 331.841 248.399 335.108 250.163 338.049C251.927 340.989 254.265 343.543 257.038 345.557C264.213 351.1 268.969 349.997 278.535 351.638C280.04 357.019 278.186 358.284 282.754 361.244C286.167 357.638 284.608 354.436 290.412 350.077C303.069 340.552 308.927 339.314 310.216 314.209C314.193 319.591 314.65 325.968 315.134 333.96C319.003 332.426 320.159 330.515 321.153 325.887C324.861 327.152 326.017 328.309 330.719 328.228L327.736 319.376C332.412 318.326 334.669 316.685 336.04 313.079C327.414 312.783 322.147 312.138 315.994 308.29C343.026 306.164 340.849 302.532 352.162 288.19C356.112 283.212 358.799 283.723 361.836 281.678C362.803 281.059 362.454 281.194 363.018 280.575C360.68 276.862 358.638 277.4 353.398 276.62C352.082 261.444 348.723 247.479 329.725 244.734C295.142 239.729 293.959 280.01 310.297 287.544C313.792 288.979 317.608 289.449 321.347 288.904C325.085 288.36 328.609 286.822 331.552 284.45C334.293 281.988 335.976 278.558 336.246 274.881C336.517 271.203 335.355 267.564 333.003 264.726C331.833 263.336 330.288 262.313 328.553 261.778C326.818 261.243 324.965 261.22 323.217 261.711C321.469 262.202 319.899 263.186 318.694 264.546C317.49 265.906 316.701 267.585 316.424 269.381C320.266 269.57 321.126 269.651 323.141 271.696C323.733 281.732 307.744 276.862 310.297 264.592C310.805 262.574 311.711 260.678 312.963 259.016C314.214 257.354 315.786 255.961 317.584 254.917C319.383 253.874 321.372 253.202 323.434 252.941C325.496 252.68 327.589 252.836 329.59 253.398C333.346 254.793 336.631 257.224 339.066 260.409C341.5 263.595 342.985 267.405 343.348 271.4C344.826 288.755 328.059 302.747 308.577 295.616C285.871 287.14 283.13 249.335 311.694 240.052L311.667 239.945ZM278.374 37.0616C261.123 37.3038 249.192 44.8917 246.774 60.3366C241.346 94.8321 281.061 96.7156 289.338 80.5711C290.803 77.124 291.326 73.3486 290.854 69.6321C290.382 65.9155 288.931 62.3917 286.65 59.4218C282.835 54.6053 273.887 51.3495 267.196 57.0808C260.505 62.8121 262.601 73.0101 271.334 73.9519C271.334 69.9157 271.468 69.1892 273.779 67.2788C282.566 67.2788 278.777 77.7996 272.543 80.0061C264.831 82.6968 258.463 76.1045 256.42 71.5302C249.998 57.8611 264.858 45.1877 279.234 47.3134C282.533 47.8333 285.689 49.0319 288.503 50.8335C291.316 52.6352 293.727 55.0009 295.582 57.7815C297.438 60.5621 298.698 63.6975 299.283 66.9899C299.869 70.2824 299.767 73.6606 298.984 76.9117C293.234 107.021 249.004 106.752 242.152 78.7145C241.676 79.0359 241.258 79.4363 240.916 79.8984C237.772 83.7731 238.229 84.8494 232.451 89.6121C232.451 94.9936 231.484 95.7739 230.436 100.375C235.147 100.125 239.824 99.4408 244.409 98.3301V107.479L255.372 105.245L254.513 115.147L266.416 114.071V124.377L276.466 124.215L275.499 136.135L285.522 135.22L282.996 146.037L292.132 146.226C291.38 151.284 289.848 154.513 290.278 160.325C293.7 158.971 297.347 158.277 301.026 158.28C306.266 151.634 309.76 151.015 311.587 148.432C284.071 141.867 283.748 98.357 312.259 91.9261C328.381 88.2398 340.903 98.2494 342.999 111.353C345.364 126.099 332.385 140.602 318.681 134.279C314.193 132.207 307.61 125.265 310.378 118.134C313.575 109.658 325.506 110.465 322.711 116.977C321.314 119.668 320.32 119.237 316.451 119.399C317.176 127.31 326.608 129.866 332.305 124.78C344.343 113.721 327.871 93.702 310.808 101.128C305.057 103.631 300.838 110.143 300.193 118.591C298.823 136.404 311.211 146.764 329.376 144.288C345.149 142.136 353.13 129.866 353.156 112.537C359.014 111.273 360.062 112.241 363.072 108.071C359.632 105.057 356.435 106.133 352.162 101.021C342.919 89.9618 344.101 81.9434 316.155 80.6788C316.62 80.1196 317.209 79.6773 317.875 79.3872L324.619 76.9117C328.243 76.1001 331.95 75.7208 335.663 75.7816C334.185 71.7185 331.821 70.7499 327.602 69.5121C329.021 66.7482 329.879 63.7304 330.128 60.6326C326.979 60.7348 323.912 61.6626 321.234 63.3234C320.078 58.5069 318.869 56.8387 315.161 54.8744C314.328 63.5924 314.22 68.3282 310.243 74.9474C308.9 60.9824 309.222 55.3856 300.946 47.0174C295.921 41.9319 295.437 42.9005 290.52 39.1873C287.788 37.149 285.728 34.3372 284.608 31.115C284.608 30.9536 284.017 29.662 283.99 29.6082C283.023 27.7516 283.292 28.4781 282.7 27.8592C278.723 29.9849 279.449 32.4604 278.347 37.6266L278.374 37.0616ZM100.514 242.286C100.81 237.953 102.368 234.348 102.503 228.347C83.6928 233.191 96.4028 227.836 86.7024 235.559L81.0325 240.025C109.838 249.874 106.909 287.14 83.7197 295.778C79.7238 297.425 75.3791 298.042 71.0835 297.572C66.7879 297.102 62.6788 295.56 59.1326 293.087C55.7403 290.55 53.0683 287.17 51.3811 283.281C49.6939 279.392 49.0499 275.13 49.5127 270.915C51.8505 249.927 78.7216 247.156 82.5105 264.78C85.0095 276.458 69.9885 282.055 69.5586 272.368C71.4665 269.677 71.9501 269.839 76.3839 269.677C76.0972 267.836 75.2758 266.12 74.022 264.742C72.7682 263.365 71.1374 262.387 69.3327 261.931C67.5281 261.475 65.6293 261.56 63.8729 262.177C62.1165 262.794 60.5801 263.914 59.455 265.399C57.1538 268.297 56.091 271.99 56.4988 275.67C56.9066 279.35 58.7518 282.719 61.6316 285.042C75.9002 295.293 91.7004 287.732 92.5334 269.651C93.3664 251.569 80.6295 242.205 62.3571 245.138C43.3324 248.178 40.8602 262.951 39.3823 276.943C33.82 277.777 32.3152 277.158 29.8162 280.871C31.9659 283.562 37.0176 283.562 40.9408 288.943C51.4743 303.15 52.173 307.133 76.8407 308.64C70.6603 312.514 65.3936 313.133 56.7679 313.429C57.4177 315.154 58.5428 316.658 60.0126 317.768C61.4824 318.878 63.2365 319.547 65.0711 319.699C63.6758 322.512 62.7672 325.541 62.384 328.659C65.5495 328.556 68.6336 327.629 71.3321 325.968C72.7025 330.785 73.5893 332.695 77.6199 334.336C78.0499 326.802 78.6141 319.51 82.5373 314.586C83.1822 327.609 84.7139 335.601 91.8616 342.624C95.2718 345.538 98.8618 348.234 102.61 350.696C107.662 354.571 106.721 358.15 109.865 361.459C114.433 358.311 112.552 357.477 114.084 351.88C123.892 350.05 128.406 351.423 135.877 345.476C153.235 331.672 150.038 297.338 121.071 298.495C103.524 299.195 95.2743 315.851 105.996 329.627C108.333 332.318 111.586 334.042 115.122 334.465C118.658 334.888 122.224 333.979 125.128 331.915C126.663 330.88 127.859 329.416 128.567 327.704C129.274 325.992 129.462 324.109 129.106 322.291C128.751 320.473 127.867 318.801 126.567 317.483C125.267 316.165 123.607 315.26 121.796 314.882C121.796 315.071 121.608 315.313 121.554 315.474C121.5 315.636 121.393 315.851 121.366 316.039L120.882 318.542C120.076 321.367 120.882 319.806 119.082 321.017C110.537 324.461 112.149 305.949 125.746 308.478C129.771 309.449 133.249 311.974 135.424 315.502C137.598 319.03 138.292 323.275 137.354 327.313C136.115 331.063 133.848 334.389 130.812 336.91C127.776 339.432 124.093 341.048 120.184 341.574C91.0286 345.557 82.2149 302.209 110.591 291.392C126.713 285.203 143.992 291.392 150.709 310.227C152.134 308.774 152.778 307.16 154.203 305.545C164.736 293.41 156.89 305.949 162.264 288.62C156.567 288.028 153.316 289.751 148.157 290.45V281.328L137.166 283.669L137.946 273.633L126.176 274.817V264.43H115.884L117.067 252.699L107.044 253.398L109.355 242.474L100.272 242.312L100.514 242.286ZM82.4299 74.4362C78.3186 67.5209 78.4261 63.2965 77.4856 54.3901C75.8293 55.1371 74.3999 56.3097 73.3427 57.789C72.2855 59.2682 71.6382 61.0013 71.4664 62.8121C68.766 61.1561 65.6831 60.2291 62.5183 60.1214C62.8427 63.2252 63.7546 66.2388 65.2055 69.0009C60.9867 70.2655 58.4877 71.2342 57.1441 75.2703C63.2707 75.4587 72.2188 76.1852 76.6794 80.1944C52.0924 81.0555 50.6413 87.0827 41.2633 99.7293C37.367 104.949 34.1424 104.035 29.8699 107.559C32.4227 111.784 34.5186 110.923 39.651 111.999C39.651 129.328 47.7124 141.759 63.3245 143.777C81.5162 146.118 93.9844 136.216 92.614 118.08C91.9691 109.82 87.9922 103.469 82.4567 100.832C78.9522 99.3628 75.107 98.904 71.3556 99.5078C67.6043 100.112 64.0965 101.754 61.2285 104.25C56.123 108.77 54.3495 118.188 60.1268 123.919C65.501 129.166 75.3896 127.175 76.4107 119.022C72.4875 118.861 71.4664 119.21 70.096 116.573C66.764 108.851 84.069 109.685 82.8867 122.332C81.2206 139.822 53.3284 140.71 49.8083 118.78C45.1059 89.5851 87.6966 79.3603 99.6811 108.205C101.255 111.816 102.097 115.704 102.158 119.644C102.219 123.584 101.496 127.496 100.034 131.154C98.5712 134.812 96.3971 138.142 93.638 140.951C90.8788 143.76 87.5896 145.992 83.9615 147.517L81.2744 149.132C85.4163 151.353 89.0283 154.446 91.8616 158.199C95.5413 158.167 99.1922 158.852 102.61 160.218C102.906 154.163 101.535 151.419 100.756 146.064H109.865L107.474 135.167L117.55 135.974L116.395 124.027H126.66L126.498 113.829L138.376 114.932L137.516 105.057L148.452 107.183V98.0341C153.055 99.046 157.725 99.7205 162.425 100.052C161.216 95.3434 160.383 94.6707 160.437 89.2892L150.709 78.3647C144.368 104.788 104.464 107.479 94.8981 81.2169C93.348 77.129 92.8289 72.7213 93.3866 68.3845C93.9444 64.0477 95.5619 59.9155 98.0957 56.3543C109.758 41.2323 132.786 45.5913 137.381 61.1439C138.347 65.1662 137.7 69.4071 135.581 72.958C133.461 76.5089 130.037 79.0872 126.042 80.1406C114.353 82.5623 108.952 66.9828 118.813 67.1981C121.124 69.1354 121.178 69.7274 121.286 73.8442C123.037 73.6654 124.701 72.9863 126.078 71.8878C127.456 70.7894 128.489 69.3178 129.055 67.6481C129.621 65.9785 129.697 64.1811 129.272 62.4699C128.847 60.7587 127.941 59.2057 126.66 57.9957C125.377 56.6961 123.847 55.6678 122.16 54.9718C120.473 54.2757 118.663 53.9261 116.839 53.9437C115.014 53.9612 113.212 54.3456 111.539 55.074C109.865 55.8024 108.355 56.86 107.098 58.184C97.9614 67.79 99.0362 88.0783 119.915 90.0157C138.537 91.7647 148.425 79.2526 146.061 60.4173C145.67 56.9701 144.57 53.6413 142.831 50.6405C141.092 47.6396 138.752 45.0318 135.957 42.9813C127.896 37.1423 124.349 38.5415 114.111 36.7387C113.681 31.3572 113.735 29.0431 110.107 27.2134C108.656 28.7471 109.247 27.9399 108.414 29.9042C107.425 33.2157 105.423 36.1331 102.691 38.2455C89.0939 49.0085 85.2513 45.4298 82.5642 74.3286L82.4299 74.4362ZM196.337 319.295C188.517 313.913 188.141 301.697 193.273 293.41C185.857 292.468 183.304 296.101 180.187 298.657C177.5 296.504 175.404 292.899 170.272 292.791V304.523C164.897 307.052 161.297 307.59 160.061 314.075C195.504 312.218 197.304 341.628 181.934 351.18C172.448 357.073 158.341 350.373 158.824 339.664C159.362 328.336 174.007 329.17 172.26 338.023C171.723 340.713 169.842 340.848 168.068 343.404C191.903 346.741 182.498 315.259 160.007 324.919C156.438 326.506 153.504 329.245 151.673 332.699C149.842 336.152 149.218 340.12 149.903 343.969C150.817 351.342 157.723 356.508 161.942 359.872C151.811 358.742 125.128 351.127 119.297 366.437C128.863 365.038 130.045 363.585 140.391 366.437C157.4 370.984 171.078 372.733 185.293 359.549C186.976 357.591 188.77 355.731 190.667 353.979C190.667 362.293 188.759 366.868 184.164 370.446C179.569 374.025 173.174 374.59 168.659 377.469C178.494 380.16 184.54 378.196 192.843 375.639C194.751 377.684 193.434 377.846 196.337 379.38C198.137 378.438 196.928 379.38 198.406 377.711L199.857 375.639C213.48 379.649 210.095 379.676 224.041 377.335C210.954 371.415 202.114 372.115 202.006 353.952C204.989 355.943 206.252 359.899 214.743 364.903C227.668 372.545 238.927 370.016 252.9 366.276C262.628 363.585 264.562 365.199 273.43 366.518C267.76 351.396 241.184 358.715 230.812 359.979C250.482 345.987 243.173 329.062 232.236 324.811C209.262 315.851 201.711 347.36 224.605 343.485L223.476 342.113L223.073 341.763C217.377 336.381 221.73 332.48 223.96 331.753C229.684 329.897 233.687 335.036 233.849 339.825C234.252 350.373 220.413 357.315 210.739 351.261C208.516 349.948 206.586 348.191 205.07 346.099C203.553 344.007 202.483 341.625 201.926 339.101C201.369 336.577 201.337 333.965 201.832 331.428C202.326 328.891 203.337 326.483 204.801 324.354C211.411 314.801 218.801 314.613 232.747 313.914C231.403 307.429 227.615 307.025 222.375 304.523C222.025 300.11 222.939 297.715 221.972 292.791C217.35 292.791 214.878 296.531 212.379 298.657C209.692 296.558 210.283 295.966 207.004 294.513C204.641 293.378 201.991 292.984 199.4 293.383C204.989 303.016 203.941 314.048 196.31 319.295H196.337ZM37.0983 188.551C25.5168 188.309 20.6531 184.676 17.0793 175.366C16.5687 174.048 16.1119 172.837 15.5745 171.25L13.7473 167.348C9.9853 174.398 13.9622 184.703 15.4939 191.565C12.6187 192.453 12.35 192.372 11.5707 195.224C12.8605 196.301 13.9622 196.731 15.3326 197.754C13.9622 204.158 9.95843 214.974 13.7473 221.97C19.4977 212.418 16.2463 200.929 36.6146 200.148C35.5397 202.301 36.937 200.417 35.2173 202.328C29.2787 208.947 20.7875 214.463 21.1637 232.168C21.7112 238.865 22.9631 245.485 24.8988 251.918C27.2097 261.551 26.1886 262.681 24.4688 271.426C39.8122 267.713 31.7509 236.447 31.3479 229.478C35.271 233.756 39.7854 240.241 47.4705 241.155C51.2281 241.685 55.0555 240.976 58.3757 239.137C61.6959 237.297 64.3288 234.426 65.8772 230.957C75.7658 207.333 43.0099 199.745 47.578 222.885C50.9638 220.948 48.3035 217.719 56.6605 218.849C60.2074 222.724 60.9061 226.383 56.6605 230.043C46.3957 238.68 28.0158 219.091 43.2249 204.723C46.6037 201.54 51.0487 199.736 55.6873 199.666C60.3259 199.597 64.823 201.266 68.2957 204.346C75.1209 209.996 77.2169 218.93 76.76 230.984C82.3492 229.854 84.6333 226.06 86.2187 220.464C90.1639 220.849 94.1402 220.777 98.0688 220.248C97.5314 215.217 94.6294 213.279 91.9691 210.615C93.928 209.124 95.4692 207.151 96.4437 204.889C97.4181 202.626 97.7928 200.15 97.5314 197.7C92.5603 199.718 89.8732 202.086 82.8867 200.929C80.6525 200.623 78.5007 199.879 76.5547 198.738C74.6087 197.598 72.9069 196.084 71.547 194.282C74.3685 190.904 78.306 188.651 82.6448 187.932C90.1687 186.56 92.2916 189.305 97.612 191.027C97.3702 184.192 96.7522 183.654 93.447 179.86C92.8998 179.363 92.4607 178.759 92.1572 178.084L92.9096 177.277C94.9518 175.366 98.2838 172.676 97.7733 168.559L86.8367 168.128C83.2629 163.635 84.1496 159.222 77.0288 157.769C76.357 165.088 77.8886 178.353 66.979 185.538C62.8454 188.435 57.7319 189.569 52.7632 188.691C47.7944 187.813 43.3775 184.995 40.484 180.856C33.9006 171.761 39.4629 157.634 49.5933 156.639C61.2017 155.536 63.0289 170.308 53.8658 170.093C50.7757 170.093 49.7546 168.101 48.2229 166.003C48.2229 166.003 47.9542 166.164 47.9273 166.406C47.4495 167.157 47.1292 167.998 46.986 168.877C46.8428 169.756 46.8797 170.654 47.0943 171.519C48.7066 186.264 73.9654 180.21 66.334 158.442C65.0011 154.969 62.5828 152.022 59.4399 150.038C56.297 148.055 52.598 147.142 48.8947 147.436C39.1673 147.679 36.0234 155.132 31.3747 158.98C31.939 150.558 34.3574 144.477 34.0618 135.032C33.7931 126.96 31.106 119.345 24.6838 117.219C26.0273 127.202 27.3709 127.014 24.6838 137.588C21.3518 151.365 18.1272 162.37 26.2423 175.985C30.8641 183.708 35.0829 185.618 36.9908 188.524L37.0983 188.551ZM106.48 203.297C111.558 250.089 152.456 289.616 205.07 284.369C217.015 283.368 228.643 279.996 239.275 274.451C249.907 268.906 259.331 261.298 266.998 252.071C274.665 242.843 280.422 232.181 283.934 220.703C287.446 209.226 288.642 197.164 287.453 185.22C286.264 173.275 282.714 161.687 277.009 151.129C271.304 140.572 263.558 131.257 254.223 123.726C244.888 116.196 234.15 110.6 222.634 107.266C211.118 103.931 199.055 102.924 187.147 104.304C141.143 109.093 100.702 150.504 106.533 203.297H106.48ZM185.696 100.241C104.518 110.465 71.762 209.727 134.936 266.233C144.681 274.586 156.023 280.862 168.271 284.678C180.518 288.495 193.414 289.772 206.171 288.432C254.539 283.616 296.861 239.03 290.278 183.681C288.615 169.055 283.578 155.016 275.566 142.674C267.554 130.332 256.787 120.024 244.113 112.564C226.458 102.307 205.983 97.9877 185.696 100.241ZM168.847 44.8379C166.16 45.2146 168.229 44.8379 167.477 45.7796L168.874 46.7483C169.988 47.1328 170.945 47.8732 171.597 48.8554C172.25 49.8377 172.562 51.0074 172.486 52.1847C172.409 53.3619 171.949 54.4814 171.175 55.3709C170.401 56.2605 169.357 56.8707 168.202 57.1077C162.156 58.3724 158.287 53.0178 158.798 47.1519C159.657 37.519 173.523 31.2765 182.525 37.8419C184.623 39.2413 186.423 41.045 187.818 43.1478C189.213 45.2507 190.176 47.6105 190.652 50.0899C191.127 52.5693 191.104 55.1187 190.586 57.5893C190.067 60.0599 189.062 62.4025 187.63 64.4804C181.853 73.1446 173.684 74.3017 159.872 74.5976C160.974 81.8089 165.918 81.19 170.379 84.4727L170.137 95.6663C172.28 95.8194 174.399 95.1346 176.049 93.7558C176.731 93.286 177.346 92.7247 177.876 92.0875L180.106 89.9619C184.003 93.0562 185.481 95.1819 192.924 95.3434C191.097 90.6345 188.598 87.2711 189.78 80.7056C190.485 76.2193 192.785 72.1389 196.256 69.2161C207.461 78.58 201.63 89.3968 199.669 95.3165C207.112 95.3165 208.563 92.9486 212.405 89.9349C212.567 89.9349 212.782 89.9349 212.862 90.2578L214.313 91.6839C215.248 92.8637 216.425 93.8278 217.765 94.5105C219.105 95.1931 220.577 95.5781 222.079 95.6393L222.375 84.4458C226.674 81.19 231.672 81.755 232.72 74.5707C219.795 74.3286 210.954 73.1177 205.285 64.8571C202.315 60.7078 201.103 55.5512 201.913 50.511C202.723 45.4708 205.49 40.9557 209.611 37.9495C218.263 31.3034 232.344 36.927 233.795 46.3178C234.682 52.3451 231.108 57.7535 225.116 57.0808C223.873 57.0041 222.695 56.4977 221.784 55.648C220.873 54.7984 220.284 53.6583 220.119 52.4225C219.954 51.1868 220.223 49.932 220.88 48.8725C221.536 47.813 222.539 47.0147 223.718 46.6138L225.304 45.8335C224.551 44.7572 225.089 45.2415 223.799 44.7302C209.423 44.0845 209.477 53.8788 212.325 59.1258C217.995 69.6466 244.436 67.1981 243.039 45.672C242.474 36.658 235.488 33.3753 231.457 28.9086C239.948 29.4467 246.586 32.0299 256.044 31.5994C263.783 31.2496 272.167 27.9399 273.322 22.0472C264.535 23.7423 263.299 24.7379 253.841 22.5046C234.628 18.1456 218.505 14.2171 202.221 34.8283C201.093 21.3745 208.751 16.8002 219.311 13.1408L223.154 11.2572C216.167 7.9207 206.548 11.0151 199.857 12.9255L198.271 10.746C197.062 9.15844 198.056 10.0195 196.337 9.10463C193.649 10.5845 195.208 10.3424 192.843 12.9255C186.421 10.9613 176.425 7.86688 169.519 11.2572C173.899 15.2934 191.849 14.3247 190.479 34.8283C174.598 15.5625 160.759 17.2038 140.472 22.1279C129.723 24.8187 129.723 23.6616 119.431 22.1279C124.376 37.1961 152.725 29.5006 161.243 28.7741C157.185 33.4291 150.226 36.3082 149.635 45.5644C148.21 67.0904 174.678 69.6197 180.348 59.0182C183.412 53.3407 183.035 44.219 168.847 44.5957V44.8379ZM377.959 220.894L378.657 222.535L379.759 220.679C379.41 209.082 381.022 208.678 377.206 197.673C379.759 195.789 379.893 197.323 381.076 194.175C379.732 192.157 379.839 192.291 377.206 191.484C378.657 185.538 382.58 173.348 378.926 166.944C373.847 173.887 376.803 188.174 355.629 188.47C357.617 185.511 361.406 184.219 366.377 175.905C369.828 170.427 371.663 164.084 371.671 157.607C371.286 150.826 370.095 144.114 368.124 137.615C365.652 127.256 366.726 127.283 368.124 117.246C361.567 119.399 359.014 126.96 358.773 135.086C358.504 144.503 360.842 150.531 361.46 159.007C356.865 155.267 353.963 148.082 344.665 147.517C340.946 147.034 337.172 147.8 333.934 149.694C330.696 151.588 328.176 154.503 326.769 157.984C323.491 166.056 325.614 175.77 332.009 178.649C337.679 181.34 346.734 179.699 345.444 166.783L344.853 165.303L343.752 166.971C343.249 168.072 342.4 168.979 341.335 169.551C340.27 170.124 339.046 170.331 337.852 170.142C336.658 169.953 335.559 169.378 334.722 168.504C333.885 167.63 333.357 166.506 333.218 165.303C332.681 159.33 337.759 155.858 343.967 156.72C353.452 158.092 358.853 172.003 352.404 180.936C343.51 193.125 324.646 191.861 317.982 175.232C315.295 168.478 316.504 164.926 315.832 157.85C308.765 159.33 309.571 163.715 305.998 168.397L295.034 168.236C294.977 169.68 295.244 171.119 295.816 172.446C296.388 173.774 297.251 174.955 298.339 175.905L300.623 178.057C297.533 183.008 295.572 182.201 295.249 191C300.489 189.278 302.827 186.479 310.216 187.878C314.526 188.674 318.434 190.924 321.287 194.256C318.467 197.835 314.376 200.187 309.867 200.821C302.666 202.059 300.14 199.529 295.169 197.592C294.891 200.025 295.239 202.489 296.18 204.749C297.12 207.01 298.622 208.992 300.543 210.508C297.856 213.198 294.9 214.974 294.443 220.141C298.182 220.661 301.968 220.76 305.729 220.437C308.658 224.177 308.12 229.397 315.779 230.85C314.892 195.44 340.124 195.709 349.636 205.072C351.36 206.595 352.735 208.473 353.664 210.579C354.594 212.684 355.056 214.966 355.021 217.268C354.985 219.569 354.452 221.836 353.457 223.911C352.463 225.986 351.031 227.821 349.26 229.289C341.199 236.285 327.226 228.482 335.825 218.795C342.005 218.015 341.763 219.011 344.45 222.778C349.341 216.427 341.763 206.633 333.084 209.485C320.186 213.764 322.067 241.774 343.832 241.155C352.78 240.94 357.617 233.594 361.325 229.451C361.083 235.559 352.807 268.036 368.231 271.373C366.485 262.628 365.544 261.255 367.774 252.026C372.208 234.429 375.218 218.069 359.364 203.888C357.348 202.113 357.321 202.489 356.139 200.148C363.797 200.31 368.607 201.709 371.859 206.149C374.863 210.593 376.938 215.599 377.959 220.867V220.894ZM196.068 392.699C222.695 392.978 249.135 388.212 273.994 378.653C298.09 369.069 320.02 354.741 338.485 336.516C357.225 318.541 371.999 296.837 381.855 272.799C391.713 247.795 396.614 221.108 396.285 194.229C396.603 167.456 391.674 140.881 381.774 116.008C371.849 91.9455 357.013 70.2245 338.216 52.2375C319.748 33.957 297.823 19.5494 273.725 9.85804C223.529 -8.90612 168.257 -8.90612 118.061 9.85804C94.0168 19.4559 72.1549 33.8154 53.7852 52.076C35.1154 70.0545 20.4145 91.7507 10.6302 115.766C0.802677 140.777 -4.07977 167.461 -3.74587 194.336C-4.08813 221.31 0.765593 248.096 10.5496 273.229C20.26 297.237 34.909 318.928 53.5434 336.893C91.6646 374.097 139.173 392.699 196.068 392.699ZM56.553 333.637C93.8501 370.07 140.355 388.295 196.068 388.313C222.189 388.61 248.13 383.944 272.516 374.563C296.069 365.222 317.521 351.262 335.61 333.502C353.907 315.947 368.324 294.745 377.932 271.265C387.605 246.799 392.406 220.675 392.066 194.363C392.387 168.153 387.567 142.135 377.878 117.784C368.181 94.2912 353.693 73.0841 335.341 55.5202C317.266 37.6427 295.818 23.5472 272.248 14.0556C223.09 -4.31366 168.965 -4.31366 119.808 14.0556C96.2907 23.4209 74.8973 37.431 56.9023 55.2511C38.684 72.8231 24.3328 94.0125 14.7683 117.461C5.16625 141.955 0.393806 168.079 0.714746 194.39C0.353447 220.788 5.0795 247.009 14.634 271.615C24.0835 295.049 38.368 316.22 56.553 333.744V333.637Z" fill="url(#paint0_linear_51_359)"/>
</g>
</g>
<defs>
<linearGradient id="paint0_linear_51_359" x1="673.299" y1="-172.737" x2="-189.674" y2="489.324" gradientUnits="userSpaceOnUse">
<stop stop-color="#B88D43"/>
<stop offset="0.23" stop-color="#F8D98F"/>
<stop offset="0.34" stop-color="#957745"/>
<stop offset="0.52" stop-color="#E2B87A"/>
<stop offset="0.67" stop-color="#E6C87E"/>
<stop offset="0.8" stop-color="#A3834F"/>
<stop offset="1" stop-color="#EECE81"/>
</linearGradient>
<clipPath id="clip0_51_359">
<rect width="394" height="391" rx="195.5" fill="white"/>
</clipPath>
</defs>
</svg>
