<svg width="205" height="409" viewBox="0 0 205 409" fill="none" xmlns="http://www.w3.org/2000/svg">
<g clip-path="url(#clip0_139_1316)">
<path opacity="0.5" fill-rule="evenodd" clip-rule="evenodd" d="M-1.52728 468.646C-77.4527 468.646 -140.848 443.718 -191.715 393.861C-242.581 344.005 -268.014 280.479 -268.014 203.283C-268.014 126.556 -242.459 63.1518 -191.35 13.0702C-140.241 -37.0114 -76.9668 -62.0616 -1.52728 -62.0804C73.4077 -62.0804 136.673 -36.9082 188.268 13.4361C239.862 63.7804 265.707 127.063 265.8 203.283C265.8 280.009 240.124 343.423 188.772 393.523C137.42 443.624 74.0337 468.665 -1.38718 468.646H-1.52728ZM-12.263 127.147C-20.4479 123.291 -23.307 119.322 -34.6874 122.418C-44.8905 125.233 -45.0587 129.427 -49.4875 136.914C-52.5546 135.957 -55.8388 135.957 -58.9058 136.914C-61.7046 137.794 -64.1374 139.575 -65.8294 141.98C-59.8308 141.98 -56.4952 141.98 -54.6171 146.399L-56.7475 147.3C-57.7005 147.525 -58.8778 147.638 -59.8028 147.863C-81.7227 152.873 -82.6757 190.307 -59.0179 188.281C-47.9739 187.352 -49.1792 178.739 -52.1504 171.815C-53.7202 173.11 -52.3466 171.59 -53.552 173.194C-54.1967 174.067 -53.6921 173.617 -54.3929 174.602C-54.706 175.182 -55.1611 175.672 -55.7152 176.027C-56.2694 176.381 -56.9044 176.588 -57.5603 176.628C-68.268 178.176 -65.7172 163.878 -58.9619 160.472C-53.552 157.658 -47.4974 161.232 -44.9466 163.934C-40.9102 168.269 -41.1064 171.843 -40.2935 179.133L-31.548 177.444L-32.2207 185.888C-22.9426 185.551 -12.5994 185.888 -10.3009 197.147C-17.5608 195.627 -23.7275 192.052 -32.7253 192.334C-48.5065 192.84 -56.9437 205.788 -74.5188 190.589C-76.7613 188.647 -84.1333 178.401 -84.2174 174.123C-85.7871 184.003 -84.9742 191.011 -80.5454 197.062C-82.4876 197.328 -84.3515 198.005 -86.0138 199.048C-87.676 200.092 -89.0988 201.477 -90.1879 203.114C-87.8053 208.434 -84.5818 206.914 -80.6015 209.728C-82.5423 212.673 -83.8706 215.981 -84.5064 219.453C-85.1423 222.926 -85.0725 226.492 -84.3015 229.937C-82.8439 228.755 -83.9651 230.388 -82.5075 227.995C-79.2279 222.619 -78.2188 219.27 -72.9211 214.795C-56.9717 201.369 -47.2451 213.669 -32.5851 214.063C-23.0267 214.316 -18.0653 210.685 -10.3289 209.475C-10.8414 211.457 -11.7393 213.318 -12.9708 214.951C-14.2023 216.584 -15.7432 217.956 -17.5047 218.988C-21.9616 221.465 -26.6987 220.733 -32.1086 220.621L-31.4919 228.896L-40.3776 227.404C-40.3776 234.778 -41.2466 238.663 -45.311 242.547C-56.299 253.13 -68.6884 241.562 -63.9793 232.639C-63.5023 231.835 -62.8436 231.155 -62.0565 230.654C-61.2694 230.153 -60.3758 229.844 -59.4481 229.754C-58.5204 229.664 -57.5846 229.794 -56.7161 230.133C-55.8477 230.473 -55.0711 231.014 -54.449 231.71C-53.7482 232.667 -54.449 232.105 -53.7202 233.061L-52.3467 234.807C-42.1996 214.401 -69.165 212.909 -74.9953 228.192C-77.1152 233.301 -77.2866 239.016 -75.4769 244.244C-73.6673 249.472 -70.0033 253.848 -65.1846 256.535C-61.0642 258.759 -58.2892 258.224 -54.5891 259.744C-56.355 263.91 -59.5786 264.473 -65.3248 264.557C-62.5218 269.68 -55.9066 271.34 -49.4315 269.483C-47.077 273.395 -47.8898 274.605 -44.386 278.236C-41.9503 280.938 -38.801 282.89 -35.3041 283.866C-22.0737 288.087 -18.9903 281.473 -12.0668 279.644C-7.77814 284.231 -8.73114 286.596 -9.01144 293.492C-6.13196 291.367 -4.13547 288.25 -3.4053 284.738C-2.20001 278.405 -4.33038 276.294 -6.37659 272.241C-4.52658 265.936 -1.77957 263.262 -4.07806 254.622C-4.58167 251.911 -5.82224 249.393 -7.66254 247.346C-9.50287 245.3 -11.8712 243.804 -14.5054 243.025C-29.9503 238.944 -38.3314 258.252 -26.5025 264.163C-26.6707 258.534 -26.054 253.355 -19.4949 254.593C-15.0941 255.438 -13.132 260.589 -15.038 265.627C-15.8542 267.751 -17.2467 269.603 -19.0576 270.973C-20.8685 272.343 -23.0254 273.177 -25.2838 273.379C-27.5423 273.581 -29.812 273.144 -31.8356 272.117C-33.8593 271.09 -35.5561 269.514 -36.7336 267.569C-44.7784 254.171 -34.9958 231.626 -8.17053 232.864C-8.56296 225.012 -6.71295 218.228 -1.10684 215.723C4.49927 218.228 6.40536 225.04 5.95688 232.893C16.2721 232.414 23.9525 234.694 29.4745 240.098C36.0056 246.487 42.5648 265.43 29.951 271.763C27.9683 272.773 25.7693 273.281 23.5462 273.242C21.323 273.202 19.1432 272.617 17.1971 271.537C10.9183 267.315 8.78793 252.567 21.4858 254.847C24.429 257.661 24.5131 258.562 24.2888 264.163C35.6692 258.534 28.5775 239.563 12.9084 242.885C10.2157 243.538 7.76123 244.941 5.82733 246.932C3.89343 248.924 2.55865 251.423 1.97653 254.143C-0.602264 262.756 2.14471 265.88 4.10684 272.354C3.93866 274.183 -4.8349 285.357 6.74173 293.52C6.74173 286.455 5.48035 284.625 9.85312 279.756C13.8334 280.826 28.0169 292.253 41.864 278.743C45.5921 275.084 44.6671 273.733 47.2178 269.595C52.8239 271.059 59.9156 270.243 63.3634 264.754C57.5891 264.416 54.3095 264.445 52.4034 259.857C59.4111 257.042 65.1013 258.055 70.0907 250.456C77.6029 239.197 75.0802 215.583 56.0755 218.369C47.414 219.636 44.611 230.359 50.9739 234.778C52.2072 231.964 52.2914 230.388 55.5149 229.881C70.2309 227.601 59.7755 259.012 43.1814 242.659C39.2291 238.747 38.1359 234.891 38.3041 227.629L29.4745 229.037L30.1753 221.071C22.579 219.636 11.6751 223.098 8.17126 209.559C15.7956 210.826 21.1775 214.401 30.5957 214.175C41.0231 213.922 69.2498 194.98 82.1999 232.302C83.3211 223.182 83.2931 216.455 78.64 209.785C82.0317 207.364 85.8159 208.434 88.1144 203.17C87.0286 201.532 85.6016 200.15 83.9319 199.12C82.2623 198.09 80.3898 197.436 78.4438 197.203C81.4195 192.646 82.9355 187.283 82.7886 181.835C82.7886 181.132 82.7886 179.471 82.7886 178.824L81.7795 175.728C67.2597 211.586 42.9011 192.615 30.6798 192.446C22.1305 192.249 15.5994 195.711 8.25537 197.259C10.722 186.001 20.813 185.551 30.1472 186.001L29.4745 177.782L38.4162 179.302C38.0238 170.408 42.4246 158.924 53.3005 159.6C63.4195 160.275 67.8483 177.979 54.7581 176.656C51.955 175.08 52.5156 174.742 51.086 171.843C49.6907 172.987 48.6572 174.514 48.1115 176.238C47.5659 177.962 47.5317 179.808 48.0132 181.55C48.4947 183.293 49.471 184.858 50.823 186.053C52.175 187.248 53.8442 188.022 55.627 188.281C59.2515 189.111 63.0544 188.541 66.2795 186.685C69.5048 184.828 71.916 181.821 73.0339 178.261C74.2479 175.329 74.8241 172.171 74.7242 168.998C74.6243 165.824 73.8505 162.709 72.4545 159.86C71.0586 157.012 69.0728 154.495 66.6299 152.48C64.1871 150.464 61.3437 148.995 58.2899 148.172L52.6838 146.568C54.674 142.262 57.7573 142.065 63.896 142.121C60.4482 136.323 53.1323 135.985 47.5262 137.055C45.3958 133.283 45.4239 131.144 42.5087 128.076C39.8633 125.551 36.6669 123.681 33.1745 122.616C29.3636 121.324 25.2805 121.065 21.338 121.865C17.3955 122.666 13.7335 124.498 10.7221 127.175C5.31216 123.375 7.27432 120.139 6.74173 113.102C-5.33945 125.008 4.38715 130.553 4.1629 134.775C1.61212 140.404 -0.209869 145.555 2.14471 152.873C2.82126 155.549 4.22974 157.982 6.21106 159.897C8.19238 161.812 10.6676 163.132 13.3569 163.709C29.4184 167.143 35.445 147.272 24.1767 142.29C24.9055 147.103 25.0176 149.411 21.0092 151.803C9.1243 153.351 10.9463 139.166 17.5054 134.915C32.0813 125.458 46.6012 149.692 29.8669 166.411C24.6813 171.562 16.4403 174.095 6.26523 173.673C6.26523 182.257 5.03186 187.746 -0.966675 190.842C-6.90915 187.83 -8.11447 182.173 -8.17053 173.617C-18.3456 174.123 -26.5305 171.618 -31.7442 166.411C-38.1912 159.966 -44.386 141.079 -31.7442 134.662C-29.812 133.684 -27.6714 133.193 -25.5077 133.232C-23.344 133.271 -21.2224 133.839 -19.3267 134.887C-12.4872 139.588 -10.7213 153.633 -23.7275 151.775C-26.5305 148.369 -27.0351 147.497 -25.998 142.374C-37.4625 148.003 -30.9874 167.087 -15.2342 163.85C-12.5454 163.262 -10.0726 161.934 -8.09241 160.016C-6.11224 158.097 -4.70288 155.663 -4.022 152.985C-0.966675 143.528 -4.75082 140.629 -5.98416 134.155C-0.378052 124.783 -2.28409 119.491 -8.61899 113.187C-9.06747 122.644 -7.13342 120.364 -11.8986 127.26L-12.263 127.147ZM119.116 250.991L118.724 250.568L118.303 250.146L117.434 249.471C104.316 239.591 113.09 242.237 96.7198 238.832C96.7198 245.221 98.4857 248.795 98.7941 253.496H89.2076L91.394 264.979L81.1348 264.332L82.3401 276.576L71.6885 276.35V287.215L59.5233 286.117L60.3081 296.559L48.8716 294.308V303.568C43.6019 302.836 39.9579 301.007 34.1556 301.682C37.267 312.04 35.3889 312.012 38.3882 314.798C44.5829 320.428 43.9943 321.779 46.2928 324.255C48.0042 318.303 51.4547 313.003 56.1979 309.041C60.9411 305.079 66.759 302.637 72.8992 302.031C79.0395 301.425 85.2196 302.682 90.6405 305.641C96.0614 308.599 100.474 313.123 103.307 318.626C105.278 322.555 106.305 326.893 106.305 331.292C106.305 335.691 105.278 340.029 103.307 343.958C95.1501 358.791 72.8097 362.309 62.9149 347.42C61.6603 345.702 60.7623 343.748 60.2742 341.675C59.786 339.602 59.7177 337.451 60.0733 335.351C60.4289 333.251 61.2011 331.243 62.3441 329.449C63.4871 327.654 64.9776 326.108 66.7271 324.903C74.7438 319.077 85.9841 323.27 84.6666 333.122C83.4893 336.527 78.584 337.681 77.3507 332.981C77.1187 331.651 76.9876 330.305 76.9583 328.956C75.0479 329.259 73.2684 330.119 71.8409 331.429C70.4133 332.739 69.4007 334.441 68.9288 336.325C68.457 338.208 68.5467 340.189 69.1868 342.021C69.827 343.854 70.9893 345.457 72.5294 346.632C75.6192 349.02 79.5177 350.099 83.3898 349.636C87.2618 349.173 90.7992 347.205 93.244 344.155C104.288 329.097 94.7576 312.293 76.4257 311.956C58.0937 311.618 48.3951 324.79 51.4224 343.564C51.9153 347.118 53.1178 350.535 54.9577 353.611C56.7977 356.687 59.2372 359.358 62.1301 361.465C69.6142 367.263 74.5757 366.109 84.5545 367.826C86.1242 373.455 84.1901 374.778 88.9553 377.874C92.5152 374.102 90.8894 370.753 96.944 366.193C110.146 356.23 116.257 354.935 117.603 328.674C121.751 334.304 122.228 340.974 122.732 349.334C126.768 347.729 127.974 345.731 129.011 340.89C132.879 342.213 134.085 343.423 138.99 343.339L135.878 334.078C140.756 332.981 143.11 331.264 144.54 327.492C135.542 327.183 130.048 326.507 123.629 322.482C151.828 320.259 149.557 316.459 161.358 301.457C165.479 296.25 168.282 296.785 171.449 294.646C172.458 293.998 172.094 294.139 172.683 293.492C170.244 289.607 168.114 290.17 162.648 289.354C161.274 273.48 157.77 258.872 137.953 256.001C101.877 250.766 100.644 292.9 117.687 300.781C121.333 302.282 125.313 302.774 129.213 302.204C133.113 301.635 136.789 300.026 139.859 297.545C142.718 294.969 144.473 291.382 144.756 287.535C145.038 283.689 143.825 279.882 141.372 276.913C140.152 275.459 138.54 274.389 136.73 273.829C134.92 273.27 132.988 273.246 131.164 273.759C129.341 274.272 127.703 275.302 126.446 276.725C125.19 278.148 124.367 279.903 124.078 281.783C128.086 281.98 128.983 282.064 131.085 284.203C131.702 294.702 115.024 289.607 117.687 276.773C118.216 274.661 119.162 272.678 120.467 270.94C121.773 269.202 123.412 267.744 125.288 266.653C127.164 265.561 129.239 264.858 131.39 264.585C133.541 264.312 135.725 264.475 137.813 265.064C141.73 266.523 145.157 269.066 147.697 272.398C150.236 275.73 151.785 279.715 152.164 283.894C153.706 302.048 136.215 316.684 115.893 309.225C92.2068 300.359 89.3477 260.814 119.144 251.103L119.116 250.991ZM84.3863 38.7678C66.3907 39.0211 53.9452 46.9583 51.4224 63.1143C45.7602 99.1978 87.1894 101.168 95.8228 84.2803C97.3514 80.6745 97.8975 76.7253 97.4049 72.8376C96.9123 68.95 95.3989 65.2639 93.0197 62.1573C89.0394 57.1191 79.7052 53.7134 72.7256 59.7086C65.746 65.7037 67.9324 76.3712 77.0423 77.3563C77.0423 73.1344 77.1825 72.3744 79.5931 70.376C88.7591 70.376 84.8068 81.3812 78.3037 83.6892C70.2589 86.5038 63.6157 79.608 61.4854 74.8231C54.7861 60.5248 70.287 47.2679 85.2833 49.4915C88.7248 50.0354 92.0168 51.2891 94.9518 53.1737C97.8868 55.0583 100.401 57.5329 102.337 60.4415C104.272 63.3502 105.587 66.6298 106.198 70.0739C106.809 73.5179 106.702 77.0516 105.886 80.4524C99.8873 111.948 53.7489 111.667 46.6012 82.3382C46.1044 82.6744 45.6683 83.0932 45.3117 83.5766C42.0322 87.6297 42.5087 88.7555 36.4821 93.7374C36.4821 99.3667 35.473 100.183 34.3798 104.996C39.2936 104.735 44.173 104.019 48.9557 102.857V112.427L60.3922 110.09L59.4952 120.448L71.9127 119.322V130.102L82.3962 129.934L81.3871 142.402L91.8425 141.445L89.2076 152.76L98.7379 152.957C97.9531 158.249 96.3554 161.626 96.8039 167.706C100.374 166.289 104.178 165.564 108.016 165.567C113.482 158.615 117.126 157.967 119.032 155.265C90.3288 148.398 89.9925 102.885 119.733 96.158C136.551 92.302 149.613 102.772 151.8 116.48C154.266 131.904 140.728 147.075 126.432 140.46C121.751 138.293 114.884 131.031 117.771 123.572C121.106 114.706 133.552 115.551 130.637 122.362C129.179 125.177 128.142 124.726 124.106 124.895C124.862 133.17 134.701 135.844 140.644 130.525C153.201 118.956 136.019 98.0157 118.219 105.784C112.221 108.402 107.82 115.213 107.147 124.051C105.718 142.684 118.64 153.52 137.588 150.931C154.042 148.679 162.367 135.844 162.395 117.718C168.506 116.395 169.599 117.408 172.739 113.046C169.151 109.893 165.815 111.019 161.358 105.671C151.716 94.1033 152.949 85.7157 123.797 84.3929C124.282 83.808 124.896 83.3453 125.591 83.0419L132.627 80.4524C136.407 79.6035 140.274 79.2067 144.147 79.2702C142.606 75.0202 140.139 74.0069 135.738 72.7122C137.218 69.821 138.114 66.6643 138.373 63.4239C135.088 63.5308 131.889 64.5013 129.095 66.2385C127.89 61.2003 126.628 59.4553 122.76 57.4006C121.891 66.52 121.779 71.4737 117.631 78.3977C116.229 63.7898 116.565 57.9354 107.932 49.1819C102.69 43.8622 102.186 44.8755 97.0561 40.9913C94.2059 38.8592 92.0579 35.9179 90.8894 32.5474C90.8894 32.3785 90.2727 31.0275 90.2447 30.9712C89.2356 29.0291 89.5159 29.7891 88.8992 29.1417C84.7507 31.3653 85.5076 33.9547 84.3583 39.3588L84.3863 38.7678ZM-101.148 253.439C-100.84 248.908 -99.2137 245.136 -99.0736 238.86C-118.695 243.926 -105.437 238.325 -115.556 246.403L-121.47 251.075C-91.4212 261.377 -94.4766 300.359 -118.667 309.394C-122.835 311.117 -127.367 311.763 -131.848 311.271C-136.329 310.779 -140.616 309.166 -144.315 306.58C-147.854 303.925 -150.641 300.39 -152.401 296.322C-154.161 292.254 -154.833 287.796 -154.35 283.387C-151.911 261.433 -123.881 258.534 -119.928 276.97C-117.321 289.185 -132.991 295.04 -133.439 284.907C-131.449 282.092 -130.944 282.261 -126.319 282.092C-126.618 280.166 -127.475 278.371 -128.783 276.93C-130.091 275.489 -131.792 274.466 -133.675 273.989C-135.557 273.512 -137.538 273.602 -139.37 274.247C-141.202 274.892 -142.805 276.064 -143.979 277.617C-146.379 280.649 -147.488 284.511 -147.062 288.361C-146.637 292.21 -144.712 295.734 -141.708 298.164C-126.824 308.888 -110.342 300.978 -109.473 282.064C-108.604 263.15 -121.89 253.355 -140.951 256.423C-160.797 259.603 -163.376 275.056 -164.917 289.692C-170.72 290.564 -172.289 289.917 -174.896 293.801C-172.654 296.616 -167.384 296.616 -163.292 302.245C-152.304 317.106 -151.575 321.272 -125.843 322.848C-132.29 326.901 -137.784 327.549 -146.782 327.858C-146.104 329.662 -144.93 331.236 -143.397 332.397C-141.864 333.558 -140.034 334.258 -138.12 334.416C-139.576 337.359 -140.523 340.528 -140.923 343.789C-137.621 343.681 -134.404 342.711 -131.589 340.974C-130.159 346.013 -129.234 348.011 -125.03 349.728C-124.581 341.847 -123.993 334.219 -119.9 329.068C-119.228 342.691 -117.63 351.051 -110.174 358.397C-106.616 361.445 -102.872 364.265 -98.9615 366.841C-93.6917 370.894 -94.6728 374.637 -91.3932 378.099C-86.628 374.806 -88.5902 373.934 -86.9924 368.079C-76.7613 366.165 -72.0521 367.601 -64.2596 361.38C-46.1519 346.941 -49.4875 311.027 -79.7045 312.237C-98.0084 312.969 -106.614 330.391 -95.4296 344.802C-92.9917 347.617 -89.5987 349.42 -85.9101 349.862C-82.2216 350.305 -78.5011 349.354 -75.4719 347.195C-73.8708 346.113 -72.623 344.581 -71.8849 342.79C-71.1467 340.999 -70.9508 339.03 -71.3219 337.128C-71.6929 335.226 -72.6143 333.477 -73.9707 332.098C-75.3271 330.72 -77.0583 329.773 -78.9477 329.378C-78.9477 329.575 -79.1439 329.828 -79.1999 329.997C-79.256 330.166 -79.3681 330.391 -79.3961 330.588L-79.9007 333.206C-80.7416 336.161 -79.9007 334.529 -81.7787 335.795C-90.6925 339.398 -89.0106 320.034 -74.8272 322.679C-70.6286 323.695 -67 326.336 -64.7319 330.026C-62.4638 333.717 -61.7399 338.158 -62.718 342.382C-64.0108 346.304 -66.3756 349.783 -69.5427 352.42C-72.7098 355.058 -76.5515 356.749 -80.6295 357.299C-111.043 361.465 -120.237 316.121 -90.6364 304.806C-73.8181 298.333 -55.7944 304.806 -48.7868 324.509C-47.3011 322.989 -46.6284 321.3 -45.1428 319.611C-34.1548 306.917 -42.3397 320.034 -36.7336 301.907C-42.6761 301.288 -46.0678 303.089 -51.4497 303.821V294.28L-62.9142 296.728L-62.1013 286.23L-74.3787 287.468V276.604H-85.1144L-83.881 264.332L-94.3364 265.064L-91.9258 253.636L-101.4 253.468L-101.148 253.439ZM-120.012 77.8629C-124.301 70.6293 -124.189 66.2104 -125.17 56.894C-126.898 57.6753 -128.389 58.902 -129.492 60.4493C-130.594 61.9967 -131.27 63.8095 -131.449 65.7037C-134.266 63.9715 -137.482 63.0018 -140.783 62.8891C-140.445 66.1359 -139.493 69.2882 -137.98 72.1774C-142.381 73.5003 -144.988 74.5135 -146.389 78.7355C-139.998 78.9325 -130.664 79.6924 -126.011 83.8862C-151.659 84.7869 -153.173 91.0917 -162.955 104.32C-167.02 109.781 -170.383 108.824 -174.84 112.511C-172.177 116.93 -169.991 116.029 -164.637 117.155C-164.637 135.281 -156.228 148.285 -139.942 150.396C-120.965 152.845 -107.959 142.487 -109.389 123.516C-110.062 114.875 -114.21 108.233 -119.984 105.474C-123.64 103.937 -127.651 103.457 -131.564 104.089C-135.478 104.72 -139.137 106.439 -142.128 109.049C-147.454 113.778 -149.304 123.629 -143.278 129.624C-137.672 135.112 -127.356 133.03 -126.291 124.501C-130.384 124.332 -131.449 124.698 -132.878 121.94C-136.354 113.862 -118.303 114.735 -119.536 127.963C-121.274 146.258 -150.369 147.187 -154.041 124.248C-158.947 93.7093 -114.518 83.0137 -102.017 113.187C-100.374 116.964 -99.4962 121.031 -99.4331 125.152C-99.3699 129.273 -100.123 133.366 -101.649 137.192C-103.175 141.018 -105.442 144.502 -108.321 147.44C-111.199 150.378 -114.63 152.713 -118.415 154.308L-121.218 155.997C-116.897 158.32 -113.129 161.556 -110.174 165.482C-106.335 165.448 -102.527 166.165 -98.9615 167.593C-98.6531 161.26 -100.083 158.389 -100.896 152.788H-91.3932L-93.888 141.389L-83.3765 142.233L-84.5818 129.737H-73.8741L-74.0423 119.069L-61.6528 120.223L-62.5498 109.893L-51.1414 112.117V102.547C-46.3403 103.606 -41.4687 104.311 -36.5655 104.658C-37.8268 99.7326 -38.6958 99.0289 -38.6397 93.3997L-48.7868 81.9723C-55.402 109.612 -97.0274 112.427 -107.006 84.9558C-108.623 80.6797 -109.165 76.0691 -108.583 71.5326C-108.001 66.9962 -106.314 62.6738 -103.671 58.9486C-91.5053 43.1304 -67.4832 47.6901 -62.6899 63.9587C-61.683 68.1662 -62.3574 72.6024 -64.5684 76.3167C-66.7795 80.031 -70.3514 82.7281 -74.5188 83.8299C-86.7121 86.3631 -92.3463 70.0664 -82.0591 70.2916C-79.6484 72.3181 -79.5923 72.9373 -79.4802 77.2437C-77.6528 77.0566 -75.9175 76.3463 -74.4806 75.1973C-73.0437 74.0482 -71.9659 72.5089 -71.3753 70.7624C-70.7847 69.0159 -70.7062 67.1358 -71.1492 65.3458C-71.5922 63.5558 -72.538 61.9313 -73.8741 60.6656C-75.212 59.3062 -76.8083 58.2305 -78.5681 57.5024C-80.3279 56.7744 -82.2155 56.4086 -84.1188 56.427C-86.022 56.4454 -87.9022 56.8475 -89.6478 57.6094C-91.3933 58.3714 -92.9687 59.4776 -94.2804 60.8626C-103.811 70.9108 -102.69 92.1331 -80.9098 94.1596C-61.4846 95.9891 -51.1694 82.9011 -53.6361 63.1987C-54.0439 59.5928 -55.1909 56.1107 -57.0048 52.9717C-58.8187 49.8328 -61.2602 47.1049 -64.1756 44.9599C-72.5847 38.8522 -76.2848 40.3158 -86.9644 38.43C-87.4129 32.8007 -87.3568 30.3802 -91.1409 28.4662C-92.6546 30.0705 -92.0379 29.2262 -92.9069 31.2808C-93.939 34.7448 -96.0272 37.7965 -98.8774 40.0062C-113.061 51.2647 -117.069 47.5212 -119.872 77.7504L-120.012 77.8629ZM-1.19092 333.994C-9.34781 328.365 -9.74023 315.586 -4.38638 306.917C-12.1228 305.932 -14.7857 309.732 -18.0373 312.406C-20.8403 310.154 -23.0267 306.383 -28.3806 306.27V318.542C-33.9867 321.187 -37.7428 321.75 -39.0322 328.534C-2.05988 326.592 -0.181824 357.355 -16.2153 367.347C-26.1101 373.511 -40.8261 366.503 -40.3216 355.301C-39.761 343.451 -24.4843 344.324 -26.3063 353.584C-26.8669 356.398 -28.8291 356.539 -30.6791 359.213C-5.81598 362.703 -15.6267 329.772 -39.0882 339.877C-42.8105 341.537 -45.8712 344.402 -47.7817 348.015C-49.6921 351.627 -50.342 355.778 -49.6277 359.804C-48.6747 367.516 -41.4708 372.92 -37.07 376.439C-47.6375 375.257 -75.4718 367.291 -81.5545 383.306C-71.5756 381.843 -70.3423 380.323 -59.5505 383.306C-41.8072 388.063 -27.5396 389.893 -12.7115 376.101C-10.9554 374.053 -9.08359 372.107 -7.10538 370.275C-7.10538 378.972 -9.09552 383.757 -13.8888 387.5C-18.682 391.244 -25.3533 391.835 -30.0624 394.846C-19.8032 397.661 -13.4964 395.606 -4.8349 392.932C-2.84476 395.071 -4.21823 395.24 -1.19092 396.845C0.687134 395.86 -0.574249 396.845 0.967438 395.1L2.48108 392.932C16.6926 397.126 13.1607 397.154 27.7086 394.706C14.0577 388.513 4.83563 389.245 4.72351 370.246C7.8349 372.329 9.15234 376.467 18.01 381.702C31.4927 389.696 43.2375 387.05 57.8134 383.137C67.9604 380.323 69.9786 382.012 79.2287 383.391C73.3142 367.573 45.5921 375.228 34.7723 376.551C55.2906 361.915 47.6663 344.211 36.2579 339.764C12.2918 330.391 4.41519 363.351 28.2972 359.298L27.1199 357.862L26.6995 357.496C20.757 351.867 25.2979 347.786 27.6245 347.026C33.595 345.084 37.7715 350.46 37.9397 355.47C38.3602 366.503 23.9244 373.765 13.8334 367.432C11.5138 366.059 9.50046 364.22 7.91882 362.032C6.33719 359.844 5.22113 357.352 4.64005 354.711C4.05893 352.071 4.02524 349.339 4.54114 346.685C5.05704 344.031 6.11142 341.513 7.63867 339.286C14.5342 329.294 22.2426 329.097 36.7905 328.365C35.3889 321.582 31.4366 321.159 25.9707 318.542C25.6063 313.926 26.5593 311.421 25.5502 306.27C20.7289 306.27 18.1501 310.182 15.5433 312.406C12.7403 310.21 13.3569 309.591 9.93719 308.071C7.47205 306.884 4.707 306.472 2.00455 306.889C7.8349 316.966 6.74173 328.506 -1.21893 333.994H-1.19092ZM-167.3 197.231C-179.381 196.978 -184.455 193.178 -188.183 183.44C-188.715 182.06 -189.192 180.794 -189.752 179.133L-191.658 175.052C-195.583 182.426 -191.434 193.206 -189.836 200.384C-192.836 201.312 -193.116 201.228 -193.929 204.212C-192.583 205.337 -191.434 205.788 -190.005 206.857C-191.434 213.556 -195.611 224.871 -191.658 232.189C-185.66 222.197 -189.052 210.179 -167.804 209.362C-168.926 211.614 -167.468 209.644 -169.262 211.642C-175.457 218.566 -184.314 224.336 -183.922 242.856C-183.351 249.861 -182.045 256.786 -180.026 263.516C-177.615 273.592 -178.68 274.774 -180.474 283.922C-164.469 280.038 -172.878 247.332 -173.298 240.042C-169.206 244.517 -164.497 251.3 -156.48 252.257C-152.56 252.811 -148.568 252.07 -145.104 250.145C-141.641 248.221 -138.894 245.218 -137.279 241.59C-126.964 216.877 -161.133 208.94 -156.368 233.146C-152.836 231.119 -155.611 227.742 -146.894 228.924C-143.194 232.977 -142.465 236.805 -146.894 240.633C-157.601 249.668 -176.774 229.177 -160.909 214.147C-157.384 210.818 -152.748 208.931 -147.909 208.858C-143.07 208.785 -138.379 210.531 -134.756 213.753C-127.637 219.664 -125.45 229.008 -125.927 241.618C-120.096 240.436 -117.714 236.467 -116.06 230.613C-111.945 231.016 -107.797 230.94 -103.699 230.388C-104.259 225.124 -107.287 223.098 -110.062 220.311C-108.018 218.751 -106.41 216.688 -105.394 214.321C-104.377 211.954 -103.987 209.364 -104.259 206.801C-109.445 208.912 -112.248 211.389 -119.536 210.179C-121.866 209.859 -124.111 209.081 -126.141 207.888C-128.171 206.695 -129.946 205.11 -131.365 203.226C-128.422 199.693 -124.314 197.336 -119.788 196.584C-111.94 195.148 -109.725 198.019 -104.175 199.821C-104.427 192.672 -105.072 192.109 -108.52 188.14C-109.091 187.62 -109.549 186.988 -109.865 186.282L-109.081 185.438C-106.95 183.44 -103.474 180.625 -104.007 176.319L-115.415 175.868C-119.143 171.168 -118.218 166.552 -125.647 165.032C-126.347 172.688 -124.75 186.564 -136.13 194.079C-140.442 197.109 -145.776 198.296 -150.959 197.378C-156.142 196.459 -160.75 193.511 -163.768 189.181C-170.636 179.668 -164.833 164.891 -154.266 163.85C-142.157 162.696 -140.25 178.148 -149.809 177.923C-153.032 177.923 -154.098 175.84 -155.695 173.645C-155.695 173.645 -155.976 173.814 -156.004 174.067C-156.502 174.853 -156.836 175.732 -156.986 176.651C-157.135 177.57 -157.096 178.511 -156.873 179.415C-155.191 194.839 -128.842 188.506 -136.803 165.736C-138.193 162.103 -140.716 159.02 -143.994 156.945C-147.273 154.871 -151.131 153.916 -154.995 154.224C-165.142 154.477 -168.421 162.274 -173.27 166.299C-172.682 157.489 -170.159 151.128 -170.467 141.248C-170.748 132.804 -173.551 124.839 -180.25 122.616C-178.849 133.058 -177.447 132.861 -180.25 143.922C-183.726 158.333 -187.09 169.845 -178.624 184.087C-173.803 192.165 -169.402 194.163 -167.412 197.203L-167.3 197.231ZM-94.9251 212.655C-89.6273 261.602 -46.9648 302.949 7.91901 297.46C20.3802 296.413 32.5093 292.886 43.5999 287.086C54.6906 281.286 64.5212 273.328 72.5191 263.675C80.5171 254.023 86.5226 242.869 90.1859 230.864C93.8492 218.858 95.097 206.241 93.8568 193.746C92.6165 181.252 88.913 169.13 82.9619 158.087C77.0107 147.043 68.9309 137.299 59.193 129.422C49.455 121.545 38.2535 115.692 26.2409 112.204C14.2283 108.716 1.64459 107.662 -10.7774 109.105C-58.7657 114.115 -100.952 157.432 -94.869 212.655H-94.9251ZM-12.291 104.855C-96.9713 115.551 -131.141 219.382 -65.2407 278.49C-55.0756 287.227 -43.2438 293.792 -30.4677 297.784C-17.6916 301.776 -4.23917 303.112 9.06827 301.71C59.5232 296.672 103.671 250.034 96.8039 192.137C95.0687 176.837 89.8148 162.153 81.4573 149.242C73.0998 136.332 61.8675 125.549 48.6474 117.746C30.2299 107.017 8.87195 102.499 -12.291 104.855ZM-29.8662 46.902C-32.6692 47.2961 -30.5109 46.902 -31.2957 47.8871L-29.8382 48.9004C-28.6763 49.3026 -27.6782 50.077 -26.9976 51.1045C-26.3169 52.132 -25.9914 53.3556 -26.071 54.5871C-26.1507 55.8185 -26.6311 56.9895 -27.4383 57.92C-28.2456 58.8505 -29.335 59.4888 -30.5389 59.7367C-36.8458 61.0596 -40.8822 55.4585 -40.3496 49.3226C-39.4526 39.2462 -24.9888 32.7163 -15.5986 39.584C-13.4096 41.0479 -11.5327 42.9346 -10.0773 45.1342C-8.62186 47.3338 -7.61694 49.8023 -7.12125 52.3959C-6.62552 54.9894 -6.64893 57.6561 -7.19 60.2405C-7.73108 62.8249 -8.77908 65.2752 -10.2728 67.4488C-16.2994 76.5119 -24.8207 77.7222 -39.2284 78.0318C-38.0791 85.575 -32.9215 84.9276 -28.2684 88.3615L-28.5207 100.07C-26.285 100.23 -24.0746 99.5142 -22.354 98.072C-21.6422 97.5805 -21.0008 96.9933 -20.4479 96.3269L-18.1214 94.1033C-14.0569 97.3402 -12.5153 99.5637 -4.75082 99.7326C-6.65689 94.807 -9.26373 91.2887 -8.0304 84.421C-7.29523 79.7281 -4.89615 75.4599 -1.27502 72.4026C10.4137 82.1975 4.33112 93.5123 2.28488 99.7044C10.0493 99.7044 11.563 97.2276 15.5713 94.0752C15.7395 94.0752 15.9637 94.0752 16.0479 94.4129L17.5615 95.9047C18.536 97.1388 19.7642 98.1473 21.1622 98.8613C22.5602 99.5754 24.0952 99.9782 25.6624 100.042L25.9707 88.3333C30.4556 84.9276 35.6692 85.5187 36.7624 78.0037C23.2797 77.7504 14.0577 76.4838 8.14325 67.8428C5.04501 63.5026 3.78079 58.1085 4.62613 52.8363C5.47147 47.5641 8.35782 42.8411 12.6562 39.6966C21.682 32.7445 36.37 38.627 37.8837 48.4501C38.8087 54.7548 35.0806 60.4122 28.8298 59.7086C27.5334 59.6283 26.3051 59.0986 25.3545 58.2098C24.404 57.3211 23.7902 56.1285 23.6181 54.8359C23.446 53.5432 23.7263 52.2306 24.411 51.1224C25.0957 50.0142 26.1424 49.179 27.3722 48.7597L29.026 47.9434C28.2411 46.8176 28.8018 47.3242 27.4563 46.7894C12.46 46.1139 12.516 56.3592 15.4872 61.8477C21.4017 72.8529 48.9838 70.2916 47.5262 47.7746C46.9375 38.3456 39.6496 34.9117 35.445 30.2394C44.3027 30.8024 51.2262 33.5044 61.093 33.0541C69.1657 32.6882 77.9112 29.2262 79.1165 23.0621C69.9506 24.8354 68.6612 25.8768 58.7944 23.5406C38.7526 18.9809 21.9343 14.8716 4.94778 36.4316C3.77048 22.3585 11.7592 17.5736 22.7752 13.7457L26.7835 11.7755C19.4956 8.28533 9.46066 11.5222 2.48108 13.5205L0.827271 11.2407C-0.434082 9.58006 0.603027 10.4807 -1.19092 9.52377C-3.99399 11.0718 -2.36823 10.8185 -4.8349 13.5205C-11.5342 11.4659 -21.9615 8.22904 -29.1654 11.7755C-24.5964 15.9974 -5.87201 14.9842 -7.30157 36.4316C-23.8676 16.2789 -38.3033 17.9958 -59.4664 23.1466C-70.6786 25.9612 -70.6786 24.7509 -81.4143 23.1466C-76.2567 38.9085 -46.6845 30.8587 -37.7988 30.0987C-42.0314 34.968 -49.2914 37.9797 -49.908 47.662C-51.3936 70.179 -23.7835 72.8248 -17.8691 61.7351C-14.6736 55.7963 -15.066 46.2547 -29.8662 46.6487V46.902ZM188.268 231.063L188.996 232.78L190.146 230.838C189.781 218.707 191.463 218.285 187.483 206.773C190.146 204.803 190.286 206.407 191.519 203.114C190.118 201.003 190.23 201.144 187.483 200.299C188.996 194.079 193.089 181.329 189.277 174.63C183.979 181.892 187.062 196.837 164.974 197.147C167.048 194.051 171.001 192.7 176.186 184.003C179.787 178.273 181.701 171.638 181.708 164.863C181.307 157.769 180.065 150.749 178.008 143.95C175.43 133.114 176.551 133.142 178.008 122.644C171.169 124.895 168.506 132.804 168.254 141.305C167.973 151.156 170.412 157.461 171.057 166.327C166.264 162.414 163.236 154.899 153.538 154.308C149.658 153.803 145.722 154.604 142.344 156.585C138.966 158.566 136.337 161.616 134.869 165.257C131.45 173.701 133.664 183.862 140.335 186.873C146.25 189.688 155.696 187.971 154.351 174.461L153.734 172.913L152.585 174.658C152.06 175.81 151.175 176.758 150.064 177.357C148.953 177.955 147.676 178.173 146.431 177.975C145.185 177.777 144.038 177.175 143.165 176.261C142.292 175.347 141.741 174.171 141.597 172.913C141.036 166.664 146.334 163.034 152.809 163.934C162.704 165.37 168.338 179.921 161.61 189.266C152.332 202.016 132.655 200.693 125.703 183.299C122.9 176.234 124.162 172.519 123.461 165.116C116.089 166.664 116.93 171.252 113.202 176.15L101.765 175.981C101.706 177.492 101.984 178.997 102.581 180.385C103.178 181.774 104.077 183.01 105.213 184.003L107.596 186.254C104.372 191.433 102.326 190.589 101.989 199.793C107.455 197.991 109.894 195.064 117.603 196.528C122.099 197.359 126.175 199.714 129.151 203.198C126.209 206.942 121.942 209.402 117.238 210.066C109.726 211.361 107.091 208.715 101.905 206.688C101.616 209.233 101.979 211.811 102.96 214.175C103.941 216.54 105.508 218.613 107.512 220.199C104.708 223.013 101.625 224.871 101.149 230.275C105.049 230.819 108.998 230.923 112.921 230.585C115.977 234.497 115.416 239.957 123.405 241.477C122.48 204.437 148.8 204.718 158.723 214.513C160.522 216.106 161.955 218.071 162.925 220.273C163.895 222.475 164.377 224.862 164.34 227.27C164.303 229.677 163.746 232.048 162.709 234.219C161.672 236.39 160.178 238.309 158.331 239.845C149.922 247.163 135.346 239 144.316 228.868C150.763 228.051 150.51 229.093 153.313 233.033C158.415 226.391 150.51 216.146 141.457 219.129C128.002 223.604 129.964 252.905 152.669 252.257C162.003 252.032 167.048 244.348 170.917 240.014C170.664 246.403 162.031 280.375 178.12 283.866C176.298 274.718 175.317 273.283 177.644 263.628C182.269 245.221 185.408 228.108 168.87 213.275C166.768 211.417 166.74 211.811 165.507 209.362C173.495 209.531 178.513 210.995 181.905 215.639C185.038 220.287 187.203 225.524 188.268 231.035V231.063ZM-1.47125 410.777C26.3051 411.069 53.8858 406.084 79.8173 396.085C104.953 386.06 127.829 371.071 147.091 352.008C166.639 333.206 182.05 310.502 192.332 285.357C202.616 259.203 207.728 231.287 207.384 203.17C207.717 175.165 202.574 147.366 192.248 121.349C181.894 96.1783 166.418 73.4574 146.81 54.6423C127.545 35.5202 104.674 20.4494 79.537 10.3119C27.1749 -9.31612 -30.4817 -9.31612 -82.8439 10.3119C-107.926 20.3516 -130.731 35.3721 -149.893 54.4734C-169.368 73.2796 -184.704 95.9745 -194.91 121.096C-205.162 147.258 -210.255 175.17 -209.906 203.283C-210.263 231.498 -205.2 259.517 -194.994 285.808C-184.865 310.92 -169.584 333.61 -150.145 352.402C-110.379 391.319 -60.8212 410.777 -1.47125 410.777ZM-147.006 348.996C-108.099 387.106 -59.5879 406.17 -1.47125 406.189C25.7775 406.5 52.8377 401.619 78.2757 391.806C102.845 382.036 125.222 367.432 144.091 348.855C163.178 330.492 178.218 308.314 188.239 283.753C198.33 258.161 203.339 230.834 202.984 203.311C203.319 175.894 198.29 148.678 188.183 123.207C178.068 98.632 162.955 76.4486 143.811 58.0761C124.957 39.3756 102.583 24.6312 77.9954 14.7027C26.7167 -4.51224 -29.7432 -4.51224 -81.0219 14.7027C-105.553 24.4991 -127.87 39.1542 -146.641 57.7946C-165.646 76.1755 -180.616 98.3404 -190.593 122.869C-200.61 148.49 -205.588 175.817 -205.253 203.339C-205.63 230.953 -200.7 258.38 -190.733 284.119C-180.876 308.631 -165.975 330.778 -147.006 349.109V348.996Z" fill="white"/>
</g>
<defs>
<clipPath id="clip0_139_1316">
<rect x="-206" width="411" height="409" rx="204.5" fill="white"/>
</clipPath>
</defs>
</svg>
