<svg width="23" height="18" viewBox="0 0 23 18" fill="none" xmlns="http://www.w3.org/2000/svg">
<path d="M20.8437 0H2.15626C0.967226 0 0 0.967226 0 2.15626V15.0937C0 16.2828 0.967226 17.25 2.15626 17.25H20.8437C22.0327 17.25 23 16.2828 23 15.0937V2.15626C23 0.967226 22.0327 0 20.8437 0ZM20.8437 1.43749C20.9414 1.43749 21.0343 1.45775 21.1192 1.49314L11.5 9.83017L1.88073 1.49314C1.96566 1.4578 2.05856 1.43749 2.15621 1.43749H20.8437ZM20.8437 15.8125H2.15626C1.75969 15.8125 1.43749 15.4903 1.43749 15.0937V3.01186L11.029 11.3245C11.1645 11.4417 11.3322 11.5 11.5 11.5C11.6677 11.5 11.8355 11.4417 11.971 11.3245L21.5625 3.01186V15.0937C21.5624 15.4903 21.2403 15.8125 20.8437 15.8125Z" fill="black"/>
</svg>
