<svg width="87" height="40" viewBox="0 0 87 40" fill="none" xmlns="http://www.w3.org/2000/svg">
<g clip-path="url(#clip0_201_98)">
<path fill-rule="evenodd" clip-rule="evenodd" d="M0 18.5894V2.78613H3.44444L10.2011 12.4923V2.78613H13.6225V5.02592C12.8029 6.69443 12.3928 8.58133 12.3921 10.6866C12.3921 12.8108 12.8022 14.709 13.6225 16.3813V18.5894H10.134L3.42241 8.88095V18.5894H0ZM35.0106 18.5894V16.3348C35.8301 14.6693 36.2399 12.7866 36.2399 10.6866C36.2399 8.604 35.8298 6.73259 35.0095 5.0724V2.78613H39.4156L43.7809 13.0794L48.1682 2.78613H52.5423V18.5894H49.1155V8.81294L44.9474 18.5894H42.6012L38.433 8.85828V18.5894H35.0106ZM66.8841 18.5894L66.091 15.7885H59.1184L58.3297 18.5894H54.6661L59.5359 2.7884H65.7661L70.6359 18.5894H66.8841ZM60.0624 12.5399H65.1734L63.3306 6.037H61.9052L60.0624 12.5376V12.5399ZM72.7629 18.5894V2.78613H78.971C81.2526 2.78613 83.1619 3.53122 84.6989 5.02139C86.2359 6.51156 87.0037 8.40072 87.0022 10.6889C87.0022 12.9914 86.2381 14.884 84.7099 16.3666C83.1818 17.8492 81.2688 18.5901 78.971 18.5894H72.7629ZM76.1853 15.2716H78.884C80.2147 15.2716 81.3162 14.8352 82.1886 13.9624C83.061 13.0896 83.4964 11.9977 83.495 10.6866C83.495 9.38082 83.0584 8.28964 82.1853 7.41307C81.3121 6.5365 80.2106 6.1001 78.8807 6.10388H76.182L76.1853 15.2716Z" fill="black"/>
<path fill-rule="evenodd" clip-rule="evenodd" d="M24.3027 21.3732C21.319 21.3732 18.8278 20.3693 16.8289 18.3615C14.83 16.3537 13.8306 13.7954 13.8306 10.6866C13.8306 7.5967 14.8348 5.04331 16.8432 3.02644C18.8516 1.00957 21.3381 0.000755665 24.3027 0C27.2474 0 29.7335 1.01372 31.7611 3.04117C33.7886 5.06862 34.8042 7.6171 34.8079 10.6866C34.8079 13.7765 33.7989 16.3303 31.7809 18.3479C29.7629 20.3656 27.272 21.374 24.3082 21.3732H24.3027ZM23.8808 7.6205C23.5592 7.46522 23.4468 7.30539 22.9996 7.43008C22.5986 7.54343 22.592 7.71232 22.418 8.01383C22.2975 7.97528 22.1684 7.97528 22.0479 8.01383C21.9379 8.04929 21.8423 8.12098 21.7758 8.21786C22.0115 8.21786 22.1426 8.21786 22.2164 8.39582L22.1327 8.43209C22.0952 8.44116 22.049 8.44569 22.0126 8.45476C21.1512 8.65652 21.1138 10.1641 22.0435 10.0825C22.4775 10.0451 22.4301 9.6982 22.3133 9.41936C22.2517 9.47151 22.3056 9.4103 22.2583 9.47491C22.2329 9.51004 22.2528 9.49191 22.2252 9.53158C22.2129 9.55494 22.195 9.5747 22.1733 9.58897C22.1515 9.60325 22.1265 9.61159 22.1008 9.61319C21.68 9.67554 21.7802 9.09972 22.0457 8.96257C22.2583 8.84922 22.4962 8.99317 22.5964 9.10199C22.7551 9.27654 22.7473 9.4205 22.7793 9.71407L23.123 9.64606L23.0965 9.98611C23.4611 9.97251 23.8676 9.98611 23.9579 10.4395C23.6726 10.3783 23.4303 10.2343 23.0767 10.2457C22.4565 10.2661 22.125 10.7875 21.4343 10.1754C21.3462 10.0972 21.0565 9.6846 21.0532 9.51231C20.9915 9.91017 21.0235 10.1924 21.1975 10.4361C21.1212 10.4468 21.0479 10.4741 20.9826 10.5161C20.9173 10.5581 20.8614 10.6139 20.8186 10.6798C20.9122 10.894 21.0389 10.8328 21.1953 10.9462C21.119 11.0648 21.0668 11.198 21.0419 11.3378C21.0169 11.4777 21.0196 11.6213 21.0499 11.76C21.1072 11.7124 21.0631 11.7782 21.1204 11.6818C21.2493 11.4653 21.2889 11.3304 21.4971 11.1502C22.1239 10.6095 22.5061 11.1049 23.0822 11.1207C23.4578 11.1309 23.6528 10.9847 23.9568 10.936C23.9367 11.0158 23.9014 11.0908 23.853 11.1565C23.8046 11.2223 23.744 11.2775 23.6748 11.3191C23.4997 11.4189 23.3135 11.3894 23.1009 11.3848L23.1252 11.7181L22.776 11.658C22.776 11.955 22.7418 12.1114 22.5821 12.2678C22.1503 12.694 21.6635 12.2282 21.8485 11.8689C21.8673 11.8365 21.8931 11.8091 21.9241 11.7889C21.955 11.7687 21.9901 11.7563 22.0266 11.7527C22.063 11.749 22.0998 11.7543 22.1339 11.7679C22.1681 11.7816 22.1986 11.8034 22.223 11.8314C22.2506 11.87 22.223 11.8473 22.2517 11.8859L22.3056 11.9561C22.7044 11.1343 21.6447 11.0743 21.4156 11.6898C21.3323 11.8955 21.3256 12.1256 21.3967 12.3362C21.4678 12.5467 21.6118 12.723 21.8011 12.8312C21.9631 12.9207 22.0721 12.8992 22.2175 12.9604C22.1481 13.1282 22.0214 13.1508 21.7956 13.1542C21.9058 13.3605 22.1657 13.4274 22.4202 13.3526C22.5127 13.5102 22.4808 13.5589 22.6185 13.7051C22.7142 13.8139 22.8379 13.8925 22.9754 13.9318C23.4953 14.1018 23.6164 13.8355 23.8885 13.7618C24.057 13.9466 24.0196 14.0418 24.0086 14.3195C24.1217 14.2339 24.2002 14.1084 24.2289 13.967C24.2763 13.7119 24.1925 13.6269 24.1121 13.4637C24.1848 13.2098 24.2928 13.1021 24.2024 12.7541C24.1827 12.645 24.1339 12.5435 24.0616 12.4611C23.9893 12.3787 23.8962 12.3185 23.7927 12.2871C23.1857 12.1228 22.8564 12.9003 23.3212 13.1384C23.3146 12.9117 23.3389 12.7031 23.5966 12.753C23.7696 12.787 23.8467 12.9944 23.7718 13.1973C23.7397 13.2829 23.685 13.3574 23.6138 13.4126C23.5426 13.4678 23.4579 13.5014 23.3691 13.5095C23.2804 13.5176 23.1912 13.5 23.1117 13.4587C23.0321 13.4173 22.9655 13.3539 22.9192 13.2755C22.603 12.736 22.9875 11.828 24.0416 11.8779C24.0262 11.5617 24.0989 11.2885 24.3192 11.1876C24.5395 11.2885 24.6144 11.5628 24.5968 11.8791C25.0022 11.8598 25.304 11.9516 25.521 12.1692C25.7776 12.4265 26.0354 13.1894 25.5397 13.4444C25.4618 13.4851 25.3754 13.5056 25.288 13.504C25.2006 13.5024 25.115 13.4788 25.0385 13.4353C24.7918 13.2653 24.708 12.6714 25.207 12.7632C25.3227 12.8765 25.326 12.9128 25.3172 13.1384C25.7644 12.9117 25.4857 12.1477 24.87 12.2814C24.7641 12.3078 24.6677 12.3643 24.5917 12.4445C24.5157 12.5247 24.4633 12.6253 24.4404 12.7348C24.339 13.0817 24.447 13.2075 24.5241 13.4682C24.5175 13.5419 24.1727 13.9919 24.6276 14.3206C24.6276 14.0361 24.5781 13.9624 24.7499 13.7663C24.9063 13.8094 25.4637 14.2696 26.0078 13.7255C26.1543 13.5782 26.118 13.5238 26.2182 13.3571C26.4385 13.4161 26.7172 13.3832 26.8527 13.1622C26.6258 13.1486 26.4969 13.1497 26.422 12.9649C26.6974 12.8516 26.921 12.8924 27.1171 12.5864C27.4123 12.133 27.3131 11.182 26.5663 11.2942C26.2259 11.3452 26.1158 11.777 26.3658 11.955C26.4143 11.8416 26.4176 11.7782 26.5443 11.7578C27.1226 11.666 26.7117 12.9309 26.0596 12.2724C25.9043 12.1148 25.8613 11.9595 25.8679 11.6671L25.521 11.7238L25.5485 11.403C25.25 11.3452 24.8215 11.4846 24.6838 10.9394C24.9834 10.9904 25.1949 11.1343 25.565 11.1253C25.9748 11.1151 27.084 10.3522 27.5929 11.8553C27.637 11.488 27.6359 11.2171 27.453 10.9485C27.5863 10.851 27.735 10.894 27.8253 10.6821C27.7827 10.6161 27.7266 10.5605 27.661 10.519C27.5954 10.4775 27.5218 10.4511 27.4453 10.4418C27.5622 10.2582 27.6218 10.0423 27.616 9.82289C27.616 9.79455 27.616 9.72768 27.616 9.70161L27.5764 9.57692C27.0058 11.021 26.0486 10.257 25.5683 10.2502C25.2324 10.2423 24.9757 10.3817 24.6871 10.444C24.784 9.99065 25.1806 9.97251 25.5474 9.99065L25.521 9.65967L25.8723 9.72088C25.8569 9.36269 26.0299 8.90022 26.4573 8.92743C26.8549 8.95463 27.0289 9.6676 26.5145 9.61433C26.4044 9.55085 26.4264 9.53725 26.3702 9.4205C26.3154 9.46656 26.2748 9.52806 26.2533 9.59747C26.2319 9.66689 26.2306 9.74123 26.2495 9.81142C26.2684 9.88161 26.3068 9.94461 26.3599 9.99274C26.413 10.0409 26.4786 10.072 26.5487 10.0825C26.6911 10.1159 26.8406 10.093 26.9673 10.0182C27.094 9.94342 27.1888 9.82231 27.2327 9.67894C27.2804 9.56088 27.3031 9.43369 27.2991 9.3059C27.2952 9.1781 27.2648 9.05265 27.21 8.93793C27.1551 8.8232 27.0771 8.72186 26.9811 8.64069C26.8851 8.55951 26.7733 8.50037 26.6533 8.46723L26.433 8.40262C26.5112 8.22919 26.6324 8.22126 26.8736 8.22353C26.7381 7.99002 26.4506 7.97642 26.2303 8.0195C26.1466 7.86761 26.1477 7.78146 26.0332 7.65791C25.9292 7.55621 25.8036 7.48091 25.6664 7.43801C25.5166 7.38598 25.3562 7.37556 25.2012 7.4078C25.0463 7.44005 24.9024 7.51381 24.784 7.62164C24.5715 7.46862 24.6486 7.33826 24.6276 7.05489C24.1529 7.53436 24.5351 7.75766 24.5263 7.92768C24.4261 8.15438 24.3545 8.36181 24.447 8.65652C24.4736 8.76431 24.5289 8.86229 24.6068 8.93941C24.6846 9.01653 24.7819 9.0697 24.8876 9.09292C25.5188 9.2312 25.7556 8.43095 25.3128 8.23033C25.3414 8.42415 25.3458 8.5171 25.1883 8.61345C24.7213 8.67579 24.7929 8.10451 25.0506 7.93335C25.6234 7.55249 26.194 8.52844 25.5364 9.20173C25.3326 9.40916 25.0088 9.51118 24.6089 9.49418C24.6089 9.83989 24.5604 10.0609 24.3247 10.1856C24.0912 10.0643 24.0438 9.83649 24.0416 9.49191C23.6418 9.51231 23.3201 9.41143 23.1153 9.20173C22.8619 8.94216 22.6185 8.18159 23.1153 7.92315C23.1912 7.88374 23.2753 7.86397 23.3603 7.86555C23.4454 7.86713 23.5287 7.89001 23.6032 7.93222C23.872 8.12151 23.9414 8.68713 23.4303 8.61232C23.3201 8.47516 23.3003 8.44002 23.3411 8.23373C22.8905 8.46043 23.145 9.22894 23.764 9.09859C23.8697 9.07491 23.9669 9.02144 24.0447 8.94417C24.1225 8.8669 24.1779 8.76887 24.2047 8.66106C24.3247 8.2802 24.176 8.16345 24.1275 7.90275C24.3478 7.52529 24.2729 7.31219 24.024 7.05829C24.0064 7.43914 24.0824 7.34733 23.8951 7.62504L23.8808 7.6205ZM29.0436 12.6079L29.0282 12.5909L29.0117 12.5739L28.9775 12.5467C28.462 12.1488 28.8068 12.2554 28.1635 12.1182C28.1635 12.3755 28.2329 12.5195 28.245 12.7088H27.8683L27.9542 13.1712L27.5511 13.1452L27.5984 13.6382L27.1798 13.6292V14.0667L26.7018 14.0225L26.7326 14.443L26.2832 14.3523V14.7253C26.0761 14.6958 25.9329 14.6221 25.7049 14.6493C25.8272 15.0665 25.7534 15.0653 25.8712 15.1775C26.1147 15.4042 26.0915 15.4586 26.1819 15.5584C26.2491 15.3187 26.3847 15.1053 26.5711 14.9457C26.7575 14.7861 26.9861 14.6878 27.2274 14.6634C27.4687 14.639 27.7116 14.6896 27.9246 14.8087C28.1376 14.9279 28.311 15.1101 28.4224 15.3317C28.4998 15.4899 28.5402 15.6646 28.5402 15.8418C28.5402 16.0189 28.4998 16.1936 28.4224 16.3518C28.1018 16.9492 27.2239 17.0909 26.8351 16.4913C26.7858 16.4221 26.7505 16.3434 26.7313 16.2599C26.7121 16.1764 26.7094 16.0898 26.7234 16.0052C26.7374 15.9206 26.7677 15.8398 26.8126 15.7675C26.8576 15.6953 26.9161 15.633 26.9849 15.5845C27.2999 15.3498 27.7416 15.5187 27.6899 15.9154C27.6436 16.0526 27.4508 16.0991 27.4024 15.9098C27.3932 15.8562 27.3881 15.802 27.3869 15.7477C27.3119 15.7599 27.2419 15.7945 27.1858 15.8473C27.1297 15.9 27.0899 15.9686 27.0714 16.0444C27.0529 16.1203 27.0564 16.2001 27.0815 16.2739C27.1067 16.3477 27.1524 16.4122 27.2129 16.4595C27.3343 16.5557 27.4875 16.5991 27.6397 16.5805C27.7918 16.5618 27.9308 16.4826 28.0269 16.3598C28.4609 15.7533 28.0864 15.0767 27.366 15.063C26.6456 15.0494 26.2645 15.5799 26.3835 16.336C26.4028 16.4791 26.4501 16.6167 26.5224 16.7406C26.5947 16.8645 26.6906 16.972 26.8042 17.0569C27.0983 17.2904 27.2933 17.2439 27.6854 17.313C27.7471 17.5397 27.6711 17.593 27.8584 17.7177C27.9983 17.5658 27.9344 17.4309 28.1723 17.2473C28.6911 16.846 28.9313 16.7939 28.9841 15.7363C29.1472 15.963 29.1659 16.2317 29.1857 16.5683C29.3443 16.5037 29.3917 16.4232 29.4325 16.2283C29.5845 16.2816 29.6318 16.3303 29.8246 16.3269L29.7023 15.954C29.894 15.9098 29.9865 15.8406 30.0427 15.6887C29.6891 15.6763 29.4732 15.6491 29.221 15.487C30.3291 15.3974 30.2399 15.2444 30.7036 14.6403C30.8655 14.4306 30.9757 14.4521 31.1001 14.3659C31.1398 14.3399 31.1255 14.3455 31.1486 14.3195C31.0528 14.1631 30.9691 14.1857 30.7543 14.1529C30.7003 13.5136 30.5626 12.9253 29.7838 12.8097C28.3662 12.5988 28.3177 14.2957 28.9874 14.6131C29.1307 14.6735 29.2871 14.6933 29.4404 14.6704C29.5936 14.6474 29.7381 14.5826 29.8587 14.4827C29.9711 14.379 30.0401 14.2345 30.0512 14.0796C30.0623 13.9247 30.0146 13.7714 29.9182 13.6518C29.8703 13.5933 29.8069 13.5502 29.7358 13.5276C29.6647 13.5051 29.5887 13.5041 29.5171 13.5248C29.4454 13.5455 29.381 13.587 29.3317 13.6442C29.2823 13.7015 29.25 13.7723 29.2386 13.8479C29.3961 13.8559 29.4313 13.8593 29.514 13.9454C29.5382 14.3682 28.8828 14.1631 28.9874 13.6462C29.0083 13.5612 29.0454 13.4813 29.0967 13.4113C29.148 13.3413 29.2124 13.2826 29.2862 13.2386C29.3599 13.1947 29.4414 13.1664 29.526 13.1554C29.6105 13.1444 29.6963 13.1509 29.7783 13.1746C29.9323 13.2334 30.0669 13.3358 30.1667 13.47C30.2665 13.6042 30.3274 13.7647 30.3423 13.933C30.4029 14.6641 29.7155 15.2535 28.9169 14.9531C27.9862 14.596 27.8738 13.0035 29.0447 12.6124L29.0436 12.6079ZM27.6788 4.06132C26.9717 4.07152 26.4826 4.39117 26.3835 5.0418C26.1609 6.49494 27.789 6.57429 28.1283 5.89419C28.1883 5.74897 28.2098 5.58993 28.1904 5.43337C28.1711 5.27681 28.1116 5.12837 28.0181 5.00326C27.8617 4.80036 27.4949 4.66321 27.2206 4.90464C26.9463 5.14608 27.0322 5.57567 27.3902 5.61535C27.3902 5.44532 27.3957 5.41472 27.4905 5.33424C27.8507 5.33424 27.6954 5.77744 27.4398 5.87038C27.1237 5.98373 26.8626 5.70603 26.7789 5.51333C26.5156 4.93752 27.1248 4.40364 27.7141 4.49318C27.8493 4.51509 27.9787 4.56558 28.094 4.64147C28.2094 4.71737 28.3082 4.81702 28.3842 4.93416C28.4603 5.0513 28.512 5.18337 28.536 5.32207C28.56 5.46077 28.5558 5.60308 28.5237 5.74003C28.288 7.00842 26.4749 6.99708 26.194 5.81598C26.1745 5.82952 26.1573 5.84638 26.1433 5.86585C26.0144 6.02907 26.0332 6.07441 25.7963 6.27504C25.7963 6.50174 25.7567 6.53461 25.7137 6.72844C25.9068 6.71792 26.0986 6.68908 26.2865 6.6423V7.02769L26.7359 6.9336L26.7007 7.35073L27.1887 7.30539V7.73952L27.6006 7.73272L27.561 8.23486L27.9718 8.19632L27.8683 8.65199L28.2428 8.65992C28.212 8.87302 28.1492 9.00904 28.1668 9.25387C28.3071 9.19683 28.4566 9.1676 28.6074 9.16773C28.8222 8.88775 28.9654 8.86168 29.0403 8.75287C27.9124 8.4763 27.8991 6.64343 29.0679 6.37252C29.7288 6.21723 30.2421 6.6389 30.328 7.19091C30.4249 7.81207 29.8929 8.42302 29.3311 8.15665C29.1472 8.06937 28.8773 7.77693 28.9907 7.47655C29.1218 7.1195 29.6109 7.1535 29.4963 7.42781C29.4391 7.54116 29.3983 7.52302 29.2397 7.52982C29.2694 7.86307 29.6561 7.97076 29.8896 7.75652C30.3831 7.29066 29.7078 6.44733 29.0084 6.76018C28.7726 6.86559 28.5997 7.1399 28.5733 7.49582C28.5171 8.24619 29.0249 8.68259 29.7695 8.57831C30.4161 8.48763 30.7433 7.97076 30.7444 7.24078C30.9845 7.18751 31.0274 7.22831 31.1508 7.05262C31.0098 6.92567 30.8787 6.97101 30.7036 6.75565C30.3247 6.28978 30.3731 5.952 29.2276 5.89872C29.2466 5.87517 29.2708 5.85653 29.2981 5.84431L29.5745 5.74003C29.7231 5.70584 29.8751 5.68987 30.0273 5.69242C29.9667 5.52127 29.8698 5.48046 29.6968 5.42832C29.755 5.31189 29.7902 5.18476 29.8004 5.05427C29.6713 5.05857 29.5456 5.09766 29.4358 5.16762C29.3884 4.96472 29.3388 4.89444 29.1868 4.8117C29.1527 5.17895 29.1483 5.37845 28.9852 5.65729C28.9302 5.069 28.9434 4.83323 28.6041 4.48072C28.3981 4.26648 28.3783 4.30729 28.1767 4.15087C28.0647 4.065 27.9803 3.94655 27.9344 3.81082C27.9344 3.80402 27.9102 3.74961 27.9091 3.74734C27.8694 3.66913 27.8804 3.69974 27.8562 3.67367C27.6932 3.76321 27.7229 3.86749 27.6777 4.08513L27.6788 4.06132ZM20.3879 12.7065C20.4 12.524 20.4639 12.3721 20.4694 12.1194C19.6983 12.3234 20.2194 12.0978 19.8217 12.4231L19.5893 12.6113C20.7701 13.0262 20.6501 14.596 19.6994 14.9599C19.5356 15.0293 19.3575 15.0553 19.1815 15.0355C19.0054 15.0157 18.8369 14.9507 18.6916 14.8466C18.5525 14.7397 18.443 14.5973 18.3738 14.4335C18.3046 14.2696 18.2782 14.0901 18.2972 13.9125C18.393 13.0284 19.4946 12.9117 19.6499 13.6541C19.7523 14.146 19.1366 14.3818 19.1189 13.9738C19.1972 13.8604 19.217 13.8672 19.3987 13.8604C19.387 13.7828 19.3533 13.7105 19.3019 13.6525C19.2505 13.5945 19.1837 13.5533 19.1097 13.5341C19.0357 13.5149 18.9579 13.5185 18.8859 13.5445C18.8139 13.5704 18.7509 13.6176 18.7048 13.6802C18.6104 13.8023 18.5669 13.9578 18.5836 14.1128C18.6003 14.2679 18.676 14.4098 18.794 14.5076C19.3789 14.9395 20.0266 14.621 20.0607 13.8593C20.0949 13.0976 19.5728 12.7031 18.8237 12.8267C18.0439 12.9547 17.9425 13.577 17.8819 14.1665C17.6539 14.2016 17.5922 14.1755 17.4898 14.3319C17.5779 14.4453 17.785 14.4453 17.9458 14.672C18.3776 15.2705 18.4063 15.4382 19.4175 15.5017C19.1641 15.6649 18.9482 15.691 18.5946 15.7035C18.6213 15.7761 18.6674 15.8395 18.7276 15.8863C18.7879 15.933 18.8598 15.9612 18.935 15.9676C18.8778 16.0861 18.8406 16.2137 18.8248 16.345C18.9546 16.3407 19.081 16.3016 19.1916 16.2317C19.2478 16.4346 19.2842 16.5151 19.4494 16.5842C19.467 16.2668 19.4902 15.9596 19.651 15.7522C19.6774 16.3008 19.7402 16.6375 20.0332 16.9333C20.173 17.0561 20.3202 17.1696 20.4738 17.2734C20.6809 17.4366 20.6423 17.5873 20.7712 17.7268C20.9585 17.5941 20.8814 17.559 20.9442 17.3232C21.3462 17.2462 21.5313 17.304 21.8375 17.0535C22.5491 16.472 22.418 15.0256 21.2306 15.0744C20.5113 15.1039 20.1731 15.8055 20.6126 16.3858C20.7084 16.4992 20.8417 16.5718 20.9867 16.5896C21.1316 16.6074 21.2778 16.5691 21.3969 16.4822C21.4598 16.4386 21.5088 16.3769 21.5378 16.3048C21.5669 16.2327 21.5745 16.1534 21.56 16.0768C21.5454 16.0002 21.5092 15.9297 21.4559 15.8742C21.4026 15.8187 21.3345 15.7806 21.2603 15.7647C21.2603 15.7726 21.2526 15.7828 21.2504 15.7896C21.2482 15.7964 21.2438 15.8055 21.2427 15.8134L21.2228 15.9188C21.1898 16.0379 21.2228 15.9721 21.149 16.0231C20.7988 16.1682 20.8649 15.3884 21.4222 15.4949C21.5872 15.5358 21.7298 15.6422 21.8189 15.7908C21.9081 15.9394 21.9365 16.1183 21.8981 16.2884C21.8473 16.4463 21.7543 16.5864 21.6299 16.6926C21.5054 16.7989 21.3545 16.8669 21.1942 16.8891C19.9991 17.0569 19.6378 15.2308 20.801 14.7751C21.4619 14.5144 22.1702 14.7751 22.4455 15.5686C22.5039 15.5074 22.5303 15.4394 22.5887 15.3714C23.0205 14.8602 22.6989 15.3884 22.9192 14.6584C22.6857 14.6335 22.5524 14.706 22.3409 14.7355V14.3512L21.8904 14.4498L21.9223 14.027L21.4398 14.0769V13.6394H21.018L21.0664 13.1452L20.6556 13.1746L20.7503 12.7144L20.378 12.7076L20.3879 12.7065ZM19.6466 5.63575C19.478 5.34444 19.4824 5.16648 19.4439 4.79129C19.376 4.82276 19.3174 4.87216 19.2741 4.93448C19.2307 4.99679 19.2042 5.0698 19.1972 5.14608C19.0865 5.07632 18.9601 5.03727 18.8304 5.03273C18.8436 5.16348 18.881 5.29043 18.9405 5.40678C18.7676 5.46006 18.6651 5.50086 18.61 5.67089C18.8612 5.67882 19.228 5.70943 19.4109 5.87832C18.403 5.91459 18.3435 6.16849 17.9591 6.70124C17.7993 6.92114 17.6672 6.8826 17.492 7.03109C17.5967 7.20904 17.6826 7.17277 17.893 7.21811C17.893 7.94809 18.2234 8.47176 18.8634 8.55677C19.6091 8.65539 20.1202 8.23826 20.064 7.47428C20.0376 7.1263 19.8746 6.85879 19.6477 6.74771C19.504 6.6858 19.3464 6.66647 19.1926 6.69191C19.0388 6.71735 18.895 6.78654 18.7775 6.89166C18.5682 7.08209 18.4955 7.47882 18.7323 7.72025C18.9526 7.94128 19.358 7.85741 19.3998 7.51396C19.239 7.50715 19.1972 7.52189 19.141 7.41081C19.0044 7.08549 19.7138 7.12063 19.6653 7.65338C19.597 8.39015 18.4536 8.42755 18.3093 7.50375C18.1166 6.27391 19.8625 5.84318 20.3537 7.05829C20.4183 7.2104 20.4528 7.3742 20.4553 7.54016C20.4578 7.70612 20.4282 7.87094 20.3682 8.02502C20.3083 8.17911 20.2191 8.3194 20.106 8.43773C19.9929 8.55607 19.8581 8.65009 19.7094 8.71433L19.5992 8.78234C19.769 8.87591 19.9171 9.00623 20.0332 9.16433C20.184 9.16294 20.3337 9.19182 20.4738 9.24934C20.4859 8.9943 20.4298 8.87869 20.3978 8.65312H20.7712L20.6732 8.19405L21.0863 8.22806L21.0389 7.72479H21.4597L21.4531 7.29519L21.9399 7.34166L21.9047 6.92567L22.353 7.01522V6.62983C22.5417 6.67245 22.7331 6.70087 22.9258 6.71484C22.8762 6.51648 22.8421 6.48814 22.8443 6.26144L22.4455 5.80124C22.1856 6.91434 20.5498 7.02769 20.1577 5.92139C20.0941 5.74919 20.0729 5.56351 20.0957 5.38082C20.1186 5.19813 20.1849 5.02406 20.2888 4.87404C20.7668 4.23701 21.7108 4.42064 21.8992 5.0758C21.9387 5.24525 21.9122 5.4239 21.8254 5.57348C21.7385 5.72306 21.5981 5.83168 21.4343 5.87605C20.9552 5.97807 20.7338 5.32177 21.138 5.33084C21.2328 5.41245 21.235 5.43739 21.2394 5.61081C21.3112 5.60328 21.3794 5.57467 21.4358 5.5284C21.4923 5.48213 21.5347 5.42013 21.5579 5.3498C21.5811 5.27946 21.5842 5.20375 21.5668 5.13166C21.5493 5.05958 21.5122 4.99416 21.4597 4.94318C21.4071 4.88844 21.3444 4.84512 21.2752 4.8158C21.2061 4.78648 21.1319 4.77175 21.0571 4.77249C20.9823 4.77323 20.9084 4.78942 20.8398 4.82011C20.7712 4.85079 20.7093 4.89534 20.6578 4.95112C20.2833 5.35578 20.3273 6.21043 21.1832 6.29205C21.9465 6.36572 22.3519 5.83865 22.255 5.0452C22.2389 4.89998 22.1939 4.75975 22.1226 4.63334C22.0513 4.50693 21.9554 4.39707 21.8408 4.31069C21.5103 4.06472 21.3649 4.12366 20.9453 4.04772C20.9276 3.82102 20.9298 3.72354 20.7811 3.64646C20.7217 3.71107 20.7459 3.67707 20.7117 3.75981C20.6712 3.89931 20.5891 4.02221 20.4771 4.1112C19.9198 4.56459 19.7622 4.41384 19.6521 5.63122L19.6466 5.63575ZM24.3159 15.9506C23.9954 15.7239 23.9799 15.2093 24.1903 14.8602C23.8863 14.8205 23.7817 14.9735 23.6539 15.0812C23.5437 14.9905 23.4578 14.8386 23.2474 14.8341V15.3283C23.0271 15.4348 22.8795 15.4575 22.8289 15.7307C24.2818 15.6525 24.3556 16.8914 23.7255 17.2938C23.3367 17.542 22.7584 17.2598 22.7782 16.8086C22.8002 16.3314 23.4005 16.3666 23.3289 16.7395C23.3069 16.8528 23.2298 16.8585 23.1571 16.9662C24.1342 17.1067 23.7486 15.7806 22.8267 16.1875C22.6804 16.2544 22.5601 16.3697 22.485 16.5152C22.41 16.6607 22.3844 16.8278 22.4125 16.99C22.4499 17.3006 22.733 17.5182 22.906 17.6599C22.4907 17.6123 21.3969 17.2915 21.1579 17.9365C21.55 17.8775 21.5985 17.8163 22.0225 17.9365C22.7198 18.128 23.2805 18.2017 23.8632 17.6463C23.9322 17.5638 24.0057 17.4855 24.0835 17.4117C24.0835 17.7619 24.0053 17.9546 23.8169 18.1054C23.6286 18.2561 23.3664 18.2799 23.1813 18.4012C23.5845 18.5145 23.8323 18.4318 24.1727 18.3241C24.2509 18.4103 24.1969 18.4171 24.3159 18.4817C24.3897 18.442 24.3401 18.4817 24.4007 18.4114L24.4602 18.3241C25.0187 18.493 24.8799 18.4941 25.4516 18.3955C24.9151 18.1462 24.5527 18.1756 24.5483 17.4105C24.6706 17.4944 24.7224 17.661 25.0704 17.8719C25.6003 18.1938 26.0618 18.0872 26.6346 17.9297C27.0333 17.8163 27.1127 17.8843 27.4762 17.9399C27.2437 17.3028 26.1543 17.6112 25.7292 17.6644C26.5355 17.075 26.2358 16.362 25.7875 16.1829C24.8457 15.8055 24.5362 17.1328 25.4747 16.9696L25.4284 16.9118L25.4119 16.897C25.1784 16.6703 25.3568 16.506 25.4483 16.4754C25.6829 16.3972 25.847 16.6137 25.8536 16.8154C25.8701 17.2598 25.3029 17.5522 24.9063 17.2972C24.8152 17.2419 24.736 17.1678 24.6739 17.0797C24.6117 16.9916 24.5679 16.8912 24.545 16.7849C24.5222 16.6786 24.5209 16.5686 24.5412 16.4617C24.5614 16.3548 24.6029 16.2534 24.6629 16.1637C24.9339 15.7613 25.2368 15.7533 25.8085 15.7239C25.7534 15.4507 25.5981 15.4337 25.3833 15.3283C25.369 15.1424 25.4064 15.0415 25.3668 14.8341C25.1773 14.8341 25.076 14.9916 24.9735 15.0812C24.8634 14.9928 24.8876 14.9678 24.7532 14.9066C24.6563 14.8588 24.5477 14.8422 24.4415 14.859C24.6706 15.2648 24.6276 15.7295 24.3148 15.9506H24.3159ZM17.7883 10.4429C17.3136 10.4327 17.1142 10.2797 16.9677 9.8875C16.9468 9.83196 16.928 9.78095 16.906 9.71407L16.8311 9.54972C16.6769 9.84669 16.8399 10.2808 16.9027 10.5699C16.7848 10.6073 16.7738 10.6039 16.7419 10.724C16.7947 10.7694 16.8399 10.7875 16.8961 10.8306C16.8399 11.1003 16.6758 11.556 16.8311 11.8507C17.0668 11.4483 16.9335 10.9643 17.7685 10.9315C17.7244 11.0221 17.7817 10.9428 17.7112 11.0233C17.4678 11.3021 17.1197 11.5345 17.1351 12.2803C17.1576 12.5624 17.2089 12.8413 17.2882 13.1123C17.383 13.5181 17.3411 13.5657 17.2706 13.9341C17.8996 13.7777 17.5691 12.4605 17.5526 12.167C17.7134 12.3472 17.8985 12.6204 18.2135 12.6589C18.3675 12.6812 18.5244 12.6513 18.6605 12.5739C18.7966 12.4964 18.9046 12.3754 18.968 12.2293C19.3734 11.2341 18.0307 10.9144 18.2179 11.8893C18.3567 11.8076 18.2476 11.6716 18.5902 11.7192C18.7356 11.8825 18.7643 12.0366 18.5902 12.1908C18.1694 12.5546 17.416 11.7294 18.0395 11.1241C18.178 10.9901 18.3602 10.9141 18.5503 10.9111C18.7405 10.9082 18.9248 10.9785 19.0672 11.1083C19.347 11.3463 19.4329 11.7226 19.4142 12.2304C19.6433 12.1828 19.7369 12.023 19.8019 11.7872C19.9636 11.8035 20.1266 11.8004 20.2877 11.7782C20.2656 11.5662 20.1467 11.4846 20.0376 11.3724C20.1179 11.3096 20.1811 11.2265 20.221 11.1311C20.261 11.0358 20.2763 10.9315 20.2656 10.8283C20.0618 10.9133 19.9517 11.0131 19.6653 10.9643C19.5737 10.9515 19.4855 10.9201 19.4057 10.8721C19.326 10.824 19.2562 10.7602 19.2005 10.6843C19.3161 10.542 19.4775 10.4471 19.6554 10.4168C19.9638 10.359 20.0508 10.4747 20.2689 10.5472C20.259 10.2593 20.2337 10.2366 20.0982 10.0768C20.0758 10.0559 20.0578 10.0304 20.0453 10.002L20.0762 9.96798C20.1599 9.8875 20.2965 9.77415 20.2755 9.60072L19.8272 9.58259C19.6807 9.39329 19.7171 9.2074 19.4252 9.14619C19.3976 9.4545 19.4604 10.0133 19.0132 10.316C18.8438 10.438 18.6341 10.4858 18.4305 10.4488C18.2268 10.4118 18.0457 10.2931 17.9271 10.1187C17.6572 9.73561 17.8853 9.14052 18.3005 9.09859C18.7764 9.05211 18.8513 9.6744 18.4757 9.66533C18.349 9.66533 18.3071 9.58146 18.2443 9.49304C18.2443 9.49304 18.2333 9.49984 18.2322 9.51005C18.2126 9.54168 18.1995 9.57709 18.1936 9.61412C18.1878 9.65114 18.1893 9.689 18.1981 9.72541C18.2642 10.3466 19.2996 10.0915 18.9868 9.17453C18.9321 9.02826 18.833 8.90409 18.7042 8.82054C18.5753 8.73699 18.4237 8.69854 18.2719 8.71093C17.8731 8.72113 17.7443 9.03511 17.5537 9.1972C17.5768 8.84241 17.676 8.58624 17.6638 8.18839C17.6528 7.84834 17.5427 7.52756 17.2794 7.43801C17.3345 7.85854 17.3896 7.8506 17.2794 8.29607C17.1428 8.87642 17.0106 9.34002 17.3433 9.91357C17.5328 10.2389 17.7057 10.3194 17.7839 10.4418L17.7883 10.4429ZM20.6324 11.0641C20.8406 13.0352 22.5171 14.7003 24.6739 14.4793C25.1636 14.4371 25.6402 14.2951 26.0761 14.0615C26.5119 13.8279 26.8982 13.5074 27.2125 13.1187C27.5268 12.73 27.7628 12.2808 27.9067 11.7973C28.0507 11.3139 28.0997 10.8057 28.051 10.3026C28.0023 9.79939 27.8567 9.31122 27.6229 8.86649C27.389 8.42176 27.0715 8.02935 26.6888 7.71212C26.3061 7.39489 25.866 7.15918 25.3939 7.01871C24.9218 6.87824 24.4273 6.83583 23.9392 6.89393C22.0534 7.0957 20.3956 8.84015 20.6346 11.0641H20.6324ZM23.8797 6.72277C20.552 7.1535 19.2093 11.335 21.7989 13.7153C22.1984 14.0672 22.6634 14.3316 23.1654 14.4923C23.6675 14.6531 24.1961 14.7069 24.7191 14.6505C26.7018 14.4476 28.4367 12.5694 28.1668 10.2378C28.0986 9.62162 27.8922 9.03024 27.5637 8.51032C27.2353 7.99039 26.7939 7.55616 26.2744 7.24192C25.5506 6.80982 24.7113 6.62787 23.8797 6.72277ZM23.1891 4.3889C23.0789 4.40477 23.1637 4.3889 23.1329 4.42858L23.1902 4.46938C23.2358 4.48558 23.275 4.51677 23.3018 4.55814C23.3285 4.59952 23.3413 4.6488 23.3382 4.69839C23.3351 4.74798 23.3162 4.79514 23.2845 4.83261C23.2527 4.87009 23.2099 4.89579 23.1626 4.90578C22.9148 4.95905 22.7562 4.73349 22.7771 4.48638C22.8123 4.08059 23.3807 3.81762 23.7497 4.09419C23.8357 4.15314 23.9095 4.22913 23.9667 4.31771C24.0239 4.40629 24.0634 4.5057 24.0829 4.61015C24.1023 4.7146 24.1014 4.82199 24.0802 4.92606C24.0589 5.03014 24.0177 5.12882 23.959 5.21636C23.7222 5.58134 23.3873 5.63008 22.8211 5.64255C22.8663 5.94633 23.069 5.92026 23.2518 6.05854L23.2419 6.53008C23.3298 6.53653 23.4166 6.50768 23.4843 6.4496C23.5122 6.42981 23.5374 6.40616 23.5592 6.37932L23.6506 6.28978C23.8103 6.42013 23.8709 6.50968 24.176 6.51648C24.1011 6.31812 23.9987 6.17643 24.0471 5.89985C24.076 5.71086 24.1703 5.53898 24.3126 5.41585C24.7719 5.81031 24.5329 6.26597 24.4525 6.51534C24.7576 6.51534 24.8171 6.4156 24.9746 6.28864C24.9812 6.28864 24.99 6.28864 24.9933 6.30225L25.0528 6.36232C25.0911 6.41202 25.1394 6.45264 25.1943 6.48139C25.2493 6.51015 25.3096 6.52637 25.3712 6.52895L25.3833 6.05741C25.5595 5.92026 25.7644 5.94406 25.8074 5.64142C25.2775 5.63122 24.9151 5.58021 24.6827 5.23222C24.561 5.05743 24.5113 4.84021 24.5445 4.62789C24.5777 4.41557 24.6911 4.22536 24.8601 4.09873C25.2147 3.81875 25.7919 4.05565 25.8514 4.45124C25.8878 4.70515 25.7413 4.93298 25.4956 4.90464C25.4447 4.90141 25.3964 4.88008 25.3591 4.84429C25.3217 4.8085 25.2976 4.76047 25.2908 4.70841C25.2841 4.65635 25.2951 4.60349 25.322 4.55886C25.3489 4.51423 25.39 4.4806 25.4384 4.46371L25.5033 4.43084C25.4725 4.3855 25.4945 4.40591 25.4417 4.38437C24.8523 4.35716 24.8545 4.76976 24.9713 4.99079C25.2037 5.43399 26.2876 5.33084 26.2303 4.42404C26.2072 4.04432 25.9208 3.90603 25.7556 3.71787C26.1037 3.74054 26.3757 3.84936 26.7635 3.83122C27.0807 3.81649 27.4244 3.67707 27.4718 3.42883C27.1116 3.50024 27.0609 3.54218 26.6732 3.4481C25.8856 3.26447 25.2247 3.09898 24.5571 3.96724C24.5109 3.40049 24.8248 3.2078 25.2577 3.05364L25.4152 2.9743C25.1288 2.83374 24.7345 2.9641 24.4602 3.04457L24.3952 2.95276C24.3456 2.88588 24.3864 2.92216 24.3159 2.88362C24.2058 2.94596 24.2696 2.93576 24.1727 3.04457C23.9094 2.96183 23.4997 2.83148 23.2166 2.9743C23.3961 3.14432 24.132 3.10352 24.0758 3.96724C23.4248 3.15566 22.8575 3.2248 22.0259 3.43223C21.5852 3.54558 21.5852 3.49684 21.1634 3.43223C21.366 4.06699 22.5281 3.74281 22.8773 3.7122C22.711 3.9083 22.4257 4.02958 22.4015 4.41951C22.3431 5.32631 23.4281 5.43285 23.6605 4.98626C23.7861 4.74709 23.7707 4.36283 23.1891 4.3787V4.3889ZM31.7611 11.8054L31.7897 11.8745L31.8349 11.7963C31.8205 11.3078 31.8866 11.2908 31.7302 10.8272C31.8349 10.7478 31.8404 10.8124 31.8888 10.6798C31.8338 10.5948 31.8382 10.6005 31.7302 10.5665C31.7897 10.316 31.9505 9.80249 31.8007 9.53271C31.5925 9.82516 31.7137 10.427 30.8457 10.4395C30.9272 10.3148 31.0825 10.2604 31.2863 9.91017C31.4278 9.67942 31.503 9.41223 31.5033 9.13939C31.4875 8.85371 31.4387 8.57099 31.3579 8.2972C31.2566 7.86081 31.3006 7.86194 31.3579 7.43914C31.0891 7.52982 30.9845 7.84834 30.9746 8.19065C30.9636 8.58738 31.0594 8.84128 31.0847 9.19833C30.8964 9.04078 30.7774 8.73813 30.3963 8.71433C30.2438 8.694 30.0891 8.72624 29.9564 8.80603C29.8236 8.88581 29.7204 9.00863 29.6627 9.15526C29.5283 9.49531 29.6153 9.9045 29.8775 10.0258C30.1099 10.1391 30.4811 10.07 30.4282 9.52591L30.404 9.46357L30.3588 9.53385C30.3382 9.58023 30.3034 9.6184 30.2598 9.64252C30.2161 9.66664 30.166 9.67539 30.117 9.66742C30.068 9.65945 30.023 9.63521 29.9887 9.5984C29.9544 9.56159 29.9327 9.51424 29.927 9.46357C29.905 9.21194 30.1132 9.06571 30.3676 9.10199C30.7565 9.15979 30.9779 9.74581 30.7135 10.1221C30.3489 10.6356 29.5756 10.5823 29.3025 9.88183C29.1923 9.59732 29.2419 9.4477 29.2143 9.14959C28.9247 9.21194 28.9577 9.3967 28.8112 9.59392L28.3618 9.58712C28.3594 9.64797 28.3704 9.70858 28.3938 9.76449C28.4173 9.8204 28.4526 9.87019 28.4973 9.91017L28.5909 10.0008C28.4642 10.2094 28.3838 10.1754 28.3706 10.5461C28.5854 10.4735 28.6812 10.3556 28.9841 10.4146C29.1608 10.4481 29.321 10.5429 29.438 10.6832C29.3223 10.834 29.1546 10.9331 28.9698 10.9598C28.6746 11.0119 28.5711 10.9054 28.3673 10.8238C28.3559 10.9263 28.3702 11.03 28.4087 11.1253C28.4473 11.2205 28.5089 11.304 28.5876 11.3678C28.4774 11.4812 28.3563 11.556 28.3375 11.7736C28.4908 11.7955 28.646 11.7997 28.8002 11.7861C28.9202 11.9437 28.8982 12.1636 29.2121 12.2248C29.1758 10.7331 30.2101 10.7444 30.6001 11.1389C30.6707 11.203 30.7271 11.2822 30.7652 11.3708C30.8033 11.4595 30.8222 11.5557 30.8208 11.6526C30.8193 11.7496 30.7974 11.845 30.7567 11.9325C30.7159 12.0199 30.6572 12.0972 30.5846 12.159C30.2542 12.4537 29.6814 12.125 30.0339 11.717C30.2872 11.6841 30.2773 11.726 30.3875 11.8847C30.5879 11.6172 30.2773 11.2046 29.9215 11.3248C29.3928 11.505 29.4699 12.685 30.3621 12.6589C30.7289 12.6498 30.9272 12.3404 31.0792 12.1658C31.0693 12.4231 30.73 13.7913 31.3623 13.9318C31.2907 13.5634 31.2522 13.5056 31.3436 13.1168C31.5253 12.3755 31.6487 11.6864 30.9988 11.089C30.9162 11.0142 30.9151 11.0301 30.8666 10.9315C31.1806 10.9383 31.3777 10.9972 31.511 11.1842C31.6342 11.3714 31.7192 11.5823 31.7611 11.8042V11.8054ZM24.3049 19.0428C25.3964 19.0545 26.4803 18.8538 27.4993 18.4511C28.487 18.0473 29.386 17.4437 30.1429 16.676C30.9111 15.9188 31.5167 15.0045 31.9208 13.9919C32.3249 12.9386 32.5258 11.8144 32.5123 10.6821C32.5254 9.55426 32.3233 8.43476 31.9175 7.387C31.5106 6.37334 30.9024 5.45833 30.1319 4.70061C29.3748 3.93054 28.4761 3.32361 27.4883 2.91536C25.4306 2.1249 23.1649 2.1249 21.1072 2.91536C20.1216 3.31967 19.2254 3.92457 18.4724 4.69381C17.707 5.45117 17.1044 6.36514 16.7033 7.3768C16.3005 8.4304 16.1003 9.55449 16.114 10.6866C16.1 11.8229 16.2989 12.9513 16.7 14.01C17.0981 15.0214 17.6986 15.9351 18.4624 16.6919C20.0251 18.2591 21.9726 19.0428 24.3049 19.0428ZM18.5858 16.5547C20.1147 18.0895 22.0211 18.8572 24.3049 18.858C25.3757 18.8705 26.4391 18.674 27.4387 18.2788C28.4042 17.8853 29.2835 17.2972 30.0251 16.5491C30.7751 15.8095 31.3661 14.9164 31.76 13.9273C32.1565 12.8966 32.3533 11.7961 32.3394 10.6877C32.3525 9.58363 32.1549 8.48759 31.7578 7.46181C31.3603 6.47216 30.7664 5.57879 30.0141 4.8389C29.2731 4.0858 28.3939 3.49202 27.4277 3.09218C25.4126 2.31836 23.1939 2.31836 21.1788 3.09218C20.2148 3.4867 19.3378 4.07688 18.6001 4.82757C17.8533 5.5678 17.265 6.46041 16.873 7.44821C16.4793 8.48001 16.2837 9.58051 16.2969 10.6889C16.2821 11.8009 16.4758 12.9055 16.8674 13.942C17.2548 14.9292 17.8404 15.8211 18.5858 16.5593V16.5547Z" fill="url(#paint0_linear_201_98)"/>
<path fill-rule="evenodd" clip-rule="evenodd" d="M0 23.9281V39.7291H3.42241V34.3121H5.63756L8.44533 39.7291H12.5474L9.21309 33.7023C11.1584 32.5129 12.131 31.0155 12.131 29.2102C12.131 27.6755 11.6118 26.4113 10.5735 25.4176C9.5351 24.4239 8.24081 23.9274 6.69061 23.9281H0ZM3.42241 27.2459H6.62452C6.88956 27.2377 7.15341 27.2855 7.39973 27.3865C7.64605 27.4875 7.86959 27.6395 8.05649 27.833C8.24095 28.0175 8.38673 28.2389 8.48486 28.4835C8.583 28.7282 8.6314 28.9909 8.62708 29.2556C8.63427 29.5196 8.58827 29.7823 8.49197 30.0271C8.39566 30.2719 8.25114 30.4936 8.06751 30.6781C7.87777 30.8663 7.65328 31.0134 7.40732 31.1108C7.16136 31.2081 6.89892 31.2537 6.63554 31.2449H3.42241V27.2459ZM22.1074 27.2459H20.1578V36.4114H22.1074V39.7291H14.7813V36.4114H16.7331V27.2459H14.7813V23.9281H22.1074V27.2459ZM32.5454 40C30.2205 40 28.2745 39.2289 26.7074 37.6865C25.1403 36.1442 24.3586 34.1916 24.3622 31.8286C24.3622 29.4664 25.1484 27.5138 26.7206 25.9707C28.2928 24.4276 30.2344 23.6565 32.5454 23.6572C33.4661 23.6484 34.3828 23.7818 35.2651 24.0528C36.0993 24.3158 36.7719 24.6354 37.283 25.0118C37.7965 25.3896 38.2643 25.8291 38.6765 26.321C39.0237 26.7165 39.3253 27.152 39.5753 27.6188C39.7527 27.9742 39.9101 28.3398 40.0467 28.7138L36.4503 29.1422C36.274 28.676 35.868 28.2097 35.232 27.7435C34.5961 27.2773 33.7005 27.0438 32.5454 27.043C31.1854 27.043 30.0556 27.5021 29.156 28.4202C28.2565 29.3383 27.8067 30.4745 27.8067 31.8286C27.8067 33.1979 28.2565 34.3378 29.156 35.2484C30.0556 36.159 31.1854 36.6124 32.5454 36.6086C33.7152 36.6086 34.7132 36.3041 35.5393 35.695C36.3655 35.0859 36.7785 34.4814 36.7785 33.8814H33.1369V30.6997H40.5358C40.5358 32.3704 40.3155 33.8266 39.8749 35.0682C39.4343 36.3097 38.8299 37.2777 38.0618 37.9722C37.3248 38.646 36.4683 39.1671 35.5393 39.5069C34.576 39.8462 33.5635 40.0141 32.5454 40.0034V40ZM53.9281 23.9281H57.3505V39.7291H53.9281V33.4314H47.4137V39.7291H43.9913V23.9281H47.4137V30.1136H53.9281V23.9281ZM72.9843 23.9281V27.2459H68.38V39.7291H64.9586V27.2459H60.3323V23.9281H72.9843ZM81.0254 40C79.4025 40 78.0351 39.5901 76.9233 38.7702C76.3914 38.3949 75.9492 37.9003 75.63 37.3236C75.3108 36.747 75.1229 36.1033 75.0805 35.4411L78.569 34.9877C78.569 35.5167 78.8396 35.9606 79.3808 36.3195C79.8866 36.6699 80.4818 36.8584 81.0915 36.8614C81.6603 36.8699 82.2242 36.7508 82.7437 36.5122C82.9735 36.4203 83.1696 36.2567 83.3043 36.0442C83.4391 35.8317 83.5057 35.5812 83.495 35.3277C83.4927 35.1097 83.419 34.8988 83.2857 34.7292C83.1532 34.5473 82.9942 34.3874 82.8142 34.2554C82.5742 34.0943 82.3151 33.9655 82.0432 33.8723C81.7127 33.7442 81.4329 33.6456 81.2203 33.5787C81.0077 33.5119 80.7048 33.4246 80.3105 33.3192C79.6958 33.1537 79.195 32.9991 78.808 32.8556C78.3546 32.6836 77.913 32.4802 77.4862 32.2469C77.0515 32.0253 76.6579 31.7272 76.323 31.3662C76.0099 30.9931 75.7647 30.5649 75.5993 30.1023C75.3954 29.5431 75.2953 28.9494 75.3041 28.3522C75.3041 26.9232 75.8449 25.7833 76.9266 24.9324C78.0083 24.0815 79.361 23.6565 80.9846 23.6572C82.5502 23.6572 83.8721 24.0487 84.9501 24.8315C85.4634 25.1875 85.8912 25.6592 86.2009 26.2107C86.5107 26.7622 86.6943 27.379 86.7378 28.0144L83.2504 28.4678C83.2504 27.9864 83.0088 27.5875 82.5256 27.2708C82.0692 26.9632 81.5357 26.7986 80.9901 26.797C80.4693 26.7889 79.9542 26.909 79.4876 27.1473C79.0412 27.3808 78.8183 27.7832 78.819 28.3545C78.8191 28.5972 78.9004 28.8326 79.0492 29.021C79.1911 29.2135 79.3658 29.3779 79.5648 29.5061C79.8277 29.6577 80.1077 29.7753 80.3986 29.8563C80.7632 29.9697 81.0672 30.0513 81.3085 30.1046L82.3064 30.3188C83.7391 30.6044 84.8799 31.1123 85.7288 31.8422C86.5778 32.5722 87.0018 33.6596 87.0011 35.1044C87.0011 36.6082 86.4309 37.8006 85.2904 38.6818C84.15 39.5629 82.7309 40.0023 81.0331 40H81.0254Z" fill="url(#paint1_linear_201_98)"/>
</g>
<defs>
<linearGradient id="paint0_linear_201_98" x1="43.8678" y1="-4.77656" x2="7.78281" y2="22.1628" gradientUnits="userSpaceOnUse">
<stop stop-color="#B88D43"/>
<stop offset="0.23" stop-color="#F8D98F"/>
<stop offset="0.34" stop-color="#957745"/>
<stop offset="0.52" stop-color="#E2B87A"/>
<stop offset="0.67" stop-color="#E6C87E"/>
<stop offset="0.8" stop-color="#A3834F"/>
<stop offset="1" stop-color="#EECE81"/>
</linearGradient>
<linearGradient id="paint1_linear_201_98" x1="96.5061" y1="16.735" x2="-19.3764" y2="46.8101" gradientUnits="userSpaceOnUse">
<stop stop-color="#B88D43"/>
<stop offset="0.23" stop-color="#F8D98F"/>
<stop offset="0.34" stop-color="#957745"/>
<stop offset="0.52" stop-color="#E2B87A"/>
<stop offset="0.67" stop-color="#E6C87E"/>
<stop offset="0.8" stop-color="#A3834F"/>
<stop offset="1" stop-color="#EECE81"/>
</linearGradient>
<clipPath id="clip0_201_98">
<rect width="87" height="40" fill="white"/>
</clipPath>
</defs>
</svg>
