<svg width="24" height="26" viewBox="0 0 24 26" fill="none" xmlns="http://www.w3.org/2000/svg">
<path d="M22.3517 5.71111C19.6227 5.71111 17.4024 3.49081 17.4024 0.761719C17.4024 0.340988 17.0612 0 16.6406 0H12.5611C12.1404 0 11.7994 0.340988 11.7994 0.761719V17.4874C11.7994 19.0918 10.4941 20.397 8.88956 20.397C7.28519 20.397 5.97995 19.0918 5.97995 17.4874C5.97995 15.8828 7.28519 14.5776 8.88956 14.5776C9.31029 14.5776 9.65128 14.2366 9.65128 13.8159V9.73631C9.65128 9.31578 9.31029 8.97459 8.88956 8.97459C4.19566 8.97459 0.376953 12.7935 0.376953 17.4874C0.376953 22.1813 4.19566 26 8.88956 26C13.5835 26 17.4024 22.1813 17.4024 17.4874V10.0838C18.9185 10.8922 20.6053 11.3141 22.3517 11.3141C22.7725 11.3141 23.1135 10.9731 23.1135 10.5524V6.47282C23.1135 6.05229 22.7725 5.71111 22.3517 5.71111ZM21.59 9.75912C19.9638 9.62384 18.4196 9.05573 17.0854 8.09604C16.8535 7.92902 16.5476 7.90601 16.2931 8.03653C16.0388 8.16666 15.8789 8.4285 15.8789 8.71434V17.4874C15.8789 21.3412 12.7434 24.4766 8.88956 24.4766C5.03574 24.4766 1.90039 21.3412 1.90039 17.4874C1.90039 13.8909 4.63107 10.92 8.12784 10.5393V13.1196C6.04501 13.4818 4.45651 15.3024 4.45651 17.4874C4.45651 19.9318 6.44511 21.9206 8.88956 21.9206C11.3342 21.9206 13.3228 19.9318 13.3228 17.4874V1.52344H15.9234C16.2723 4.48502 18.6284 6.84119 21.59 7.19011V9.75912Z" fill="black"/>
</svg>
