<svg width="30" height="30" viewBox="0 0 30 30" fill="none" xmlns="http://www.w3.org/2000/svg">
<g clip-path="url(#clip0_242_152)">
<rect width="30" height="30" rx="15" fill="#1E1E1E"/>
<g clip-path="url(#clip1_242_152)">
<path d="M14.9997 8.75C10.833 8.75 7.27467 11.3417 5.83301 15C7.27467 18.6583 10.833 21.25 14.9997 21.25C19.1663 21.25 22.7247 18.6583 24.1663 15C22.7247 11.3417 19.1663 8.75 14.9997 8.75ZM14.9997 19.1667C12.6997 19.1667 10.833 17.3 10.833 15C10.833 12.7 12.6997 10.8333 14.9997 10.8333C17.2997 10.8333 19.1663 12.7 19.1663 15C19.1663 17.3 17.2997 19.1667 14.9997 19.1667ZM14.9997 12.5C13.6163 12.5 12.4997 13.6167 12.4997 15C12.4997 16.3833 13.6163 17.5 14.9997 17.5C16.383 17.5 17.4997 16.3833 17.4997 15C17.4997 13.6167 16.383 12.5 14.9997 12.5Z" fill="white"/>
</g>
</g>
<defs>
<clipPath id="clip0_242_152">
<rect width="30" height="30" rx="15" fill="white"/>
</clipPath>
<clipPath id="clip1_242_152">
<rect width="20" height="20" fill="white" transform="translate(5 5)"/>
</clipPath>
</defs>
</svg>
